<?xml version="1.0" encoding="UTF-8" standalone="no"?>
<!DOCTYPE svg PUBLIC "-//W3C//DTD SVG 1.1//EN"
 "http://www.w3.org/Graphics/SVG/1.1/DTD/svg11.dtd">
<!-- Generated by graphviz version 2.43.0 (0)
 -->
<!-- Title: glthread_priority_insert Pages: 1 -->
<svg width="255pt" height="66pt"
 viewBox="0.00 0.00 255.00 66.00" xmlns="http://www.w3.org/2000/svg" xmlns:xlink="http://www.w3.org/1999/xlink">
<g id="graph0" class="graph" transform="scale(1 1) rotate(0) translate(4 62)">
<title>glthread_priority_insert</title>
<polygon fill="white" stroke="transparent" points="-4,4 -4,-62 251,-62 251,4 -4,4"/>
<!-- Node1 -->
<g id="node1" class="node">
<title>Node1</title>
<g id="a_node1"><a xlink:title="Insert a glthread_t structure into a sorted linked list based on priority.">
<polygon fill="#bfbfbf" stroke="black" points="0,-19.5 0,-38.5 115,-38.5 115,-19.5 0,-19.5"/>
<text text-anchor="middle" x="57.5" y="-26.5" font-family="Helvetica,sans-Serif" font-size="10.00">glthread_priority_insert</text>
</a>
</g>
</g>
<!-- Node2 -->
<g id="node2" class="node">
<title>Node2</title>
<g id="a_node2"><a xlink:href="glthread_8c.html#aa63bf952adace7bfd5bc0cdf970eb4db" target="_top" xlink:title="Adds a new node after the specified current node in the threaded linked list.">
<polygon fill="white" stroke="black" points="151,-38.5 151,-57.5 247,-57.5 247,-38.5 151,-38.5"/>
<text text-anchor="middle" x="199" y="-45.5" font-family="Helvetica,sans-Serif" font-size="10.00">glthread_add_next</text>
</a>
</g>
</g>
<!-- Node1&#45;&gt;Node2 -->
<g id="edge1" class="edge">
<title>Node1&#45;&gt;Node2</title>
<path fill="none" stroke="midnightblue" d="M115.24,-36.73C123.61,-37.87 132.23,-39.04 140.61,-40.18"/>
<polygon fill="midnightblue" stroke="midnightblue" points="140.29,-43.67 150.67,-41.55 141.24,-36.74 140.29,-43.67"/>
</g>
<!-- Node3 -->
<g id="node3" class="node">
<title>Node3</title>
<g id="a_node3"><a xlink:href="glthread_8c.html#a9e4b763220b1c69da2d9e9f191506f89" target="_top" xlink:title="Initialize a glthread_t structure.">
<polygon fill="white" stroke="black" points="164.5,-0.5 164.5,-19.5 233.5,-19.5 233.5,-0.5 164.5,-0.5"/>
<text text-anchor="middle" x="199" y="-7.5" font-family="Helvetica,sans-Serif" font-size="10.00">init_glthread</text>
</a>
</g>
</g>
<!-- Node1&#45;&gt;Node3 -->
<g id="edge2" class="edge">
<title>Node1&#45;&gt;Node3</title>
<path fill="none" stroke="midnightblue" d="M115.24,-21.27C128.2,-19.51 141.79,-17.66 154.12,-15.98"/>
<polygon fill="midnightblue" stroke="midnightblue" points="154.71,-19.43 164.14,-14.61 153.76,-12.49 154.71,-19.43"/>
</g>
</g>
</svg>
