<?xml version="1.0" encoding="UTF-8" standalone="no"?>
<!DOCTYPE svg PUBLIC "-//W3C//DTD SVG 1.1//EN"
 "http://www.w3.org/Graphics/SVG/1.1/DTD/svg11.dtd">
<!-- Generated by graphviz version 2.43.0 (0)
 -->
<!-- Title: include/glthread.h Pages: 1 -->
<svg width="238pt" height="140pt"
 viewBox="0.00 0.00 238.00 140.00" xmlns="http://www.w3.org/2000/svg" xmlns:xlink="http://www.w3.org/1999/xlink">
<g id="graph0" class="graph" transform="scale(1 1) rotate(0) translate(4 136)">
<title>include/glthread.h</title>
<polygon fill="white" stroke="transparent" points="-4,4 -4,-136 234,-136 234,4 -4,4"/>
<!-- Node1 -->
<g id="node1" class="node">
<title>Node1</title>
<g id="a_node1"><a xlink:title="Header file for the Generic Linked List Thread library.">
<polygon fill="#bfbfbf" stroke="black" points="53.5,-112.5 53.5,-131.5 146.5,-131.5 146.5,-112.5 53.5,-112.5"/>
<text text-anchor="middle" x="100" y="-119.5" font-family="Helvetica,sans-Serif" font-size="10.00">include/glthread.h</text>
</a>
</g>
</g>
<!-- Node2 -->
<g id="node2" class="node">
<title>Node2</title>
<g id="a_node2"><a xlink:href="glthread_8c.html" target="_top" xlink:title="Implementation file for the Generic Linked List Thread library.">
<polygon fill="white" stroke="black" points="0,-56.5 0,-75.5 76,-75.5 76,-56.5 0,-56.5"/>
<text text-anchor="middle" x="38" y="-63.5" font-family="Helvetica,sans-Serif" font-size="10.00">src/glthread.c</text>
</a>
</g>
</g>
<!-- Node1&#45;&gt;Node2 -->
<g id="edge1" class="edge">
<title>Node1&#45;&gt;Node2</title>
<path fill="none" stroke="midnightblue" d="M82.25,-105.54C71.19,-95.91 57.37,-83.87 48.14,-75.83"/>
<polygon fill="midnightblue" stroke="midnightblue" points="80.2,-108.4 90.04,-112.32 84.8,-103.12 80.2,-108.4"/>
</g>
<!-- Node3 -->
<g id="node3" class="node">
<title>Node3</title>
<g id="a_node3"><a xlink:href="memory__manager_8h.html" target="_top" xlink:title="Header file for the Memory Manager module.">
<polygon fill="white" stroke="black" points="94,-56.5 94,-75.5 230,-75.5 230,-56.5 94,-56.5"/>
<text text-anchor="middle" x="162" y="-63.5" font-family="Helvetica,sans-Serif" font-size="10.00">include/memory_manager.h</text>
</a>
</g>
</g>
<!-- Node1&#45;&gt;Node3 -->
<g id="edge2" class="edge">
<title>Node1&#45;&gt;Node3</title>
<path fill="none" stroke="midnightblue" d="M117.75,-105.54C128.81,-95.91 142.63,-83.87 151.86,-75.83"/>
<polygon fill="midnightblue" stroke="midnightblue" points="115.2,-103.12 109.96,-112.32 119.8,-108.4 115.2,-103.12"/>
</g>
<!-- Node4 -->
<g id="node4" class="node">
<title>Node4</title>
<g id="a_node4"><a xlink:href="memory__manager_8c.html" target="_top" xlink:title="Implementation file for the Memory Manager module.">
<polygon fill="white" stroke="black" points="102.5,-0.5 102.5,-19.5 221.5,-19.5 221.5,-0.5 102.5,-0.5"/>
<text text-anchor="middle" x="162" y="-7.5" font-family="Helvetica,sans-Serif" font-size="10.00">src/memory_manager.c</text>
</a>
</g>
</g>
<!-- Node3&#45;&gt;Node4 -->
<g id="edge3" class="edge">
<title>Node3&#45;&gt;Node4</title>
<path fill="none" stroke="midnightblue" d="M162,-45.8C162,-36.91 162,-26.78 162,-19.75"/>
<polygon fill="midnightblue" stroke="midnightblue" points="158.5,-46.08 162,-56.08 165.5,-46.08 158.5,-46.08"/>
</g>
</g>
</svg>
