<?xml version="1.0" encoding="UTF-8" standalone="no"?>
<!DOCTYPE svg PUBLIC "-//W3C//DTD SVG 1.1//EN"
 "http://www.w3.org/Graphics/SVG/1.1/DTD/svg11.dtd">
<!-- Generated by graphviz version 2.43.0 (0)
 -->
<!-- Title: init_glthread Pages: 1 -->
<svg width="803pt" height="161pt"
 viewBox="0.00 0.00 803.00 161.00" xmlns="http://www.w3.org/2000/svg" xmlns:xlink="http://www.w3.org/1999/xlink">
<g id="graph0" class="graph" transform="scale(1 1) rotate(0) translate(4 157)">
<title>init_glthread</title>
<polygon fill="white" stroke="transparent" points="-4,4 -4,-157 799,-157 799,4 -4,4"/>
<!-- Node1 -->
<g id="node1" class="node">
<title>Node1</title>
<g id="a_node1"><a xlink:title="Initialize a glthread_t structure.">
<polygon fill="#bfbfbf" stroke="black" points="726,-61 726,-80 795,-80 795,-61 726,-61"/>
<text text-anchor="middle" x="760.5" y="-68" font-family="Helvetica,sans-Serif" font-size="10.00">init_glthread</text>
</a>
</g>
</g>
<!-- Node2 -->
<g id="node2" class="node">
<title>Node2</title>
<g id="a_node2"><a xlink:href="memory__manager_8h.html#aebb395354ed1154e7b06212096990f52" target="_top" xlink:title="Allocates a new virtual memory page for a given page family.">
<polygon fill="white" stroke="black" points="426,-41 426,-60 521,-60 521,-41 426,-41"/>
<text text-anchor="middle" x="473.5" y="-48" font-family="Helvetica,sans-Serif" font-size="10.00">allocate_vm_page</text>
</a>
</g>
</g>
<!-- Node1&#45;&gt;Node2 -->
<g id="edge1" class="edge">
<title>Node1&#45;&gt;Node2</title>
<path fill="none" stroke="midnightblue" d="M715.93,-67.44C663.29,-63.75 575.08,-57.56 521.11,-53.77"/>
<polygon fill="midnightblue" stroke="midnightblue" points="715.75,-70.94 725.97,-68.15 716.24,-63.96 715.75,-70.94"/>
</g>
<!-- Node6 -->
<g id="node6" class="node">
<title>Node6</title>
<g id="a_node6"><a xlink:href="glthread_8h.html#a2f6336d160a55d3adecb11dace34152a" target="_top" xlink:title="Insert a glthread_t structure into a sorted linked list based on priority.">
<polygon fill="white" stroke="black" points="575,-83 575,-102 690,-102 690,-83 575,-83"/>
<text text-anchor="middle" x="632.5" y="-90" font-family="Helvetica,sans-Serif" font-size="10.00">glthread_priority_insert</text>
</a>
</g>
</g>
<!-- Node1&#45;&gt;Node6 -->
<g id="edge5" class="edge">
<title>Node1&#45;&gt;Node6</title>
<path fill="none" stroke="midnightblue" d="M715.67,-78.15C706.83,-79.7 697.44,-81.34 688.29,-82.93"/>
<polygon fill="midnightblue" stroke="midnightblue" points="716.49,-81.56 725.73,-76.4 715.28,-74.67 716.49,-81.56"/>
</g>
<!-- Node10 -->
<g id="node10" class="node">
<title>Node10</title>
<g id="a_node10"><a xlink:href="memory__manager_8c.html#ab335253cb154c4adb2beb3cea638fb3c" target="_top" xlink:title=" ">
<polygon fill="white" stroke="black" points="250.5,-0.5 250.5,-30.5 358.5,-30.5 358.5,-0.5 250.5,-0.5"/>
<text text-anchor="start" x="258.5" y="-18.5" font-family="Helvetica,sans-Serif" font-size="10.00">mm_split_free_data</text>
<text text-anchor="middle" x="304.5" y="-7.5" font-family="Helvetica,sans-Serif" font-size="10.00">_block_for_allocation</text>
</a>
</g>
</g>
<!-- Node1&#45;&gt;Node10 -->
<g id="edge14" class="edge">
<title>Node1&#45;&gt;Node10</title>
<path fill="none" stroke="midnightblue" d="M715.86,-59.93C707.31,-58 698.39,-56.1 690,-54.5 623.32,-41.76 606.48,-38.94 539,-31.5 477.41,-24.71 406.34,-20.33 358.94,-17.9"/>
<polygon fill="midnightblue" stroke="midnightblue" points="715.14,-63.35 725.67,-62.18 716.71,-56.53 715.14,-63.35"/>
</g>
<!-- Node11 -->
<g id="node11" class="node">
<title>Node11</title>
<g id="a_node11"><a xlink:href="memory__manager__api_8h.html#a3ed96883ba6c4711318dbae3f5941bbf" target="_top" xlink:title="Instantiates a new page family for a memory structure.">
<polygon fill="white" stroke="black" points="579,-122.5 579,-152.5 686,-152.5 686,-122.5 579,-122.5"/>
<text text-anchor="start" x="587" y="-140.5" font-family="Helvetica,sans-Serif" font-size="10.00">mm_instantiate_new</text>
<text text-anchor="middle" x="632.5" y="-129.5" font-family="Helvetica,sans-Serif" font-size="10.00">_page_family</text>
</a>
</g>
</g>
<!-- Node1&#45;&gt;Node11 -->
<g id="edge12" class="edge">
<title>Node1&#45;&gt;Node11</title>
<path fill="none" stroke="midnightblue" d="M735.76,-85.32C722.48,-93.4 705.53,-103.37 690,-111.5 682.92,-115.2 675.21,-118.94 667.83,-122.38"/>
<polygon fill="midnightblue" stroke="midnightblue" points="737.6,-88.29 744.3,-80.08 733.94,-82.32 737.6,-88.29"/>
</g>
<!-- Node3 -->
<g id="node3" class="node">
<title>Node3</title>
<g id="a_node3"><a xlink:href="memory__manager_8c.html#a617a6a57117c09b033035922950095ee" target="_top" xlink:title=" ">
<polygon fill="white" stroke="black" points="237,-50 237,-69 372,-69 372,-50 237,-50"/>
<text text-anchor="middle" x="304.5" y="-57" font-family="Helvetica,sans-Serif" font-size="10.00">mm_family_new_page_add</text>
</a>
</g>
</g>
<!-- Node2&#45;&gt;Node3 -->
<g id="edge2" class="edge">
<title>Node2&#45;&gt;Node3</title>
<path fill="none" stroke="midnightblue" d="M415.94,-53.55C401.84,-54.31 386.59,-55.13 372.05,-55.91"/>
<polygon fill="midnightblue" stroke="midnightblue" points="416.18,-57.04 425.98,-53.01 415.81,-50.05 416.18,-57.04"/>
</g>
<!-- Node4 -->
<g id="node4" class="node">
<title>Node4</title>
<g id="a_node4"><a xlink:href="memory__manager_8c.html#a2eb03d198590833c575a105c856ecfbb" target="_top" xlink:title=" ">
<polygon fill="white" stroke="black" points="83,-40.5 83,-70.5 201,-70.5 201,-40.5 83,-40.5"/>
<text text-anchor="start" x="91" y="-58.5" font-family="Helvetica,sans-Serif" font-size="10.00">mm_allocate_free_data</text>
<text text-anchor="middle" x="142" y="-47.5" font-family="Helvetica,sans-Serif" font-size="10.00">_block</text>
</a>
</g>
</g>
<!-- Node3&#45;&gt;Node4 -->
<g id="edge3" class="edge">
<title>Node3&#45;&gt;Node4</title>
<path fill="none" stroke="midnightblue" d="M226.73,-57.59C218.08,-57.37 209.38,-57.15 201.03,-56.95"/>
<polygon fill="midnightblue" stroke="midnightblue" points="226.74,-61.09 236.83,-57.84 226.92,-54.09 226.74,-61.09"/>
</g>
<!-- Node5 -->
<g id="node5" class="node">
<title>Node5</title>
<g id="a_node5"><a xlink:href="memory__manager__api_8h.html#a22486940fff22d18c1c65122b4b5235f" target="_top" xlink:title="Allocates and initializes memory for an array of structures.">
<polygon fill="white" stroke="black" points="0,-90 0,-109 47,-109 47,-90 0,-90"/>
<text text-anchor="middle" x="23.5" y="-97" font-family="Helvetica,sans-Serif" font-size="10.00">xcalloc</text>
</a>
</g>
</g>
<!-- Node4&#45;&gt;Node5 -->
<g id="edge4" class="edge">
<title>Node4&#45;&gt;Node5</title>
<path fill="none" stroke="midnightblue" d="M91.73,-74.11C76.21,-79.97 59.83,-86.16 47.12,-90.96"/>
<polygon fill="midnightblue" stroke="midnightblue" points="93.11,-77.33 101.23,-70.52 90.64,-70.78 93.11,-77.33"/>
</g>
<!-- Node7 -->
<g id="node7" class="node">
<title>Node7</title>
<g id="a_node7"><a xlink:href="memory__manager_8c.html#aa72156192006fd76902b0616def7db4d" target="_top" xlink:title=" ">
<polygon fill="white" stroke="black" points="408,-79.5 408,-109.5 539,-109.5 539,-79.5 408,-79.5"/>
<text text-anchor="start" x="416" y="-97.5" font-family="Helvetica,sans-Serif" font-size="10.00">mm_add_free_block_meta</text>
<text text-anchor="middle" x="473.5" y="-86.5" font-family="Helvetica,sans-Serif" font-size="10.00">_data_to_free_block_list</text>
</a>
</g>
</g>
<!-- Node6&#45;&gt;Node7 -->
<g id="edge6" class="edge">
<title>Node6&#45;&gt;Node7</title>
<path fill="none" stroke="midnightblue" d="M564.62,-93.35C556.16,-93.46 547.52,-93.57 539.09,-93.68"/>
<polygon fill="midnightblue" stroke="midnightblue" points="564.86,-96.85 574.82,-93.22 564.78,-89.85 564.86,-96.85"/>
</g>
<!-- Node7&#45;&gt;Node3 -->
<g id="edge7" class="edge">
<title>Node7&#45;&gt;Node3</title>
<path fill="none" stroke="midnightblue" d="M398.04,-78.89C382.01,-75.54 365.54,-72.08 351.02,-69.04"/>
<polygon fill="midnightblue" stroke="midnightblue" points="397.43,-82.34 407.93,-80.97 398.86,-75.49 397.43,-82.34"/>
</g>
<!-- Node8 -->
<g id="node8" class="node">
<title>Node8</title>
<g id="a_node8"><a xlink:href="memory__manager_8c.html#aa1a17c04f785d5504f86d5c3cebb68d8" target="_top" xlink:title=" ">
<polygon fill="white" stroke="black" points="260,-89 260,-108 349,-108 349,-89 260,-89"/>
<text text-anchor="middle" x="304.5" y="-96" font-family="Helvetica,sans-Serif" font-size="10.00">mm_free_blocks</text>
</a>
</g>
</g>
<!-- Node7&#45;&gt;Node8 -->
<g id="edge8" class="edge">
<title>Node7&#45;&gt;Node8</title>
<path fill="none" stroke="midnightblue" d="M397.7,-96.29C381.13,-96.69 364.09,-97.1 349.25,-97.45"/>
<polygon fill="midnightblue" stroke="midnightblue" points="398.02,-99.79 407.93,-96.05 397.85,-92.79 398.02,-99.79"/>
</g>
<!-- Node7&#45;&gt;Node10 -->
<g id="edge10" class="edge">
<title>Node7&#45;&gt;Node10</title>
<path fill="none" stroke="midnightblue" d="M418.87,-75.21C415.13,-73.41 411.47,-71.5 408,-69.5 390.21,-59.22 389.84,-50.69 372,-40.5 365.57,-36.83 358.51,-33.51 351.45,-30.57"/>
<polygon fill="midnightblue" stroke="midnightblue" points="417.73,-78.53 428.28,-79.46 420.61,-72.16 417.73,-78.53"/>
</g>
<!-- Node9 -->
<g id="node9" class="node">
<title>Node9</title>
<g id="a_node9"><a xlink:href="memory__manager__api_8h.html#ae075bb556abb4342aedf495ddb8d390a" target="_top" xlink:title="Frees memory allocated by the memory manager.">
<polygon fill="white" stroke="black" points="123,-90 123,-109 161,-109 161,-90 123,-90"/>
<text text-anchor="middle" x="142" y="-97" font-family="Helvetica,sans-Serif" font-size="10.00">xfree</text>
</a>
</g>
</g>
<!-- Node8&#45;&gt;Node9 -->
<g id="edge9" class="edge">
<title>Node8&#45;&gt;Node9</title>
<path fill="none" stroke="midnightblue" d="M249.52,-98.84C218.95,-99.03 182.65,-99.25 161.29,-99.39"/>
<polygon fill="midnightblue" stroke="midnightblue" points="249.66,-102.34 259.64,-98.77 249.62,-95.34 249.66,-102.34"/>
</g>
<!-- Node10&#45;&gt;Node4 -->
<g id="edge11" class="edge">
<title>Node10&#45;&gt;Node4</title>
<path fill="none" stroke="midnightblue" d="M240.33,-31.24C227.42,-34.46 213.9,-37.83 201.18,-41"/>
<polygon fill="midnightblue" stroke="midnightblue" points="241.2,-34.63 250.06,-28.82 239.51,-27.84 241.2,-34.63"/>
</g>
<!-- Node11&#45;&gt;Node5 -->
<g id="edge13" class="edge">
<title>Node11&#45;&gt;Node5</title>
<path fill="none" stroke="midnightblue" d="M568.63,-140.97C466.06,-145.38 256.73,-149.1 83,-118.5 70.91,-116.37 57.87,-112.32 47.18,-108.5"/>
<polygon fill="midnightblue" stroke="midnightblue" points="568.98,-144.46 578.81,-140.52 568.66,-137.47 568.98,-144.46"/>
</g>
</g>
</svg>
