<?xml version="1.0" encoding="UTF-8" standalone="no"?>
<!DOCTYPE svg PUBLIC "-//W3C//DTD SVG 1.1//EN"
 "http://www.w3.org/Graphics/SVG/1.1/DTD/svg11.dtd">
<!-- Generated by graphviz version 2.43.0 (0)
 -->
<!-- Title: remove_glthread Pages: 1 -->
<svg width="478pt" height="78pt"
 viewBox="0.00 0.00 478.00 77.50" xmlns="http://www.w3.org/2000/svg" xmlns:xlink="http://www.w3.org/1999/xlink">
<g id="graph0" class="graph" transform="scale(1 1) rotate(0) translate(4 73.5)">
<title>remove_glthread</title>
<polygon fill="white" stroke="transparent" points="-4,4 -4,-73.5 474,-73.5 474,4 -4,4"/>
<!-- Node1 -->
<g id="node1" class="node">
<title>Node1</title>
<g id="a_node1"><a xlink:title="Removes the specified node from the threaded linked list.">
<polygon fill="#bfbfbf" stroke="black" points="381,-28 381,-47 470,-47 470,-28 381,-28"/>
<text text-anchor="middle" x="425.5" y="-35" font-family="Helvetica,sans-Serif" font-size="10.00">remove_glthread</text>
</a>
</g>
</g>
<!-- Node2 -->
<g id="node2" class="node">
<title>Node2</title>
<g id="a_node2"><a xlink:href="glthread_8h.html#a535e3f6499dfcfd78ae9f62ee77923f5" target="_top" xlink:title="Delete all glthread_t structures in a linked list.">
<polygon fill="white" stroke="black" points="240.5,-50 240.5,-69 341.5,-69 341.5,-50 240.5,-50"/>
<text text-anchor="middle" x="291" y="-57" font-family="Helvetica,sans-Serif" font-size="10.00">delete_glthread_list</text>
</a>
</g>
</g>
<!-- Node1&#45;&gt;Node2 -->
<g id="edge1" class="edge">
<title>Node1&#45;&gt;Node2</title>
<path fill="none" stroke="midnightblue" d="M370.86,-46.41C361.21,-48.01 351.2,-49.67 341.67,-51.25"/>
<polygon fill="midnightblue" stroke="midnightblue" points="371.46,-49.86 380.75,-44.76 370.31,-42.95 371.46,-49.86"/>
</g>
<!-- Node3 -->
<g id="node3" class="node">
<title>Node3</title>
<g id="a_node3"><a xlink:href="memory__manager_8c.html#ab335253cb154c4adb2beb3cea638fb3c" target="_top" xlink:title=" ">
<polygon fill="white" stroke="black" points="237,-0.5 237,-30.5 345,-30.5 345,-0.5 237,-0.5"/>
<text text-anchor="start" x="245" y="-18.5" font-family="Helvetica,sans-Serif" font-size="10.00">mm_split_free_data</text>
<text text-anchor="middle" x="291" y="-7.5" font-family="Helvetica,sans-Serif" font-size="10.00">_block_for_allocation</text>
</a>
</g>
</g>
<!-- Node1&#45;&gt;Node3 -->
<g id="edge2" class="edge">
<title>Node1&#45;&gt;Node3</title>
<path fill="none" stroke="midnightblue" d="M370.73,-28.57C362.38,-27.19 353.75,-25.75 345.4,-24.37"/>
<polygon fill="midnightblue" stroke="midnightblue" points="370.31,-32.05 380.75,-30.24 371.46,-25.14 370.31,-32.05"/>
</g>
<!-- Node4 -->
<g id="node4" class="node">
<title>Node4</title>
<g id="a_node4"><a xlink:href="memory__manager_8c.html#a2eb03d198590833c575a105c856ecfbb" target="_top" xlink:title=" ">
<polygon fill="white" stroke="black" points="83,-0.5 83,-30.5 201,-30.5 201,-0.5 83,-0.5"/>
<text text-anchor="start" x="91" y="-18.5" font-family="Helvetica,sans-Serif" font-size="10.00">mm_allocate_free_data</text>
<text text-anchor="middle" x="142" y="-7.5" font-family="Helvetica,sans-Serif" font-size="10.00">_block</text>
</a>
</g>
</g>
<!-- Node3&#45;&gt;Node4 -->
<g id="edge3" class="edge">
<title>Node3&#45;&gt;Node4</title>
<path fill="none" stroke="midnightblue" d="M226.72,-15.5C218.25,-15.5 209.59,-15.5 201.22,-15.5"/>
<polygon fill="midnightblue" stroke="midnightblue" points="226.93,-19 236.93,-15.5 226.93,-12 226.93,-19"/>
</g>
<!-- Node5 -->
<g id="node5" class="node">
<title>Node5</title>
<g id="a_node5"><a xlink:href="memory__manager__api_8h.html#a22486940fff22d18c1c65122b4b5235f" target="_top" xlink:title="Allocates and initializes memory for an array of structures.">
<polygon fill="white" stroke="black" points="0,-6 0,-25 47,-25 47,-6 0,-6"/>
<text text-anchor="middle" x="23.5" y="-13" font-family="Helvetica,sans-Serif" font-size="10.00">xcalloc</text>
</a>
</g>
</g>
<!-- Node4&#45;&gt;Node5 -->
<g id="edge4" class="edge">
<title>Node4&#45;&gt;Node5</title>
<path fill="none" stroke="midnightblue" d="M72.73,-15.5C63.58,-15.5 54.77,-15.5 47.24,-15.5"/>
<polygon fill="midnightblue" stroke="midnightblue" points="72.75,-19 82.75,-15.5 72.75,-12 72.75,-19"/>
</g>
</g>
</svg>
