<?xml version="1.0" encoding="UTF-8" standalone="no"?>
<!DOCTYPE svg PUBLIC "-//W3C//DTD SVG 1.1//EN"
 "http://www.w3.org/Graphics/SVG/1.1/DTD/svg11.dtd">
<!-- Generated by graphviz version 2.43.0 (0)
 -->
<!-- Title: mm_split_free_data_block_for_allocation Pages: 1 -->
<svg width="573pt" height="116pt"
 viewBox="0.00 0.00 573.00 116.00" xmlns="http://www.w3.org/2000/svg" xmlns:xlink="http://www.w3.org/1999/xlink">
<g id="graph0" class="graph" transform="scale(1 1) rotate(0) translate(4 112)">
<title>mm_split_free_data_block_for_allocation</title>
<polygon fill="white" stroke="transparent" points="-4,4 -4,-112 569,-112 569,4 -4,4"/>
<!-- Node1 -->
<g id="node1" class="node">
<title>Node1</title>
<g id="a_node1"><a xlink:title=" ">
<polygon fill="#bfbfbf" stroke="black" points="0,-39 0,-69 108,-69 108,-39 0,-39"/>
<text text-anchor="start" x="8" y="-57" font-family="Helvetica,sans-Serif" font-size="10.00">mm_split_free_data</text>
<text text-anchor="middle" x="54" y="-46" font-family="Helvetica,sans-Serif" font-size="10.00">_block_for_allocation</text>
</a>
</g>
</g>
<!-- Node2 -->
<g id="node2" class="node">
<title>Node2</title>
<g id="a_node2"><a xlink:href="glthread_8h.html#a9e4b763220b1c69da2d9e9f191506f89" target="_top" xlink:title="Initialize a glthread_t structure.">
<polygon fill="white" stroke="black" points="175,-88.5 175,-107.5 244,-107.5 244,-88.5 175,-88.5"/>
<text text-anchor="middle" x="209.5" y="-95.5" font-family="Helvetica,sans-Serif" font-size="10.00">init_glthread</text>
</a>
</g>
</g>
<!-- Node1&#45;&gt;Node2 -->
<g id="edge1" class="edge">
<title>Node1&#45;&gt;Node2</title>
<path fill="none" stroke="midnightblue" d="M107.4,-69.02C126.3,-74.44 147.41,-80.49 165.43,-85.65"/>
<polygon fill="midnightblue" stroke="midnightblue" points="164.51,-89.03 175.08,-88.42 166.44,-82.3 164.51,-89.03"/>
</g>
<!-- Node3 -->
<g id="node3" class="node">
<title>Node3</title>
<g id="a_node3"><a xlink:href="memory__manager_8c.html#aa72156192006fd76902b0616def7db4d" target="_top" xlink:title=" ">
<polygon fill="white" stroke="black" points="144,-39 144,-69 275,-69 275,-39 144,-39"/>
<text text-anchor="start" x="152" y="-57" font-family="Helvetica,sans-Serif" font-size="10.00">mm_add_free_block_meta</text>
<text text-anchor="middle" x="209.5" y="-46" font-family="Helvetica,sans-Serif" font-size="10.00">_data_to_free_block_list</text>
</a>
</g>
</g>
<!-- Node1&#45;&gt;Node3 -->
<g id="edge2" class="edge">
<title>Node1&#45;&gt;Node3</title>
<path fill="none" stroke="midnightblue" d="M108.26,-54C116.53,-54 125.21,-54 133.86,-54"/>
<polygon fill="midnightblue" stroke="midnightblue" points="133.97,-57.5 143.97,-54 133.97,-50.5 133.97,-57.5"/>
</g>
<!-- Node8 -->
<g id="node8" class="node">
<title>Node8</title>
<g id="a_node8"><a xlink:href="glthread_8h.html#a935ecd20646a46a7b84dbbeee4abd76d" target="_top" xlink:title="Removes the specified node from the threaded linked list.">
<polygon fill="white" stroke="black" points="165,-0.5 165,-19.5 254,-19.5 254,-0.5 165,-0.5"/>
<text text-anchor="middle" x="209.5" y="-7.5" font-family="Helvetica,sans-Serif" font-size="10.00">remove_glthread</text>
</a>
</g>
</g>
<!-- Node1&#45;&gt;Node8 -->
<g id="edge7" class="edge">
<title>Node1&#45;&gt;Node8</title>
<path fill="none" stroke="midnightblue" d="M107.4,-38.98C126.3,-33.56 147.41,-27.51 165.43,-22.35"/>
<polygon fill="midnightblue" stroke="midnightblue" points="166.44,-25.7 175.08,-19.58 164.51,-18.97 166.44,-25.7"/>
</g>
<!-- Node4 -->
<g id="node4" class="node">
<title>Node4</title>
<g id="a_node4"><a xlink:href="memory__manager_8c.html#a5987bb26622d19dcd8ecfd1416a7f3c6" target="_top" xlink:title=" ">
<polygon fill="white" stroke="black" points="311,-61 311,-91 433,-91 433,-61 311,-61"/>
<text text-anchor="start" x="319" y="-79" font-family="Helvetica,sans-Serif" font-size="10.00">free_blocks_comparison</text>
<text text-anchor="middle" x="372" y="-68" font-family="Helvetica,sans-Serif" font-size="10.00">_function</text>
</a>
</g>
</g>
<!-- Node3&#45;&gt;Node4 -->
<g id="edge3" class="edge">
<title>Node3&#45;&gt;Node4</title>
<path fill="none" stroke="midnightblue" d="M275.32,-62.88C283.76,-64.04 292.44,-65.23 300.96,-66.4"/>
<polygon fill="midnightblue" stroke="midnightblue" points="300.49,-69.87 310.87,-67.76 301.44,-62.93 300.49,-69.87"/>
</g>
<!-- Node5 -->
<g id="node5" class="node">
<title>Node5</title>
<g id="a_node5"><a xlink:href="glthread_8h.html#a2f6336d160a55d3adecb11dace34152a" target="_top" xlink:title="Insert a glthread_t structure into a sorted linked list based on priority.">
<polygon fill="white" stroke="black" points="314.5,-22.5 314.5,-41.5 429.5,-41.5 429.5,-22.5 314.5,-22.5"/>
<text text-anchor="middle" x="372" y="-29.5" font-family="Helvetica,sans-Serif" font-size="10.00">glthread_priority_insert</text>
</a>
</g>
</g>
<!-- Node3&#45;&gt;Node5 -->
<g id="edge4" class="edge">
<title>Node3&#45;&gt;Node5</title>
<path fill="none" stroke="midnightblue" d="M275.32,-45.12C284.94,-43.8 294.87,-42.44 304.52,-41.11"/>
<polygon fill="midnightblue" stroke="midnightblue" points="305.03,-44.58 314.46,-39.75 304.08,-37.64 305.03,-44.58"/>
</g>
<!-- Node6 -->
<g id="node6" class="node">
<title>Node6</title>
<g id="a_node6"><a xlink:href="glthread_8c.html#aa63bf952adace7bfd5bc0cdf970eb4db" target="_top" xlink:title="Adds a new node after the specified current node in the threaded linked list.">
<polygon fill="white" stroke="black" points="469,-41.5 469,-60.5 565,-60.5 565,-41.5 469,-41.5"/>
<text text-anchor="middle" x="517" y="-48.5" font-family="Helvetica,sans-Serif" font-size="10.00">glthread_add_next</text>
</a>
</g>
</g>
<!-- Node5&#45;&gt;Node6 -->
<g id="edge5" class="edge">
<title>Node5&#45;&gt;Node6</title>
<path fill="none" stroke="midnightblue" d="M429.52,-39.51C439.03,-40.77 448.92,-42.09 458.46,-43.36"/>
<polygon fill="midnightblue" stroke="midnightblue" points="458.28,-46.86 468.65,-44.71 459.2,-39.92 458.28,-46.86"/>
</g>
<!-- Node7 -->
<g id="node7" class="node">
<title>Node7</title>
<g id="a_node7"><a xlink:href="glthread_8c.html#a9e4b763220b1c69da2d9e9f191506f89" target="_top" xlink:title="Initialize a glthread_t structure.">
<polygon fill="white" stroke="black" points="482.5,-3.5 482.5,-22.5 551.5,-22.5 551.5,-3.5 482.5,-3.5"/>
<text text-anchor="middle" x="517" y="-10.5" font-family="Helvetica,sans-Serif" font-size="10.00">init_glthread</text>
</a>
</g>
</g>
<!-- Node5&#45;&gt;Node7 -->
<g id="edge6" class="edge">
<title>Node5&#45;&gt;Node7</title>
<path fill="none" stroke="midnightblue" d="M429.52,-24.49C443.7,-22.61 458.71,-20.61 472.17,-18.82"/>
<polygon fill="midnightblue" stroke="midnightblue" points="472.67,-22.29 482.12,-17.5 471.75,-15.35 472.67,-22.29"/>
</g>
</g>
</svg>
