<?xml version="1.0" encoding="UTF-8" standalone="no"?>
<!DOCTYPE svg PUBLIC "-//W3C//DTD SVG 1.1//EN"
 "http://www.w3.org/Graphics/SVG/1.1/DTD/svg11.dtd">
<!-- Generated by graphviz version 2.43.0 (0)
 -->
<!-- Title: allocate_vm_page Pages: 1 -->
<svg width="274pt" height="127pt"
 viewBox="0.00 0.00 274.00 126.50" xmlns="http://www.w3.org/2000/svg" xmlns:xlink="http://www.w3.org/1999/xlink">
<g id="graph0" class="graph" transform="scale(1 1) rotate(0) translate(4 122.5)">
<title>allocate_vm_page</title>
<polygon fill="white" stroke="transparent" points="-4,4 -4,-122.5 270,-122.5 270,4 -4,4"/>
<!-- Node1 -->
<g id="node1" class="node">
<title>Node1</title>
<g id="a_node1"><a xlink:title="Allocates a new virtual memory page for a given page family.">
<polygon fill="#bfbfbf" stroke="black" points="0,-55 0,-74 95,-74 95,-55 0,-55"/>
<text text-anchor="middle" x="47.5" y="-62" font-family="Helvetica,sans-Serif" font-size="10.00">allocate_vm_page</text>
</a>
</g>
</g>
<!-- Node2 -->
<g id="node2" class="node">
<title>Node2</title>
<g id="a_node2"><a xlink:href="glthread_8h.html#a9e4b763220b1c69da2d9e9f191506f89" target="_top" xlink:title="Initialize a glthread_t structure.">
<polygon fill="white" stroke="black" points="164,-99 164,-118 233,-118 233,-99 164,-99"/>
<text text-anchor="middle" x="198.5" y="-106" font-family="Helvetica,sans-Serif" font-size="10.00">init_glthread</text>
</a>
</g>
</g>
<!-- Node1&#45;&gt;Node2 -->
<g id="edge1" class="edge">
<title>Node1&#45;&gt;Node2</title>
<path fill="none" stroke="midnightblue" d="M79.81,-74.11C95.21,-78.81 114.06,-84.51 131,-89.5 138.53,-91.72 146.56,-94.04 154.33,-96.27"/>
<polygon fill="midnightblue" stroke="midnightblue" points="153.4,-99.65 163.98,-99.04 155.33,-92.92 153.4,-99.65"/>
</g>
<!-- Node3 -->
<g id="node3" class="node">
<title>Node3</title>
<g id="a_node3"><a xlink:href="memory__manager_8c.html#a52375cf39c67eb0c135c12eb38ddf66f" target="_top" xlink:title=" ">
<polygon fill="white" stroke="black" points="138.5,-49.5 138.5,-79.5 258.5,-79.5 258.5,-49.5 138.5,-49.5"/>
<text text-anchor="start" x="146.5" y="-67.5" font-family="Helvetica,sans-Serif" font-size="10.00">mm_get_new_vm_page</text>
<text text-anchor="middle" x="198.5" y="-56.5" font-family="Helvetica,sans-Serif" font-size="10.00">_from_kernel</text>
</a>
</g>
</g>
<!-- Node1&#45;&gt;Node3 -->
<g id="edge2" class="edge">
<title>Node1&#45;&gt;Node3</title>
<path fill="none" stroke="midnightblue" d="M95.24,-64.5C105.69,-64.5 117,-64.5 128.15,-64.5"/>
<polygon fill="midnightblue" stroke="midnightblue" points="128.32,-68 138.32,-64.5 128.32,-61 128.32,-68"/>
</g>
<!-- Node4 -->
<g id="node4" class="node">
<title>Node4</title>
<g id="a_node4"><a xlink:href="memory__manager_8c.html#ae68e468ad150ea915ed9a3b9d899e9df" target="_top" xlink:title=" ">
<polygon fill="white" stroke="black" points="131,-0.5 131,-30.5 266,-30.5 266,-0.5 131,-0.5"/>
<text text-anchor="start" x="139" y="-18.5" font-family="Helvetica,sans-Serif" font-size="10.00">mm_max_page_allocatable</text>
<text text-anchor="middle" x="198.5" y="-7.5" font-family="Helvetica,sans-Serif" font-size="10.00">_memory</text>
</a>
</g>
</g>
<!-- Node1&#45;&gt;Node4 -->
<g id="edge3" class="edge">
<title>Node1&#45;&gt;Node4</title>
<path fill="none" stroke="midnightblue" d="M77.58,-54.94C95.95,-48.89 120.28,-40.89 142.22,-33.68"/>
<polygon fill="midnightblue" stroke="midnightblue" points="143.37,-36.99 151.78,-30.54 141.18,-30.34 143.37,-36.99"/>
</g>
</g>
</svg>
