<?xml version="1.0" encoding="UTF-8" standalone="no"?>
<!DOCTYPE svg PUBLIC "-//W3C//DTD SVG 1.1//EN"
 "http://www.w3.org/Graphics/SVG/1.1/DTD/svg11.dtd">
<!-- Generated by graphviz version 2.43.0 (0)
 -->
<!-- Title: mm_add_free_block_meta_data_to_free_block_list Pages: 1 -->
<svg width="429pt" height="97pt"
 viewBox="0.00 0.00 429.00 96.50" xmlns="http://www.w3.org/2000/svg" xmlns:xlink="http://www.w3.org/1999/xlink">
<g id="graph0" class="graph" transform="scale(1 1) rotate(0) translate(4 92.5)">
<title>mm_add_free_block_meta_data_to_free_block_list</title>
<polygon fill="white" stroke="transparent" points="-4,4 -4,-92.5 425,-92.5 425,4 -4,4"/>
<!-- Node1 -->
<g id="node1" class="node">
<title>Node1</title>
<g id="a_node1"><a xlink:title=" ">
<polygon fill="#bfbfbf" stroke="black" points="0,-36 0,-66 131,-66 131,-36 0,-36"/>
<text text-anchor="start" x="8" y="-54" font-family="Helvetica,sans-Serif" font-size="10.00">mm_add_free_block_meta</text>
<text text-anchor="middle" x="65.5" y="-43" font-family="Helvetica,sans-Serif" font-size="10.00">_data_to_free_block_list</text>
</a>
</g>
</g>
<!-- Node2 -->
<g id="node2" class="node">
<title>Node2</title>
<g id="a_node2"><a xlink:href="memory__manager_8c.html#a5987bb26622d19dcd8ecfd1416a7f3c6" target="_top" xlink:title=" ">
<polygon fill="white" stroke="black" points="167,-58 167,-88 289,-88 289,-58 167,-58"/>
<text text-anchor="start" x="175" y="-76" font-family="Helvetica,sans-Serif" font-size="10.00">free_blocks_comparison</text>
<text text-anchor="middle" x="228" y="-65" font-family="Helvetica,sans-Serif" font-size="10.00">_function</text>
</a>
</g>
</g>
<!-- Node1&#45;&gt;Node2 -->
<g id="edge1" class="edge">
<title>Node1&#45;&gt;Node2</title>
<path fill="none" stroke="midnightblue" d="M131.32,-59.88C139.76,-61.04 148.44,-62.23 156.96,-63.4"/>
<polygon fill="midnightblue" stroke="midnightblue" points="156.49,-66.87 166.87,-64.76 157.44,-59.93 156.49,-66.87"/>
</g>
<!-- Node3 -->
<g id="node3" class="node">
<title>Node3</title>
<g id="a_node3"><a xlink:href="glthread_8h.html#a2f6336d160a55d3adecb11dace34152a" target="_top" xlink:title="Insert a glthread_t structure into a sorted linked list based on priority.">
<polygon fill="white" stroke="black" points="170.5,-19.5 170.5,-38.5 285.5,-38.5 285.5,-19.5 170.5,-19.5"/>
<text text-anchor="middle" x="228" y="-26.5" font-family="Helvetica,sans-Serif" font-size="10.00">glthread_priority_insert</text>
</a>
</g>
</g>
<!-- Node1&#45;&gt;Node3 -->
<g id="edge2" class="edge">
<title>Node1&#45;&gt;Node3</title>
<path fill="none" stroke="midnightblue" d="M131.32,-42.12C140.94,-40.8 150.87,-39.44 160.52,-38.11"/>
<polygon fill="midnightblue" stroke="midnightblue" points="161.03,-41.58 170.46,-36.75 160.08,-34.64 161.03,-41.58"/>
</g>
<!-- Node4 -->
<g id="node4" class="node">
<title>Node4</title>
<g id="a_node4"><a xlink:href="glthread_8c.html#aa63bf952adace7bfd5bc0cdf970eb4db" target="_top" xlink:title="Adds a new node after the specified current node in the threaded linked list.">
<polygon fill="white" stroke="black" points="325,-38.5 325,-57.5 421,-57.5 421,-38.5 325,-38.5"/>
<text text-anchor="middle" x="373" y="-45.5" font-family="Helvetica,sans-Serif" font-size="10.00">glthread_add_next</text>
</a>
</g>
</g>
<!-- Node3&#45;&gt;Node4 -->
<g id="edge3" class="edge">
<title>Node3&#45;&gt;Node4</title>
<path fill="none" stroke="midnightblue" d="M285.52,-36.51C295.03,-37.77 304.92,-39.09 314.46,-40.36"/>
<polygon fill="midnightblue" stroke="midnightblue" points="314.28,-43.86 324.65,-41.71 315.2,-36.92 314.28,-43.86"/>
</g>
<!-- Node5 -->
<g id="node5" class="node">
<title>Node5</title>
<g id="a_node5"><a xlink:href="glthread_8c.html#a9e4b763220b1c69da2d9e9f191506f89" target="_top" xlink:title="Initialize a glthread_t structure.">
<polygon fill="white" stroke="black" points="338.5,-0.5 338.5,-19.5 407.5,-19.5 407.5,-0.5 338.5,-0.5"/>
<text text-anchor="middle" x="373" y="-7.5" font-family="Helvetica,sans-Serif" font-size="10.00">init_glthread</text>
</a>
</g>
</g>
<!-- Node3&#45;&gt;Node5 -->
<g id="edge4" class="edge">
<title>Node3&#45;&gt;Node5</title>
<path fill="none" stroke="midnightblue" d="M285.52,-21.49C299.7,-19.61 314.71,-17.61 328.17,-15.82"/>
<polygon fill="midnightblue" stroke="midnightblue" points="328.67,-19.29 338.12,-14.5 327.75,-12.35 328.67,-19.29"/>
</g>
</g>
</svg>
