<?xml version="1.0" encoding="UTF-8" standalone="no"?>
<!DOCTYPE svg PUBLIC "-//W3C//DTD SVG 1.1//EN"
 "http://www.w3.org/Graphics/SVG/1.1/DTD/svg11.dtd">
<!-- Generated by graphviz version 2.43.0 (0)
 -->
<!-- Title: mm_return_vm_page_to_kernel Pages: 1 -->
<svg width="517pt" height="39pt"
 viewBox="0.00 0.00 517.00 39.00" xmlns="http://www.w3.org/2000/svg" xmlns:xlink="http://www.w3.org/1999/xlink">
<g id="graph0" class="graph" transform="scale(1 1) rotate(0) translate(4 35)">
<title>mm_return_vm_page_to_kernel</title>
<polygon fill="white" stroke="transparent" points="-4,4 -4,-35 513,-35 513,4 -4,4"/>
<!-- Node1 -->
<g id="node1" class="node">
<title>Node1</title>
<g id="a_node1"><a xlink:title=" ">
<polygon fill="#bfbfbf" stroke="black" points="387,-0.5 387,-30.5 509,-30.5 509,-0.5 387,-0.5"/>
<text text-anchor="start" x="395" y="-18.5" font-family="Helvetica,sans-Serif" font-size="10.00">mm_return_vm_page_to</text>
<text text-anchor="middle" x="448" y="-7.5" font-family="Helvetica,sans-Serif" font-size="10.00">_kernel</text>
</a>
</g>
</g>
<!-- Node2 -->
<g id="node2" class="node">
<title>Node2</title>
<g id="a_node2"><a xlink:href="memory__manager_8h.html#a3c0f19fa657602a76893a7f53e9f5222" target="_top" xlink:title="Deletes and frees a virtual memory page.">
<polygon fill="white" stroke="black" points="199,-6 199,-25 351,-25 351,-6 199,-6"/>
<text text-anchor="middle" x="275" y="-13" font-family="Helvetica,sans-Serif" font-size="10.00">mm_vm_page_delete_and_free</text>
</a>
</g>
</g>
<!-- Node1&#45;&gt;Node2 -->
<g id="edge1" class="edge">
<title>Node1&#45;&gt;Node2</title>
<path fill="none" stroke="midnightblue" d="M376.56,-15.5C368.14,-15.5 359.51,-15.5 351.03,-15.5"/>
<polygon fill="midnightblue" stroke="midnightblue" points="376.71,-19 386.71,-15.5 376.71,-12 376.71,-19"/>
</g>
<!-- Node3 -->
<g id="node3" class="node">
<title>Node3</title>
<g id="a_node3"><a xlink:href="memory__manager_8c.html#aa1a17c04f785d5504f86d5c3cebb68d8" target="_top" xlink:title=" ">
<polygon fill="white" stroke="black" points="74,-6 74,-25 163,-25 163,-6 74,-6"/>
<text text-anchor="middle" x="118.5" y="-13" font-family="Helvetica,sans-Serif" font-size="10.00">mm_free_blocks</text>
</a>
</g>
</g>
<!-- Node2&#45;&gt;Node3 -->
<g id="edge2" class="edge">
<title>Node2&#45;&gt;Node3</title>
<path fill="none" stroke="midnightblue" d="M188.36,-15.5C179.71,-15.5 171.19,-15.5 163.26,-15.5"/>
<polygon fill="midnightblue" stroke="midnightblue" points="188.56,-19 198.56,-15.5 188.56,-12 188.56,-19"/>
</g>
<!-- Node4 -->
<g id="node4" class="node">
<title>Node4</title>
<g id="a_node4"><a xlink:href="memory__manager__api_8h.html#ae075bb556abb4342aedf495ddb8d390a" target="_top" xlink:title="Frees memory allocated by the memory manager.">
<polygon fill="white" stroke="black" points="0,-6 0,-25 38,-25 38,-6 0,-6"/>
<text text-anchor="middle" x="19" y="-13" font-family="Helvetica,sans-Serif" font-size="10.00">xfree</text>
</a>
</g>
</g>
<!-- Node3&#45;&gt;Node4 -->
<g id="edge3" class="edge">
<title>Node3&#45;&gt;Node4</title>
<path fill="none" stroke="midnightblue" d="M63.83,-15.5C54.59,-15.5 45.59,-15.5 38.17,-15.5"/>
<polygon fill="midnightblue" stroke="midnightblue" points="63.88,-19 73.88,-15.5 63.88,-12 63.88,-19"/>
</g>
</g>
</svg>
