<?xml version="1.0" encoding="UTF-8" standalone="no"?>
<!DOCTYPE svg PUBLIC "-//W3C//DTD SVG 1.1//EN"
 "http://www.w3.org/Graphics/SVG/1.1/DTD/svg11.dtd">
<!-- Generated by graphviz version 2.43.0 (0)
 -->
<!-- Title: mm_get_hard_internal_memory_frag_size Pages: 1 -->
<svg width="320pt" height="39pt"
 viewBox="0.00 0.00 320.00 39.00" xmlns="http://www.w3.org/2000/svg" xmlns:xlink="http://www.w3.org/1999/xlink">
<g id="graph0" class="graph" transform="scale(1 1) rotate(0) translate(4 35)">
<title>mm_get_hard_internal_memory_frag_size</title>
<polygon fill="white" stroke="transparent" points="-4,4 -4,-35 316,-35 316,4 -4,4"/>
<!-- Node1 -->
<g id="node1" class="node">
<title>Node1</title>
<g id="a_node1"><a xlink:title=" ">
<polygon fill="#bfbfbf" stroke="black" points="199,-0.5 199,-30.5 312,-30.5 312,-0.5 199,-0.5"/>
<text text-anchor="start" x="207" y="-18.5" font-family="Helvetica,sans-Serif" font-size="10.00">mm_get_hard_internal</text>
<text text-anchor="middle" x="255.5" y="-7.5" font-family="Helvetica,sans-Serif" font-size="10.00">_memory_frag_size</text>
</a>
</g>
</g>
<!-- Node2 -->
<g id="node2" class="node">
<title>Node2</title>
<g id="a_node2"><a xlink:href="memory__manager_8c.html#aa1a17c04f785d5504f86d5c3cebb68d8" target="_top" xlink:title=" ">
<polygon fill="white" stroke="black" points="74,-6 74,-25 163,-25 163,-6 74,-6"/>
<text text-anchor="middle" x="118.5" y="-13" font-family="Helvetica,sans-Serif" font-size="10.00">mm_free_blocks</text>
</a>
</g>
</g>
<!-- Node1&#45;&gt;Node2 -->
<g id="edge1" class="edge">
<title>Node1&#45;&gt;Node2</title>
<path fill="none" stroke="midnightblue" d="M188.67,-15.5C180,-15.5 171.28,-15.5 163.1,-15.5"/>
<polygon fill="midnightblue" stroke="midnightblue" points="188.81,-19 198.81,-15.5 188.81,-12 188.81,-19"/>
</g>
<!-- Node3 -->
<g id="node3" class="node">
<title>Node3</title>
<g id="a_node3"><a xlink:href="memory__manager__api_8h.html#ae075bb556abb4342aedf495ddb8d390a" target="_top" xlink:title="Frees memory allocated by the memory manager.">
<polygon fill="white" stroke="black" points="0,-6 0,-25 38,-25 38,-6 0,-6"/>
<text text-anchor="middle" x="19" y="-13" font-family="Helvetica,sans-Serif" font-size="10.00">xfree</text>
</a>
</g>
</g>
<!-- Node2&#45;&gt;Node3 -->
<g id="edge2" class="edge">
<title>Node2&#45;&gt;Node3</title>
<path fill="none" stroke="midnightblue" d="M63.83,-15.5C54.59,-15.5 45.59,-15.5 38.17,-15.5"/>
<polygon fill="midnightblue" stroke="midnightblue" points="63.88,-19 73.88,-15.5 63.88,-12 63.88,-19"/>
</g>
</g>
</svg>
