<?xml version="1.0" encoding="UTF-8" standalone="no"?>
<!DOCTYPE svg PUBLIC "-//W3C//DTD SVG 1.1//EN"
 "http://www.w3.org/Graphics/SVG/1.1/DTD/svg11.dtd">
<!-- Generated by graphviz version 2.43.0 (0)
 -->
<!-- Title: mm_family_new_page_add Pages: 1 -->
<svg width="613pt" height="233pt"
 viewBox="0.00 0.00 613.00 233.00" xmlns="http://www.w3.org/2000/svg" xmlns:xlink="http://www.w3.org/1999/xlink">
<g id="graph0" class="graph" transform="scale(1 1) rotate(0) translate(4 229)">
<title>mm_family_new_page_add</title>
<polygon fill="white" stroke="transparent" points="-4,4 -4,-229 609,-229 609,4 -4,4"/>
<!-- Node1 -->
<g id="node1" class="node">
<title>Node1</title>
<g id="a_node1"><a xlink:title=" ">
<polygon fill="#bfbfbf" stroke="black" points="0,-87.5 0,-106.5 135,-106.5 135,-87.5 0,-87.5"/>
<text text-anchor="middle" x="67.5" y="-94.5" font-family="Helvetica,sans-Serif" font-size="10.00">mm_family_new_page_add</text>
</a>
</g>
</g>
<!-- Node2 -->
<g id="node2" class="node">
<title>Node2</title>
<g id="a_node2"><a xlink:href="memory__manager_8c.html#aebb395354ed1154e7b06212096990f52" target="_top" xlink:title="Allocates a new virtual memory page for a given page family.">
<polygon fill="white" stroke="black" points="189,-136.5 189,-155.5 284,-155.5 284,-136.5 189,-136.5"/>
<text text-anchor="middle" x="236.5" y="-143.5" font-family="Helvetica,sans-Serif" font-size="10.00">allocate_vm_page</text>
</a>
</g>
</g>
<!-- Node1&#45;&gt;Node2 -->
<g id="edge1" class="edge">
<title>Node1&#45;&gt;Node2</title>
<path fill="none" stroke="midnightblue" d="M101.1,-106.56C127.42,-114.29 164.65,-125.21 193.26,-133.61"/>
<polygon fill="midnightblue" stroke="midnightblue" points="192.41,-137 202.99,-136.46 194.38,-130.29 192.41,-137"/>
</g>
<!-- Node6 -->
<g id="node6" class="node">
<title>Node6</title>
<g id="a_node6"><a xlink:href="memory__manager_8c.html#aa72156192006fd76902b0616def7db4d" target="_top" xlink:title=" ">
<polygon fill="white" stroke="black" points="171,-58 171,-88 302,-88 302,-58 171,-58"/>
<text text-anchor="start" x="179" y="-76" font-family="Helvetica,sans-Serif" font-size="10.00">mm_add_free_block_meta</text>
<text text-anchor="middle" x="236.5" y="-65" font-family="Helvetica,sans-Serif" font-size="10.00">_data_to_free_block_list</text>
</a>
</g>
</g>
<!-- Node1&#45;&gt;Node6 -->
<g id="edge5" class="edge">
<title>Node1&#45;&gt;Node6</title>
<path fill="none" stroke="midnightblue" d="M134.98,-87.45C143.48,-86.22 152.23,-84.97 160.84,-83.73"/>
<polygon fill="midnightblue" stroke="midnightblue" points="161.48,-87.17 170.88,-82.29 160.48,-80.24 161.48,-87.17"/>
</g>
<!-- Node3 -->
<g id="node3" class="node">
<title>Node3</title>
<g id="a_node3"><a xlink:href="glthread_8h.html#a9e4b763220b1c69da2d9e9f191506f89" target="_top" xlink:title="Initialize a glthread_t structure.">
<polygon fill="white" stroke="black" points="371,-205.5 371,-224.5 440,-224.5 440,-205.5 371,-205.5"/>
<text text-anchor="middle" x="405.5" y="-212.5" font-family="Helvetica,sans-Serif" font-size="10.00">init_glthread</text>
</a>
</g>
</g>
<!-- Node2&#45;&gt;Node3 -->
<g id="edge2" class="edge">
<title>Node2&#45;&gt;Node3</title>
<path fill="none" stroke="midnightblue" d="M254.49,-155.66C274.13,-166.54 307.66,-184.23 338,-196 345.4,-198.87 353.41,-201.52 361.22,-203.88"/>
<polygon fill="midnightblue" stroke="midnightblue" points="360.38,-207.28 370.96,-206.71 362.33,-200.56 360.38,-207.28"/>
</g>
<!-- Node4 -->
<g id="node4" class="node">
<title>Node4</title>
<g id="a_node4"><a xlink:href="memory__manager_8c.html#a52375cf39c67eb0c135c12eb38ddf66f" target="_top" xlink:title=" ">
<polygon fill="white" stroke="black" points="345.5,-156 345.5,-186 465.5,-186 465.5,-156 345.5,-156"/>
<text text-anchor="start" x="353.5" y="-174" font-family="Helvetica,sans-Serif" font-size="10.00">mm_get_new_vm_page</text>
<text text-anchor="middle" x="405.5" y="-163" font-family="Helvetica,sans-Serif" font-size="10.00">_from_kernel</text>
</a>
</g>
</g>
<!-- Node2&#45;&gt;Node4 -->
<g id="edge3" class="edge">
<title>Node2&#45;&gt;Node4</title>
<path fill="none" stroke="midnightblue" d="M284.02,-152.96C299.91,-155.34 318.05,-158.06 335.33,-160.65"/>
<polygon fill="midnightblue" stroke="midnightblue" points="334.98,-164.13 345.39,-162.15 336.02,-157.21 334.98,-164.13"/>
</g>
<!-- Node5 -->
<g id="node5" class="node">
<title>Node5</title>
<g id="a_node5"><a xlink:href="memory__manager_8c.html#ae68e468ad150ea915ed9a3b9d899e9df" target="_top" xlink:title=" ">
<polygon fill="white" stroke="black" points="338,-107 338,-137 473,-137 473,-107 338,-107"/>
<text text-anchor="start" x="346" y="-125" font-family="Helvetica,sans-Serif" font-size="10.00">mm_max_page_allocatable</text>
<text text-anchor="middle" x="405.5" y="-114" font-family="Helvetica,sans-Serif" font-size="10.00">_memory</text>
</a>
</g>
</g>
<!-- Node2&#45;&gt;Node5 -->
<g id="edge4" class="edge">
<title>Node2&#45;&gt;Node5</title>
<path fill="none" stroke="midnightblue" d="M284.02,-139.31C297.58,-137.37 312.78,-135.18 327.69,-133.04"/>
<polygon fill="midnightblue" stroke="midnightblue" points="328.55,-136.45 337.95,-131.56 327.55,-129.52 328.55,-136.45"/>
</g>
<!-- Node7 -->
<g id="node7" class="node">
<title>Node7</title>
<g id="a_node7"><a xlink:href="memory__manager_8c.html#a5987bb26622d19dcd8ecfd1416a7f3c6" target="_top" xlink:title=" ">
<polygon fill="white" stroke="black" points="344.5,-58 344.5,-88 466.5,-88 466.5,-58 344.5,-58"/>
<text text-anchor="start" x="352.5" y="-76" font-family="Helvetica,sans-Serif" font-size="10.00">free_blocks_comparison</text>
<text text-anchor="middle" x="405.5" y="-65" font-family="Helvetica,sans-Serif" font-size="10.00">_function</text>
</a>
</g>
</g>
<!-- Node6&#45;&gt;Node7 -->
<g id="edge6" class="edge">
<title>Node6&#45;&gt;Node7</title>
<path fill="none" stroke="midnightblue" d="M302.07,-73C312.64,-73 323.64,-73 334.34,-73"/>
<polygon fill="midnightblue" stroke="midnightblue" points="334.48,-76.5 344.48,-73 334.48,-69.5 334.48,-76.5"/>
</g>
<!-- Node8 -->
<g id="node8" class="node">
<title>Node8</title>
<g id="a_node8"><a xlink:href="glthread_8h.html#a2f6336d160a55d3adecb11dace34152a" target="_top" xlink:title="Insert a glthread_t structure into a sorted linked list based on priority.">
<polygon fill="white" stroke="black" points="348,-19.5 348,-38.5 463,-38.5 463,-19.5 348,-19.5"/>
<text text-anchor="middle" x="405.5" y="-26.5" font-family="Helvetica,sans-Serif" font-size="10.00">glthread_priority_insert</text>
</a>
</g>
</g>
<!-- Node6&#45;&gt;Node8 -->
<g id="edge7" class="edge">
<title>Node6&#45;&gt;Node8</title>
<path fill="none" stroke="midnightblue" d="M294.5,-57.98C315.36,-52.49 338.67,-46.34 358.45,-41.13"/>
<polygon fill="midnightblue" stroke="midnightblue" points="359.37,-44.51 368.15,-38.58 357.58,-37.74 359.37,-44.51"/>
</g>
<!-- Node9 -->
<g id="node9" class="node">
<title>Node9</title>
<g id="a_node9"><a xlink:href="glthread_8c.html#aa63bf952adace7bfd5bc0cdf970eb4db" target="_top" xlink:title="Adds a new node after the specified current node in the threaded linked list.">
<polygon fill="white" stroke="black" points="509,-38.5 509,-57.5 605,-57.5 605,-38.5 509,-38.5"/>
<text text-anchor="middle" x="557" y="-45.5" font-family="Helvetica,sans-Serif" font-size="10.00">glthread_add_next</text>
</a>
</g>
</g>
<!-- Node8&#45;&gt;Node9 -->
<g id="edge8" class="edge">
<title>Node8&#45;&gt;Node9</title>
<path fill="none" stroke="midnightblue" d="M463.02,-36.18C474.66,-37.66 486.93,-39.22 498.6,-40.7"/>
<polygon fill="midnightblue" stroke="midnightblue" points="498.31,-44.2 508.67,-41.98 499.19,-37.25 498.31,-44.2"/>
</g>
<!-- Node10 -->
<g id="node10" class="node">
<title>Node10</title>
<g id="a_node10"><a xlink:href="glthread_8c.html#a9e4b763220b1c69da2d9e9f191506f89" target="_top" xlink:title="Initialize a glthread_t structure.">
<polygon fill="white" stroke="black" points="522.5,-0.5 522.5,-19.5 591.5,-19.5 591.5,-0.5 522.5,-0.5"/>
<text text-anchor="middle" x="557" y="-7.5" font-family="Helvetica,sans-Serif" font-size="10.00">init_glthread</text>
</a>
</g>
</g>
<!-- Node8&#45;&gt;Node10 -->
<g id="edge9" class="edge">
<title>Node8&#45;&gt;Node10</title>
<path fill="none" stroke="midnightblue" d="M463.02,-21.82C479.28,-19.75 496.76,-17.53 512.13,-15.58"/>
<polygon fill="midnightblue" stroke="midnightblue" points="512.92,-19 522.39,-14.27 512.03,-12.06 512.92,-19"/>
</g>
</g>
</svg>
