<?xml version="1.0" encoding="UTF-8" standalone="no"?>
<!DOCTYPE svg PUBLIC "-//W3C//DTD SVG 1.1//EN"
 "http://www.w3.org/Graphics/SVG/1.1/DTD/svg11.dtd">
<!-- Generated by graphviz version 2.43.0 (0)
 -->
<!-- Title: mm_allocate_free_data_block Pages: 1 -->
<svg width="767pt" height="234pt"
 viewBox="0.00 0.00 767.00 233.50" xmlns="http://www.w3.org/2000/svg" xmlns:xlink="http://www.w3.org/1999/xlink">
<g id="graph0" class="graph" transform="scale(1 1) rotate(0) translate(4 229.5)">
<title>mm_allocate_free_data_block</title>
<polygon fill="white" stroke="transparent" points="-4,4 -4,-229.5 763,-229.5 763,4 -4,4"/>
<!-- Node1 -->
<g id="node1" class="node">
<title>Node1</title>
<g id="a_node1"><a xlink:title=" ">
<polygon fill="#bfbfbf" stroke="black" points="0,-58 0,-88 118,-88 118,-58 0,-58"/>
<text text-anchor="start" x="8" y="-76" font-family="Helvetica,sans-Serif" font-size="10.00">mm_allocate_free_data</text>
<text text-anchor="middle" x="59" y="-65" font-family="Helvetica,sans-Serif" font-size="10.00">_block</text>
</a>
</g>
</g>
<!-- Node2 -->
<g id="node2" class="node">
<title>Node2</title>
<g id="a_node2"><a xlink:href="memory__manager_8c.html#a617a6a57117c09b033035922950095ee" target="_top" xlink:title=" ">
<polygon fill="white" stroke="black" points="154,-107.5 154,-126.5 289,-126.5 289,-107.5 154,-107.5"/>
<text text-anchor="middle" x="221.5" y="-114.5" font-family="Helvetica,sans-Serif" font-size="10.00">mm_family_new_page_add</text>
</a>
</g>
</g>
<!-- Node1&#45;&gt;Node2 -->
<g id="edge1" class="edge">
<title>Node1&#45;&gt;Node2</title>
<path fill="none" stroke="midnightblue" d="M114.79,-88.02C134.65,-93.46 156.83,-99.54 175.72,-104.72"/>
<polygon fill="midnightblue" stroke="midnightblue" points="174.99,-108.15 185.56,-107.42 176.84,-101.4 174.99,-108.15"/>
</g>
<!-- Node12 -->
<g id="node12" class="node">
<title>Node12</title>
<g id="a_node12"><a xlink:href="memory__manager_8c.html#a90d723f5422a621847ecd7437146fc9b" target="_top" xlink:title=" ">
<polygon fill="white" stroke="black" points="166.5,-9 166.5,-39 276.5,-39 276.5,-9 166.5,-9"/>
<text text-anchor="start" x="174.5" y="-27" font-family="Helvetica,sans-Serif" font-size="10.00">mm_get_biggest_free</text>
<text text-anchor="middle" x="221.5" y="-16" font-family="Helvetica,sans-Serif" font-size="10.00">_block_page_family</text>
</a>
</g>
</g>
<!-- Node1&#45;&gt;Node12 -->
<g id="edge11" class="edge">
<title>Node1&#45;&gt;Node12</title>
<path fill="none" stroke="midnightblue" d="M109.46,-57.9C125.86,-52.89 144.29,-47.27 161.34,-42.06"/>
<polygon fill="midnightblue" stroke="midnightblue" points="162.66,-45.32 171.2,-39.05 160.61,-38.62 162.66,-45.32"/>
</g>
<!-- Node13 -->
<g id="node13" class="node">
<title>Node13</title>
<g id="a_node13"><a xlink:href="memory__manager_8c.html#ab335253cb154c4adb2beb3cea638fb3c" target="_top" xlink:title=" ">
<polygon fill="white" stroke="black" points="167.5,-58 167.5,-88 275.5,-88 275.5,-58 167.5,-58"/>
<text text-anchor="start" x="175.5" y="-76" font-family="Helvetica,sans-Serif" font-size="10.00">mm_split_free_data</text>
<text text-anchor="middle" x="221.5" y="-65" font-family="Helvetica,sans-Serif" font-size="10.00">_block_for_allocation</text>
</a>
</g>
</g>
<!-- Node1&#45;&gt;Node13 -->
<g id="edge12" class="edge">
<title>Node1&#45;&gt;Node13</title>
<path fill="none" stroke="midnightblue" d="M118.4,-73C131.06,-73 144.5,-73 157.34,-73"/>
<polygon fill="midnightblue" stroke="midnightblue" points="157.47,-76.5 167.47,-73 157.47,-69.5 157.47,-76.5"/>
</g>
<!-- Node3 -->
<g id="node3" class="node">
<title>Node3</title>
<g id="a_node3"><a xlink:href="memory__manager_8c.html#aebb395354ed1154e7b06212096990f52" target="_top" xlink:title="Allocates a new virtual memory page for a given page family.">
<polygon fill="white" stroke="black" points="343,-148.5 343,-167.5 438,-167.5 438,-148.5 343,-148.5"/>
<text text-anchor="middle" x="390.5" y="-155.5" font-family="Helvetica,sans-Serif" font-size="10.00">allocate_vm_page</text>
</a>
</g>
</g>
<!-- Node2&#45;&gt;Node3 -->
<g id="edge2" class="edge">
<title>Node2&#45;&gt;Node3</title>
<path fill="none" stroke="midnightblue" d="M261.23,-126.51C284.97,-132.34 315.55,-139.84 340.9,-146.07"/>
<polygon fill="midnightblue" stroke="midnightblue" points="340.14,-149.49 350.69,-148.47 341.81,-142.69 340.14,-149.49"/>
</g>
<!-- Node7 -->
<g id="node7" class="node">
<title>Node7</title>
<g id="a_node7"><a xlink:href="memory__manager_8c.html#aa72156192006fd76902b0616def7db4d" target="_top" xlink:title=" ">
<polygon fill="white" stroke="black" points="325,-58 325,-88 456,-88 456,-58 325,-58"/>
<text text-anchor="start" x="333" y="-76" font-family="Helvetica,sans-Serif" font-size="10.00">mm_add_free_block_meta</text>
<text text-anchor="middle" x="390.5" y="-65" font-family="Helvetica,sans-Serif" font-size="10.00">_data_to_free_block_list</text>
</a>
</g>
</g>
<!-- Node2&#45;&gt;Node7 -->
<g id="edge6" class="edge">
<title>Node2&#45;&gt;Node7</title>
<path fill="none" stroke="midnightblue" d="M258.74,-107.45C277.37,-102.54 300.69,-96.4 322.45,-90.67"/>
<polygon fill="midnightblue" stroke="midnightblue" points="323.54,-94 332.32,-88.07 321.76,-87.23 323.54,-94"/>
</g>
<!-- Node4 -->
<g id="node4" class="node">
<title>Node4</title>
<g id="a_node4"><a xlink:href="glthread_8h.html#a9e4b763220b1c69da2d9e9f191506f89" target="_top" xlink:title="Initialize a glthread_t structure.">
<polygon fill="white" stroke="black" points="525,-107.5 525,-126.5 594,-126.5 594,-107.5 525,-107.5"/>
<text text-anchor="middle" x="559.5" y="-114.5" font-family="Helvetica,sans-Serif" font-size="10.00">init_glthread</text>
</a>
</g>
</g>
<!-- Node3&#45;&gt;Node4 -->
<g id="edge3" class="edge">
<title>Node3&#45;&gt;Node4</title>
<path fill="none" stroke="midnightblue" d="M430.23,-148.49C455.5,-142.29 488.52,-134.18 514.74,-127.74"/>
<polygon fill="midnightblue" stroke="midnightblue" points="515.9,-131.06 524.78,-125.28 514.23,-124.26 515.9,-131.06"/>
</g>
<!-- Node5 -->
<g id="node5" class="node">
<title>Node5</title>
<g id="a_node5"><a xlink:href="memory__manager_8c.html#a52375cf39c67eb0c135c12eb38ddf66f" target="_top" xlink:title=" ">
<polygon fill="white" stroke="black" points="499.5,-146 499.5,-176 619.5,-176 619.5,-146 499.5,-146"/>
<text text-anchor="start" x="507.5" y="-164" font-family="Helvetica,sans-Serif" font-size="10.00">mm_get_new_vm_page</text>
<text text-anchor="middle" x="559.5" y="-153" font-family="Helvetica,sans-Serif" font-size="10.00">_from_kernel</text>
</a>
</g>
</g>
<!-- Node3&#45;&gt;Node5 -->
<g id="edge4" class="edge">
<title>Node3&#45;&gt;Node5</title>
<path fill="none" stroke="midnightblue" d="M438.02,-158.84C453.91,-159.12 472.05,-159.45 489.33,-159.76"/>
<polygon fill="midnightblue" stroke="midnightblue" points="489.33,-163.26 499.39,-159.94 489.46,-156.26 489.33,-163.26"/>
</g>
<!-- Node6 -->
<g id="node6" class="node">
<title>Node6</title>
<g id="a_node6"><a xlink:href="memory__manager_8c.html#ae68e468ad150ea915ed9a3b9d899e9df" target="_top" xlink:title=" ">
<polygon fill="white" stroke="black" points="492,-195 492,-225 627,-225 627,-195 492,-195"/>
<text text-anchor="start" x="500" y="-213" font-family="Helvetica,sans-Serif" font-size="10.00">mm_max_page_allocatable</text>
<text text-anchor="middle" x="559.5" y="-202" font-family="Helvetica,sans-Serif" font-size="10.00">_memory</text>
</a>
</g>
</g>
<!-- Node3&#45;&gt;Node6 -->
<g id="edge5" class="edge">
<title>Node3&#45;&gt;Node6</title>
<path fill="none" stroke="midnightblue" d="M422.13,-167.54C443.92,-174.32 473.88,-183.65 500.16,-191.83"/>
<polygon fill="midnightblue" stroke="midnightblue" points="499.44,-195.28 510.03,-194.91 501.52,-188.59 499.44,-195.28"/>
</g>
<!-- Node8 -->
<g id="node8" class="node">
<title>Node8</title>
<g id="a_node8"><a xlink:href="memory__manager_8c.html#a5987bb26622d19dcd8ecfd1416a7f3c6" target="_top" xlink:title=" ">
<polygon fill="white" stroke="black" points="498.5,-58 498.5,-88 620.5,-88 620.5,-58 498.5,-58"/>
<text text-anchor="start" x="506.5" y="-76" font-family="Helvetica,sans-Serif" font-size="10.00">free_blocks_comparison</text>
<text text-anchor="middle" x="559.5" y="-65" font-family="Helvetica,sans-Serif" font-size="10.00">_function</text>
</a>
</g>
</g>
<!-- Node7&#45;&gt;Node8 -->
<g id="edge7" class="edge">
<title>Node7&#45;&gt;Node8</title>
<path fill="none" stroke="midnightblue" d="M456.07,-73C466.64,-73 477.64,-73 488.34,-73"/>
<polygon fill="midnightblue" stroke="midnightblue" points="488.48,-76.5 498.48,-73 488.48,-69.5 488.48,-76.5"/>
</g>
<!-- Node9 -->
<g id="node9" class="node">
<title>Node9</title>
<g id="a_node9"><a xlink:href="glthread_8h.html#a2f6336d160a55d3adecb11dace34152a" target="_top" xlink:title="Insert a glthread_t structure into a sorted linked list based on priority.">
<polygon fill="white" stroke="black" points="502,-19.5 502,-38.5 617,-38.5 617,-19.5 502,-19.5"/>
<text text-anchor="middle" x="559.5" y="-26.5" font-family="Helvetica,sans-Serif" font-size="10.00">glthread_priority_insert</text>
</a>
</g>
</g>
<!-- Node7&#45;&gt;Node9 -->
<g id="edge8" class="edge">
<title>Node7&#45;&gt;Node9</title>
<path fill="none" stroke="midnightblue" d="M448.5,-57.98C469.36,-52.49 492.67,-46.34 512.45,-41.13"/>
<polygon fill="midnightblue" stroke="midnightblue" points="513.37,-44.51 522.15,-38.58 511.58,-37.74 513.37,-44.51"/>
</g>
<!-- Node10 -->
<g id="node10" class="node">
<title>Node10</title>
<g id="a_node10"><a xlink:href="glthread_8c.html#aa63bf952adace7bfd5bc0cdf970eb4db" target="_top" xlink:title="Adds a new node after the specified current node in the threaded linked list.">
<polygon fill="white" stroke="black" points="663,-38.5 663,-57.5 759,-57.5 759,-38.5 663,-38.5"/>
<text text-anchor="middle" x="711" y="-45.5" font-family="Helvetica,sans-Serif" font-size="10.00">glthread_add_next</text>
</a>
</g>
</g>
<!-- Node9&#45;&gt;Node10 -->
<g id="edge9" class="edge">
<title>Node9&#45;&gt;Node10</title>
<path fill="none" stroke="midnightblue" d="M617.02,-36.18C628.66,-37.66 640.93,-39.22 652.6,-40.7"/>
<polygon fill="midnightblue" stroke="midnightblue" points="652.31,-44.2 662.67,-41.98 653.19,-37.25 652.31,-44.2"/>
</g>
<!-- Node11 -->
<g id="node11" class="node">
<title>Node11</title>
<g id="a_node11"><a xlink:href="glthread_8c.html#a9e4b763220b1c69da2d9e9f191506f89" target="_top" xlink:title="Initialize a glthread_t structure.">
<polygon fill="white" stroke="black" points="676.5,-0.5 676.5,-19.5 745.5,-19.5 745.5,-0.5 676.5,-0.5"/>
<text text-anchor="middle" x="711" y="-7.5" font-family="Helvetica,sans-Serif" font-size="10.00">init_glthread</text>
</a>
</g>
</g>
<!-- Node9&#45;&gt;Node11 -->
<g id="edge10" class="edge">
<title>Node9&#45;&gt;Node11</title>
<path fill="none" stroke="midnightblue" d="M617.02,-21.82C633.28,-19.75 650.76,-17.53 666.13,-15.58"/>
<polygon fill="midnightblue" stroke="midnightblue" points="666.92,-19 676.39,-14.27 666.03,-12.06 666.92,-19"/>
</g>
<!-- Node13&#45;&gt;Node4 -->
<g id="edge13" class="edge">
<title>Node13&#45;&gt;Node4</title>
<path fill="none" stroke="midnightblue" d="M275.64,-87.65C291.42,-91.54 308.82,-95.38 325,-98 390.51,-108.59 467.37,-113.4 514.49,-115.49"/>
<polygon fill="midnightblue" stroke="midnightblue" points="514.52,-119 524.66,-115.92 514.81,-112 514.52,-119"/>
</g>
<!-- Node13&#45;&gt;Node7 -->
<g id="edge14" class="edge">
<title>Node13&#45;&gt;Node7</title>
<path fill="none" stroke="midnightblue" d="M275.8,-73C288.08,-73 301.36,-73 314.37,-73"/>
<polygon fill="midnightblue" stroke="midnightblue" points="314.72,-76.5 324.72,-73 314.72,-69.5 314.72,-76.5"/>
</g>
<!-- Node14 -->
<g id="node14" class="node">
<title>Node14</title>
<g id="a_node14"><a xlink:href="glthread_8h.html#a935ecd20646a46a7b84dbbeee4abd76d" target="_top" xlink:title="Removes the specified node from the threaded linked list.">
<polygon fill="white" stroke="black" points="346,-19.5 346,-38.5 435,-38.5 435,-19.5 346,-19.5"/>
<text text-anchor="middle" x="390.5" y="-26.5" font-family="Helvetica,sans-Serif" font-size="10.00">remove_glthread</text>
</a>
</g>
</g>
<!-- Node13&#45;&gt;Node14 -->
<g id="edge15" class="edge">
<title>Node13&#45;&gt;Node14</title>
<path fill="none" stroke="midnightblue" d="M275.8,-58.96C297.54,-53.23 322.43,-46.67 343.38,-41.15"/>
<polygon fill="midnightblue" stroke="midnightblue" points="344.53,-44.47 353.31,-38.54 342.75,-37.7 344.53,-44.47"/>
</g>
</g>
</svg>
