<?xml version="1.0" encoding="UTF-8" standalone="no"?>
<!DOCTYPE svg PUBLIC "-//W3C//DTD SVG 1.1//EN"
 "http://www.w3.org/Graphics/SVG/1.1/DTD/svg11.dtd">
<!-- Generated by graphviz version 2.43.0 (0)
 -->
<!-- Title: src/memory_manager.c Pages: 1 -->
<svg width="988pt" height="140pt"
 viewBox="0.00 0.00 987.50 140.00" xmlns="http://www.w3.org/2000/svg" xmlns:xlink="http://www.w3.org/1999/xlink">
<g id="graph0" class="graph" transform="scale(1 1) rotate(0) translate(4 136)">
<title>src/memory_manager.c</title>
<polygon fill="white" stroke="transparent" points="-4,4 -4,-136 983.5,-136 983.5,4 -4,4"/>
<!-- Node1 -->
<g id="node1" class="node">
<title>Node1</title>
<g id="a_node1"><a xlink:title="Implementation file for the Memory Manager module.">
<polygon fill="#bfbfbf" stroke="black" points="440.5,-112.5 440.5,-131.5 559.5,-131.5 559.5,-112.5 440.5,-112.5"/>
<text text-anchor="middle" x="500" y="-119.5" font-family="Helvetica,sans-Serif" font-size="10.00">src/memory_manager.c</text>
</a>
</g>
</g>
<!-- Node2 -->
<g id="node2" class="node">
<title>Node2</title>
<g id="a_node2"><a xlink:title=" ">
<polygon fill="white" stroke="#bfbfbf" points="0,-56.5 0,-75.5 52,-75.5 52,-56.5 0,-56.5"/>
<text text-anchor="middle" x="26" y="-63.5" font-family="Helvetica,sans-Serif" font-size="10.00">assert.h</text>
</a>
</g>
</g>
<!-- Node1&#45;&gt;Node2 -->
<g id="edge1" class="edge">
<title>Node1&#45;&gt;Node2</title>
<path fill="none" stroke="midnightblue" d="M440.32,-117.72C357.48,-112.54 202.9,-100.61 62.37,-76"/>
<polygon fill="midnightblue" stroke="midnightblue" points="62.74,-72.51 52.28,-74.21 61.51,-79.4 62.74,-72.51"/>
</g>
<!-- Node3 -->
<g id="node3" class="node">
<title>Node3</title>
<g id="a_node3"><a xlink:title=" ">
<polygon fill="white" stroke="#bfbfbf" points="70.5,-56.5 70.5,-75.5 129.5,-75.5 129.5,-56.5 70.5,-56.5"/>
<text text-anchor="middle" x="100" y="-63.5" font-family="Helvetica,sans-Serif" font-size="10.00">memory.h</text>
</a>
</g>
</g>
<!-- Node1&#45;&gt;Node3 -->
<g id="edge2" class="edge">
<title>Node1&#45;&gt;Node3</title>
<path fill="none" stroke="midnightblue" d="M440.27,-114.85C369.39,-107.24 247.72,-93.14 144,-76 142.56,-75.76 141.09,-75.51 139.61,-75.25"/>
<polygon fill="midnightblue" stroke="midnightblue" points="140.24,-71.81 129.77,-73.41 138.95,-78.69 140.24,-71.81"/>
</g>
<!-- Node4 -->
<g id="node4" class="node">
<title>Node4</title>
<g id="a_node4"><a xlink:title=" ">
<polygon fill="white" stroke="#bfbfbf" points="251.5,-0.5 251.5,-19.5 300.5,-19.5 300.5,-0.5 251.5,-0.5"/>
<text text-anchor="middle" x="276" y="-7.5" font-family="Helvetica,sans-Serif" font-size="10.00">stdint.h</text>
</a>
</g>
</g>
<!-- Node1&#45;&gt;Node4 -->
<g id="edge3" class="edge">
<title>Node1&#45;&gt;Node4</title>
<path fill="none" stroke="midnightblue" d="M440.35,-121.62C356.55,-121.07 210.45,-114.44 177,-76 154.24,-49.84 204.43,-29.94 241.33,-19.4"/>
<polygon fill="midnightblue" stroke="midnightblue" points="242.59,-22.69 251.32,-16.68 240.75,-15.94 242.59,-22.69"/>
</g>
<!-- Node5 -->
<g id="node5" class="node">
<title>Node5</title>
<g id="a_node5"><a xlink:title=" ">
<polygon fill="white" stroke="#bfbfbf" points="459,-0.5 459,-19.5 505,-19.5 505,-0.5 459,-0.5"/>
<text text-anchor="middle" x="482" y="-7.5" font-family="Helvetica,sans-Serif" font-size="10.00">stdio.h</text>
</a>
</g>
</g>
<!-- Node1&#45;&gt;Node5 -->
<g id="edge4" class="edge">
<title>Node1&#45;&gt;Node5</title>
<path fill="none" stroke="midnightblue" d="M493.37,-112.27C487.23,-103.61 478.54,-89.67 475,-76 471,-60.55 473.5,-42.46 476.58,-29.29"/>
<polygon fill="midnightblue" stroke="midnightblue" points="479.98,-30.12 479.16,-19.56 473.21,-28.32 479.98,-30.12"/>
</g>
<!-- Node6 -->
<g id="node6" class="node">
<title>Node6</title>
<g id="a_node6"><a xlink:title=" ">
<polygon fill="white" stroke="#bfbfbf" points="602.5,-0.5 602.5,-19.5 651.5,-19.5 651.5,-0.5 602.5,-0.5"/>
<text text-anchor="middle" x="627" y="-7.5" font-family="Helvetica,sans-Serif" font-size="10.00">string.h</text>
</a>
</g>
</g>
<!-- Node1&#45;&gt;Node6 -->
<g id="edge5" class="edge">
<title>Node1&#45;&gt;Node6</title>
<path fill="none" stroke="midnightblue" d="M549.08,-112.45C571.64,-106.07 596.91,-95.03 613,-76 623.82,-63.2 626.87,-44.01 627.48,-29.8"/>
<polygon fill="midnightblue" stroke="midnightblue" points="630.99,-29.71 627.56,-19.68 623.99,-29.66 630.99,-29.71"/>
</g>
<!-- Node7 -->
<g id="node7" class="node">
<title>Node7</title>
<g id="a_node7"><a xlink:title=" ">
<polygon fill="white" stroke="#bfbfbf" points="770.5,-56.5 770.5,-75.5 841.5,-75.5 841.5,-56.5 770.5,-56.5"/>
<text text-anchor="middle" x="806" y="-63.5" font-family="Helvetica,sans-Serif" font-size="10.00">sys/mman.h</text>
</a>
</g>
</g>
<!-- Node1&#45;&gt;Node7 -->
<g id="edge6" class="edge">
<title>Node1&#45;&gt;Node7</title>
<path fill="none" stroke="midnightblue" d="M552.07,-112.44C602.64,-104.04 681.85,-90.62 760.12,-76.12"/>
<polygon fill="midnightblue" stroke="midnightblue" points="760.96,-79.53 770.16,-74.26 759.68,-72.65 760.96,-79.53"/>
</g>
<!-- Node8 -->
<g id="node8" class="node">
<title>Node8</title>
<g id="a_node8"><a xlink:title=" ">
<polygon fill="white" stroke="#bfbfbf" points="859.5,-56.5 859.5,-75.5 910.5,-75.5 910.5,-56.5 859.5,-56.5"/>
<text text-anchor="middle" x="885" y="-63.5" font-family="Helvetica,sans-Serif" font-size="10.00">unistd.h</text>
</a>
</g>
</g>
<!-- Node1&#45;&gt;Node8 -->
<g id="edge7" class="edge">
<title>Node1&#45;&gt;Node8</title>
<path fill="none" stroke="midnightblue" d="M559.69,-115.76C627.72,-109.24 742.35,-96.63 849.46,-76.09"/>
<polygon fill="midnightblue" stroke="midnightblue" points="850.32,-79.49 859.46,-74.14 848.98,-72.62 850.32,-79.49"/>
</g>
<!-- Node9 -->
<g id="node9" class="node">
<title>Node9</title>
<g id="a_node9"><a xlink:href="colors_8h.html" target="_top" xlink:title="Header file for ANSI color definitions.">
<polygon fill="white" stroke="black" points="928.5,-56.5 928.5,-75.5 979.5,-75.5 979.5,-56.5 928.5,-56.5"/>
<text text-anchor="middle" x="954" y="-63.5" font-family="Helvetica,sans-Serif" font-size="10.00">colors.h</text>
</a>
</g>
</g>
<!-- Node1&#45;&gt;Node9 -->
<g id="edge8" class="edge">
<title>Node1&#45;&gt;Node9</title>
<path fill="none" stroke="midnightblue" d="M559.53,-117.48C639.31,-112.13 785.37,-100.13 918.5,-76.03"/>
<polygon fill="midnightblue" stroke="midnightblue" points="919.27,-79.45 928.47,-74.2 918.01,-72.57 919.27,-79.45"/>
</g>
<!-- Node10 -->
<g id="node10" class="node">
<title>Node10</title>
<g id="a_node10"><a xlink:href="datatype__size__lookup_8h.html" target="_top" xlink:title="Header file for data type size lookup functionality and mappings.">
<polygon fill="white" stroke="black" points="484.5,-56.5 484.5,-75.5 603.5,-75.5 603.5,-56.5 484.5,-56.5"/>
<text text-anchor="middle" x="544" y="-63.5" font-family="Helvetica,sans-Serif" font-size="10.00">datatype_size_lookup.h</text>
</a>
</g>
</g>
<!-- Node1&#45;&gt;Node10 -->
<g id="edge9" class="edge">
<title>Node1&#45;&gt;Node10</title>
<path fill="none" stroke="midnightblue" d="M507.27,-112.08C513.54,-104.38 522.79,-93.03 530.43,-83.65"/>
<polygon fill="midnightblue" stroke="midnightblue" points="533.27,-85.71 536.87,-75.75 527.84,-81.29 533.27,-85.71"/>
</g>
<!-- Node12 -->
<g id="node12" class="node">
<title>Node12</title>
<g id="a_node12"><a xlink:href="memory__manager_8h.html" target="_top" xlink:title="Header file for the Memory Manager module.">
<polygon fill="white" stroke="black" points="326,-56.5 326,-75.5 428,-75.5 428,-56.5 326,-56.5"/>
<text text-anchor="middle" x="377" y="-63.5" font-family="Helvetica,sans-Serif" font-size="10.00">memory_manager.h</text>
</a>
</g>
</g>
<!-- Node1&#45;&gt;Node12 -->
<g id="edge13" class="edge">
<title>Node1&#45;&gt;Node12</title>
<path fill="none" stroke="midnightblue" d="M480.51,-112.44C460.36,-103.6 428.68,-89.69 405.67,-79.59"/>
<polygon fill="midnightblue" stroke="midnightblue" points="406.96,-76.33 396.4,-75.52 404.15,-82.74 406.96,-76.33"/>
</g>
<!-- Node14 -->
<g id="node14" class="node">
<title>Node14</title>
<g id="a_node14"><a xlink:href="memory__manager__api_8h.html" target="_top" xlink:title="Header file for the Memory Manager API.">
<polygon fill="white" stroke="black" points="186.5,-56.5 186.5,-75.5 307.5,-75.5 307.5,-56.5 186.5,-56.5"/>
<text text-anchor="middle" x="247" y="-63.5" font-family="Helvetica,sans-Serif" font-size="10.00">memory_manager_api.h</text>
</a>
</g>
</g>
<!-- Node1&#45;&gt;Node14 -->
<g id="edge16" class="edge">
<title>Node1&#45;&gt;Node14</title>
<path fill="none" stroke="midnightblue" d="M459.91,-112.44C415.68,-103 344.46,-87.8 296.72,-77.61"/>
<polygon fill="midnightblue" stroke="midnightblue" points="297.41,-74.18 286.9,-75.52 295.95,-81.03 297.41,-74.18"/>
</g>
<!-- Node15 -->
<g id="node15" class="node">
<title>Node15</title>
<g id="a_node15"><a xlink:href="parse__datatype_8h.html" target="_top" xlink:title="Header file for parsing data type names.">
<polygon fill="white" stroke="black" points="660,-56.5 660,-75.5 752,-75.5 752,-56.5 660,-56.5"/>
<text text-anchor="middle" x="706" y="-63.5" font-family="Helvetica,sans-Serif" font-size="10.00">parse_datatype.h</text>
</a>
</g>
</g>
<!-- Node1&#45;&gt;Node15 -->
<g id="edge18" class="edge">
<title>Node1&#45;&gt;Node15</title>
<path fill="none" stroke="midnightblue" d="M532.64,-112.44C568.05,-103.16 624.71,-88.31 663.55,-78.13"/>
<polygon fill="midnightblue" stroke="midnightblue" points="664.73,-81.44 673.51,-75.52 662.95,-74.67 664.73,-81.44"/>
</g>
<!-- Node10&#45;&gt;Node5 -->
<g id="edge11" class="edge">
<title>Node10&#45;&gt;Node5</title>
<path fill="none" stroke="midnightblue" d="M534.04,-56.32C524.87,-48.34 511.06,-36.31 499.97,-26.65"/>
<polygon fill="midnightblue" stroke="midnightblue" points="501.98,-23.76 492.14,-19.83 497.38,-29.04 501.98,-23.76"/>
</g>
<!-- Node10&#45;&gt;Node6 -->
<g id="edge12" class="edge">
<title>Node10&#45;&gt;Node6</title>
<path fill="none" stroke="midnightblue" d="M557.34,-56.32C570.16,-47.98 589.78,-35.21 604.94,-25.35"/>
<polygon fill="midnightblue" stroke="midnightblue" points="607.22,-28.04 613.7,-19.65 603.41,-22.17 607.22,-28.04"/>
</g>
<!-- Node11 -->
<g id="node11" class="node">
<title>Node11</title>
<g id="a_node11"><a xlink:title=" ">
<polygon fill="white" stroke="#bfbfbf" points="523,-0.5 523,-19.5 575,-19.5 575,-0.5 523,-0.5"/>
<text text-anchor="middle" x="549" y="-7.5" font-family="Helvetica,sans-Serif" font-size="10.00">stddef.h</text>
</a>
</g>
</g>
<!-- Node10&#45;&gt;Node11 -->
<g id="edge10" class="edge">
<title>Node10&#45;&gt;Node11</title>
<path fill="none" stroke="midnightblue" d="M544.83,-56.08C545.48,-49.01 546.42,-38.86 547.24,-29.99"/>
<polygon fill="midnightblue" stroke="midnightblue" points="550.75,-30.03 548.19,-19.75 543.78,-29.39 550.75,-30.03"/>
</g>
<!-- Node12&#45;&gt;Node4 -->
<g id="edge14" class="edge">
<title>Node12&#45;&gt;Node4</title>
<path fill="none" stroke="midnightblue" d="M360.77,-56.32C344.65,-47.7 319.7,-34.36 301.04,-24.39"/>
<polygon fill="midnightblue" stroke="midnightblue" points="302.66,-21.28 292.19,-19.65 299.36,-27.46 302.66,-21.28"/>
</g>
<!-- Node13 -->
<g id="node13" class="node">
<title>Node13</title>
<g id="a_node13"><a xlink:href="glthread_8h.html" target="_top" xlink:title="Header file for the Generic Linked List Thread library.">
<polygon fill="white" stroke="black" points="347.5,-0.5 347.5,-19.5 406.5,-19.5 406.5,-0.5 347.5,-0.5"/>
<text text-anchor="middle" x="377" y="-7.5" font-family="Helvetica,sans-Serif" font-size="10.00">glthread.h</text>
</a>
</g>
</g>
<!-- Node12&#45;&gt;Node13 -->
<g id="edge15" class="edge">
<title>Node12&#45;&gt;Node13</title>
<path fill="none" stroke="midnightblue" d="M377,-56.08C377,-49.01 377,-38.86 377,-29.99"/>
<polygon fill="midnightblue" stroke="midnightblue" points="380.5,-29.75 377,-19.75 373.5,-29.75 380.5,-29.75"/>
</g>
<!-- Node14&#45;&gt;Node4 -->
<g id="edge17" class="edge">
<title>Node14&#45;&gt;Node4</title>
<path fill="none" stroke="midnightblue" d="M251.79,-56.08C255.76,-48.69 261.53,-37.95 266.43,-28.81"/>
<polygon fill="midnightblue" stroke="midnightblue" points="269.65,-30.22 271.3,-19.75 263.49,-26.91 269.65,-30.22"/>
</g>
<!-- Node15&#45;&gt;Node4 -->
<g id="edge21" class="edge">
<title>Node15&#45;&gt;Node4</title>
<path fill="none" stroke="midnightblue" d="M659.77,-59.69C590,-51.59 453.63,-35.46 338,-20 329.17,-18.82 319.64,-17.47 310.76,-16.19"/>
<polygon fill="midnightblue" stroke="midnightblue" points="311.12,-12.7 300.72,-14.72 310.11,-19.63 311.12,-12.7"/>
</g>
<!-- Node15&#45;&gt;Node5 -->
<g id="edge22" class="edge">
<title>Node15&#45;&gt;Node5</title>
<path fill="none" stroke="midnightblue" d="M667.26,-56.45C630.45,-48.2 573.31,-35.1 514.82,-20.13"/>
<polygon fill="midnightblue" stroke="midnightblue" points="515.6,-16.71 505.04,-17.61 513.85,-23.49 515.6,-16.71"/>
</g>
<!-- Node15&#45;&gt;Node6 -->
<g id="edge24" class="edge">
<title>Node15&#45;&gt;Node6</title>
<path fill="none" stroke="midnightblue" d="M693.31,-56.32C681.1,-47.98 662.42,-35.21 648,-25.35"/>
<polygon fill="midnightblue" stroke="midnightblue" points="649.89,-22.41 639.66,-19.65 645.94,-28.19 649.89,-22.41"/>
</g>
<!-- Node16 -->
<g id="node16" class="node">
<title>Node16</title>
<g id="a_node16"><a xlink:title=" ">
<polygon fill="white" stroke="#bfbfbf" points="669.5,-0.5 669.5,-19.5 718.5,-19.5 718.5,-0.5 669.5,-0.5"/>
<text text-anchor="middle" x="694" y="-7.5" font-family="Helvetica,sans-Serif" font-size="10.00">ctype.h</text>
</a>
</g>
</g>
<!-- Node15&#45;&gt;Node16 -->
<g id="edge19" class="edge">
<title>Node15&#45;&gt;Node16</title>
<path fill="none" stroke="midnightblue" d="M704.02,-56.08C702.43,-48.93 700.14,-38.64 698.15,-29.69"/>
<polygon fill="midnightblue" stroke="midnightblue" points="701.53,-28.75 695.94,-19.75 694.7,-30.27 701.53,-28.75"/>
</g>
<!-- Node17 -->
<g id="node17" class="node">
<title>Node17</title>
<g id="a_node17"><a xlink:title=" ">
<polygon fill="white" stroke="#bfbfbf" points="737,-0.5 737,-19.5 793,-19.5 793,-0.5 737,-0.5"/>
<text text-anchor="middle" x="765" y="-7.5" font-family="Helvetica,sans-Serif" font-size="10.00">stdbool.h</text>
</a>
</g>
</g>
<!-- Node15&#45;&gt;Node17 -->
<g id="edge20" class="edge">
<title>Node15&#45;&gt;Node17</title>
<path fill="none" stroke="midnightblue" d="M715.48,-56.32C724.2,-48.34 737.34,-36.31 747.9,-26.65"/>
<polygon fill="midnightblue" stroke="midnightblue" points="750.33,-29.17 755.35,-19.83 745.61,-24 750.33,-29.17"/>
</g>
<!-- Node18 -->
<g id="node18" class="node">
<title>Node18</title>
<g id="a_node18"><a xlink:title=" ">
<polygon fill="white" stroke="#bfbfbf" points="811,-0.5 811,-19.5 859,-19.5 859,-0.5 811,-0.5"/>
<text text-anchor="middle" x="835" y="-7.5" font-family="Helvetica,sans-Serif" font-size="10.00">stdlib.h</text>
</a>
</g>
</g>
<!-- Node15&#45;&gt;Node18 -->
<g id="edge23" class="edge">
<title>Node15&#45;&gt;Node18</title>
<path fill="none" stroke="midnightblue" d="M726.44,-56.44C747.67,-47.56 781.1,-33.56 805.25,-23.45"/>
<polygon fill="midnightblue" stroke="midnightblue" points="806.78,-26.61 814.66,-19.52 804.08,-20.15 806.78,-26.61"/>
</g>
</g>
</svg>
