<?xml version="1.0" encoding="UTF-8" standalone="no"?>
<!DOCTYPE svg PUBLIC "-//W3C//DTD SVG 1.1//EN"
 "http://www.w3.org/Graphics/SVG/1.1/DTD/svg11.dtd">
<!-- Generated by graphviz version 2.43.0 (0)
 -->
<!-- Title: mm_split_free_data_block_for_allocation Pages: 1 -->
<svg width="353pt" height="39pt"
 viewBox="0.00 0.00 353.00 39.00" xmlns="http://www.w3.org/2000/svg" xmlns:xlink="http://www.w3.org/1999/xlink">
<g id="graph0" class="graph" transform="scale(1 1) rotate(0) translate(4 35)">
<title>mm_split_free_data_block_for_allocation</title>
<polygon fill="white" stroke="transparent" points="-4,4 -4,-35 349,-35 349,4 -4,4"/>
<!-- Node1 -->
<g id="node1" class="node">
<title>Node1</title>
<g id="a_node1"><a xlink:title=" ">
<polygon fill="#bfbfbf" stroke="black" points="237,-0.5 237,-30.5 345,-30.5 345,-0.5 237,-0.5"/>
<text text-anchor="start" x="245" y="-18.5" font-family="Helvetica,sans-Serif" font-size="10.00">mm_split_free_data</text>
<text text-anchor="middle" x="291" y="-7.5" font-family="Helvetica,sans-Serif" font-size="10.00">_block_for_allocation</text>
</a>
</g>
</g>
<!-- Node2 -->
<g id="node2" class="node">
<title>Node2</title>
<g id="a_node2"><a xlink:href="memory__manager_8c.html#a2eb03d198590833c575a105c856ecfbb" target="_top" xlink:title=" ">
<polygon fill="white" stroke="black" points="83,-0.5 83,-30.5 201,-30.5 201,-0.5 83,-0.5"/>
<text text-anchor="start" x="91" y="-18.5" font-family="Helvetica,sans-Serif" font-size="10.00">mm_allocate_free_data</text>
<text text-anchor="middle" x="142" y="-7.5" font-family="Helvetica,sans-Serif" font-size="10.00">_block</text>
</a>
</g>
</g>
<!-- Node1&#45;&gt;Node2 -->
<g id="edge1" class="edge">
<title>Node1&#45;&gt;Node2</title>
<path fill="none" stroke="midnightblue" d="M226.72,-15.5C218.25,-15.5 209.59,-15.5 201.22,-15.5"/>
<polygon fill="midnightblue" stroke="midnightblue" points="226.93,-19 236.93,-15.5 226.93,-12 226.93,-19"/>
</g>
<!-- Node3 -->
<g id="node3" class="node">
<title>Node3</title>
<g id="a_node3"><a xlink:href="memory__manager__api_8h.html#a22486940fff22d18c1c65122b4b5235f" target="_top" xlink:title="Allocates and initializes memory for an array of structures.">
<polygon fill="white" stroke="black" points="0,-6 0,-25 47,-25 47,-6 0,-6"/>
<text text-anchor="middle" x="23.5" y="-13" font-family="Helvetica,sans-Serif" font-size="10.00">xcalloc</text>
</a>
</g>
</g>
<!-- Node2&#45;&gt;Node3 -->
<g id="edge2" class="edge">
<title>Node2&#45;&gt;Node3</title>
<path fill="none" stroke="midnightblue" d="M72.73,-15.5C63.58,-15.5 54.77,-15.5 47.24,-15.5"/>
<polygon fill="midnightblue" stroke="midnightblue" points="72.75,-19 82.75,-15.5 72.75,-12 72.75,-19"/>
</g>
</g>
</svg>
