<?xml version="1.0" encoding="UTF-8" standalone="no"?>
<!DOCTYPE svg PUBLIC "-//W3C//DTD SVG 1.1//EN"
 "http://www.w3.org/Graphics/SVG/1.1/DTD/svg11.dtd">
<!-- Generated by graphviz version 2.43.0 (0)
 -->
<!-- Title: xfree Pages: 1 -->
<svg width="649pt" height="230pt"
 viewBox="0.00 0.00 649.00 230.00" xmlns="http://www.w3.org/2000/svg" xmlns:xlink="http://www.w3.org/1999/xlink">
<g id="graph0" class="graph" transform="scale(1 1) rotate(0) translate(4 226)">
<title>xfree</title>
<polygon fill="white" stroke="transparent" points="-4,4 -4,-226 645,-226 645,4 -4,4"/>
<!-- Node1 -->
<g id="node1" class="node">
<title>Node1</title>
<g id="a_node1"><a xlink:title="Frees memory allocated by the memory manager.">
<polygon fill="#bfbfbf" stroke="black" points="0,-82 0,-101 38,-101 38,-82 0,-82"/>
<text text-anchor="middle" x="19" y="-89" font-family="Helvetica,sans-Serif" font-size="10.00">xfree</text>
</a>
</g>
</g>
<!-- Node2 -->
<g id="node2" class="node">
<title>Node2</title>
<g id="a_node2"><a xlink:href="memory__manager_8c.html#aa1a17c04f785d5504f86d5c3cebb68d8" target="_top" xlink:title=" ">
<polygon fill="white" stroke="black" points="74,-82 74,-101 163,-101 163,-82 74,-82"/>
<text text-anchor="middle" x="118.5" y="-89" font-family="Helvetica,sans-Serif" font-size="10.00">mm_free_blocks</text>
</a>
</g>
</g>
<!-- Node1&#45;&gt;Node2 -->
<g id="edge1" class="edge">
<title>Node1&#45;&gt;Node2</title>
<path fill="none" stroke="midnightblue" d="M38.34,-91.5C45.63,-91.5 54.44,-91.5 63.49,-91.5"/>
<polygon fill="midnightblue" stroke="midnightblue" points="63.75,-95 73.75,-91.5 63.75,-88 63.75,-95"/>
</g>
<!-- Node3 -->
<g id="node3" class="node">
<title>Node3</title>
<g id="a_node3"><a xlink:href="memory__manager_8c.html#aa72156192006fd76902b0616def7db4d" target="_top" xlink:title=" ">
<polygon fill="white" stroke="black" points="209.5,-169.5 209.5,-199.5 340.5,-199.5 340.5,-169.5 209.5,-169.5"/>
<text text-anchor="start" x="217.5" y="-187.5" font-family="Helvetica,sans-Serif" font-size="10.00">mm_add_free_block_meta</text>
<text text-anchor="middle" x="275" y="-176.5" font-family="Helvetica,sans-Serif" font-size="10.00">_data_to_free_block_list</text>
</a>
</g>
</g>
<!-- Node2&#45;&gt;Node3 -->
<g id="edge2" class="edge">
<title>Node2&#45;&gt;Node3</title>
<path fill="none" stroke="midnightblue" d="M128.32,-101.38C142.06,-116.2 170.01,-144.2 199,-160.5 202.07,-162.23 205.29,-163.85 208.58,-165.37"/>
<polygon fill="midnightblue" stroke="midnightblue" points="207.47,-168.7 218.04,-169.4 210.21,-162.26 207.47,-168.7"/>
</g>
<!-- Node8 -->
<g id="node8" class="node">
<title>Node8</title>
<g id="a_node8"><a xlink:href="memory__manager_8c.html#a3635ea0217471faffe42b0c91c4bcc42" target="_top" xlink:title=" ">
<polygon fill="white" stroke="black" points="218.5,-120.5 218.5,-150.5 331.5,-150.5 331.5,-120.5 218.5,-120.5"/>
<text text-anchor="start" x="226.5" y="-138.5" font-family="Helvetica,sans-Serif" font-size="10.00">mm_get_hard_internal</text>
<text text-anchor="middle" x="275" y="-127.5" font-family="Helvetica,sans-Serif" font-size="10.00">_memory_frag_size</text>
</a>
</g>
</g>
<!-- Node2&#45;&gt;Node8 -->
<g id="edge7" class="edge">
<title>Node2&#45;&gt;Node8</title>
<path fill="none" stroke="midnightblue" d="M153.02,-101.05C170.11,-105.91 191.45,-111.99 211.43,-117.68"/>
<polygon fill="midnightblue" stroke="midnightblue" points="210.52,-121.06 221.1,-120.43 212.44,-114.33 210.52,-121.06"/>
</g>
<!-- Node9 -->
<g id="node9" class="node">
<title>Node9</title>
<g id="a_node9"><a xlink:href="memory__manager_8c.html#a38d0ee21c7b3b9b22289786fd969be46" target="_top" xlink:title="Checks if a virtual memory page is empty.">
<polygon fill="white" stroke="black" points="213.5,-82 213.5,-101 336.5,-101 336.5,-82 213.5,-82"/>
<text text-anchor="middle" x="275" y="-89" font-family="Helvetica,sans-Serif" font-size="10.00">mm_is_vm_page_empty</text>
</a>
</g>
</g>
<!-- Node2&#45;&gt;Node9 -->
<g id="edge8" class="edge">
<title>Node2&#45;&gt;Node9</title>
<path fill="none" stroke="midnightblue" d="M163.36,-91.5C175.73,-91.5 189.51,-91.5 203.04,-91.5"/>
<polygon fill="midnightblue" stroke="midnightblue" points="203.3,-95 213.3,-91.5 203.3,-88 203.3,-95"/>
</g>
<!-- Node10 -->
<g id="node10" class="node">
<title>Node10</title>
<g id="a_node10"><a xlink:href="memory__manager_8c.html#a8b1f18097a67a303b6182eaf288b64f9" target="_top" xlink:title=" ">
<polygon fill="white" stroke="black" points="216.5,-44 216.5,-63 333.5,-63 333.5,-44 216.5,-44"/>
<text text-anchor="middle" x="275" y="-51" font-family="Helvetica,sans-Serif" font-size="10.00">mm_union_free_blocks</text>
</a>
</g>
</g>
<!-- Node2&#45;&gt;Node10 -->
<g id="edge9" class="edge">
<title>Node2&#45;&gt;Node10</title>
<path fill="none" stroke="midnightblue" d="M158.49,-81.91C178.78,-76.92 203.79,-70.77 225.35,-65.47"/>
<polygon fill="midnightblue" stroke="midnightblue" points="226.42,-68.81 235.29,-63.02 224.75,-62.01 226.42,-68.81"/>
</g>
<!-- Node11 -->
<g id="node11" class="node">
<title>Node11</title>
<g id="a_node11"><a xlink:href="memory__manager_8c.html#a3c0f19fa657602a76893a7f53e9f5222" target="_top" xlink:title="Deletes and frees a virtual memory page.">
<polygon fill="white" stroke="black" points="199,-6 199,-25 351,-25 351,-6 199,-6"/>
<text text-anchor="middle" x="275" y="-13" font-family="Helvetica,sans-Serif" font-size="10.00">mm_vm_page_delete_and_free</text>
</a>
</g>
</g>
<!-- Node2&#45;&gt;Node11 -->
<g id="edge10" class="edge">
<title>Node2&#45;&gt;Node11</title>
<path fill="none" stroke="midnightblue" d="M130,-81.97C144.48,-69.32 171.89,-47.1 199,-34.5 204.23,-32.07 209.81,-29.92 215.48,-28.03"/>
<polygon fill="midnightblue" stroke="midnightblue" points="216.54,-31.36 225.07,-25.07 214.48,-24.67 216.54,-31.36"/>
</g>
<!-- Node4 -->
<g id="node4" class="node">
<title>Node4</title>
<g id="a_node4"><a xlink:href="memory__manager_8c.html#a5987bb26622d19dcd8ecfd1416a7f3c6" target="_top" xlink:title=" ">
<polygon fill="white" stroke="black" points="387,-191.5 387,-221.5 509,-221.5 509,-191.5 387,-191.5"/>
<text text-anchor="start" x="395" y="-209.5" font-family="Helvetica,sans-Serif" font-size="10.00">free_blocks_comparison</text>
<text text-anchor="middle" x="448" y="-198.5" font-family="Helvetica,sans-Serif" font-size="10.00">_function</text>
</a>
</g>
</g>
<!-- Node3&#45;&gt;Node4 -->
<g id="edge3" class="edge">
<title>Node3&#45;&gt;Node4</title>
<path fill="none" stroke="midnightblue" d="M340.65,-192.82C352.47,-194.34 364.86,-195.93 376.83,-197.47"/>
<polygon fill="midnightblue" stroke="midnightblue" points="376.41,-200.95 386.77,-198.75 377.3,-194 376.41,-200.95"/>
</g>
<!-- Node5 -->
<g id="node5" class="node">
<title>Node5</title>
<g id="a_node5"><a xlink:href="glthread_8h.html#a2f6336d160a55d3adecb11dace34152a" target="_top" xlink:title="Insert a glthread_t structure into a sorted linked list based on priority.">
<polygon fill="white" stroke="black" points="390.5,-153 390.5,-172 505.5,-172 505.5,-153 390.5,-153"/>
<text text-anchor="middle" x="448" y="-160" font-family="Helvetica,sans-Serif" font-size="10.00">glthread_priority_insert</text>
</a>
</g>
</g>
<!-- Node3&#45;&gt;Node5 -->
<g id="edge4" class="edge">
<title>Node3&#45;&gt;Node5</title>
<path fill="none" stroke="midnightblue" d="M340.65,-176.18C353.56,-174.52 367.14,-172.77 380.13,-171.1"/>
<polygon fill="midnightblue" stroke="midnightblue" points="380.92,-174.53 390.39,-169.78 380.02,-167.59 380.92,-174.53"/>
</g>
<!-- Node6 -->
<g id="node6" class="node">
<title>Node6</title>
<g id="a_node6"><a xlink:href="glthread_8c.html#aa63bf952adace7bfd5bc0cdf970eb4db" target="_top" xlink:title="Adds a new node after the specified current node in the threaded linked list.">
<polygon fill="white" stroke="black" points="545,-172 545,-191 641,-191 641,-172 545,-172"/>
<text text-anchor="middle" x="593" y="-179" font-family="Helvetica,sans-Serif" font-size="10.00">glthread_add_next</text>
</a>
</g>
</g>
<!-- Node5&#45;&gt;Node6 -->
<g id="edge5" class="edge">
<title>Node5&#45;&gt;Node6</title>
<path fill="none" stroke="midnightblue" d="M505.52,-170.01C515.03,-171.27 524.92,-172.59 534.46,-173.86"/>
<polygon fill="midnightblue" stroke="midnightblue" points="534.28,-177.36 544.65,-175.21 535.2,-170.42 534.28,-177.36"/>
</g>
<!-- Node7 -->
<g id="node7" class="node">
<title>Node7</title>
<g id="a_node7"><a xlink:href="glthread_8c.html#a9e4b763220b1c69da2d9e9f191506f89" target="_top" xlink:title="Initialize a glthread_t structure.">
<polygon fill="white" stroke="black" points="558.5,-134 558.5,-153 627.5,-153 627.5,-134 558.5,-134"/>
<text text-anchor="middle" x="593" y="-141" font-family="Helvetica,sans-Serif" font-size="10.00">init_glthread</text>
</a>
</g>
</g>
<!-- Node5&#45;&gt;Node7 -->
<g id="edge6" class="edge">
<title>Node5&#45;&gt;Node7</title>
<path fill="none" stroke="midnightblue" d="M505.52,-154.99C519.7,-153.11 534.71,-151.11 548.17,-149.32"/>
<polygon fill="midnightblue" stroke="midnightblue" points="548.67,-152.79 558.12,-148 547.75,-145.85 548.67,-152.79"/>
</g>
<!-- Node12 -->
<g id="node12" class="node">
<title>Node12</title>
<g id="a_node12"><a xlink:href="memory__manager_8c.html#ab7ac1212082ab9c61aab19e76696d9ec" target="_top" xlink:title=" ">
<polygon fill="white" stroke="black" points="387,-0.5 387,-30.5 509,-30.5 509,-0.5 387,-0.5"/>
<text text-anchor="start" x="395" y="-18.5" font-family="Helvetica,sans-Serif" font-size="10.00">mm_return_vm_page_to</text>
<text text-anchor="middle" x="448" y="-7.5" font-family="Helvetica,sans-Serif" font-size="10.00">_kernel</text>
</a>
</g>
</g>
<!-- Node11&#45;&gt;Node12 -->
<g id="edge11" class="edge">
<title>Node11&#45;&gt;Node12</title>
<path fill="none" stroke="midnightblue" d="M351,-15.5C359.55,-15.5 368.24,-15.5 376.73,-15.5"/>
<polygon fill="midnightblue" stroke="midnightblue" points="376.95,-19 386.95,-15.5 376.95,-12 376.95,-19"/>
</g>
</g>
</svg>
