<?xml version="1.0" encoding="UTF-8" standalone="no"?>
<!DOCTYPE svg PUBLIC "-//W3C//DTD SVG 1.1//EN"
 "http://www.w3.org/Graphics/SVG/1.1/DTD/svg11.dtd">
<!-- Generated by graphviz version 2.43.0 (0)
 -->
<!-- Title: src/parse_datatype.c Pages: 1 -->
<svg width="397pt" height="140pt"
 viewBox="0.00 0.00 397.00 140.00" xmlns="http://www.w3.org/2000/svg" xmlns:xlink="http://www.w3.org/1999/xlink">
<g id="graph0" class="graph" transform="scale(1 1) rotate(0) translate(4 136)">
<title>src/parse_datatype.c</title>
<polygon fill="white" stroke="transparent" points="-4,4 -4,-136 393,-136 393,4 -4,4"/>
<!-- Node1 -->
<g id="node1" class="node">
<title>Node1</title>
<g id="a_node1"><a xlink:title="Extracts a data type name from a string containing the sizeof operator.">
<polygon fill="#bfbfbf" stroke="black" points="145.5,-112.5 145.5,-131.5 253.5,-131.5 253.5,-112.5 145.5,-112.5"/>
<text text-anchor="middle" x="199.5" y="-119.5" font-family="Helvetica,sans-Serif" font-size="10.00">src/parse_datatype.c</text>
</a>
</g>
</g>
<!-- Node2 -->
<g id="node2" class="node">
<title>Node2</title>
<g id="a_node2"><a xlink:href="parse__datatype_8h.html" target="_top" xlink:title="Header file for parsing data type names.">
<polygon fill="white" stroke="black" points="153.5,-56.5 153.5,-75.5 245.5,-75.5 245.5,-56.5 153.5,-56.5"/>
<text text-anchor="middle" x="199.5" y="-63.5" font-family="Helvetica,sans-Serif" font-size="10.00">parse_datatype.h</text>
</a>
</g>
</g>
<!-- Node1&#45;&gt;Node2 -->
<g id="edge1" class="edge">
<title>Node1&#45;&gt;Node2</title>
<path fill="none" stroke="midnightblue" d="M199.5,-112.08C199.5,-105.01 199.5,-94.86 199.5,-85.99"/>
<polygon fill="midnightblue" stroke="midnightblue" points="203,-85.75 199.5,-75.75 196,-85.75 203,-85.75"/>
</g>
<!-- Node3 -->
<g id="node3" class="node">
<title>Node3</title>
<g id="a_node3"><a xlink:title=" ">
<polygon fill="white" stroke="#bfbfbf" points="0,-0.5 0,-19.5 49,-19.5 49,-0.5 0,-0.5"/>
<text text-anchor="middle" x="24.5" y="-7.5" font-family="Helvetica,sans-Serif" font-size="10.00">ctype.h</text>
</a>
</g>
</g>
<!-- Node2&#45;&gt;Node3 -->
<g id="edge2" class="edge">
<title>Node2&#45;&gt;Node3</title>
<path fill="none" stroke="midnightblue" d="M171.77,-56.44C141.2,-47.01 91.99,-31.82 58.96,-21.63"/>
<polygon fill="midnightblue" stroke="midnightblue" points="59.86,-18.25 49.27,-18.64 57.79,-24.94 59.86,-18.25"/>
</g>
<!-- Node4 -->
<g id="node4" class="node">
<title>Node4</title>
<g id="a_node4"><a xlink:title=" ">
<polygon fill="white" stroke="#bfbfbf" points="67.5,-0.5 67.5,-19.5 123.5,-19.5 123.5,-0.5 67.5,-0.5"/>
<text text-anchor="middle" x="95.5" y="-7.5" font-family="Helvetica,sans-Serif" font-size="10.00">stdbool.h</text>
</a>
</g>
</g>
<!-- Node2&#45;&gt;Node4 -->
<g id="edge3" class="edge">
<title>Node2&#45;&gt;Node4</title>
<path fill="none" stroke="midnightblue" d="M182.79,-56.32C166.19,-47.7 140.5,-34.36 121.28,-24.39"/>
<polygon fill="midnightblue" stroke="midnightblue" points="122.66,-21.16 112.17,-19.65 119.43,-27.37 122.66,-21.16"/>
</g>
<!-- Node5 -->
<g id="node5" class="node">
<title>Node5</title>
<g id="a_node5"><a xlink:title=" ">
<polygon fill="white" stroke="#bfbfbf" points="142,-0.5 142,-19.5 191,-19.5 191,-0.5 142,-0.5"/>
<text text-anchor="middle" x="166.5" y="-7.5" font-family="Helvetica,sans-Serif" font-size="10.00">stdint.h</text>
</a>
</g>
</g>
<!-- Node2&#45;&gt;Node5 -->
<g id="edge4" class="edge">
<title>Node2&#45;&gt;Node5</title>
<path fill="none" stroke="midnightblue" d="M194.05,-56.08C189.49,-48.61 182.83,-37.72 177.21,-28.52"/>
<polygon fill="midnightblue" stroke="midnightblue" points="180.05,-26.46 171.85,-19.75 174.08,-30.11 180.05,-26.46"/>
</g>
<!-- Node6 -->
<g id="node6" class="node">
<title>Node6</title>
<g id="a_node6"><a xlink:title=" ">
<polygon fill="white" stroke="#bfbfbf" points="209.5,-0.5 209.5,-19.5 255.5,-19.5 255.5,-0.5 209.5,-0.5"/>
<text text-anchor="middle" x="232.5" y="-7.5" font-family="Helvetica,sans-Serif" font-size="10.00">stdio.h</text>
</a>
</g>
</g>
<!-- Node2&#45;&gt;Node6 -->
<g id="edge5" class="edge">
<title>Node2&#45;&gt;Node6</title>
<path fill="none" stroke="midnightblue" d="M204.95,-56.08C209.51,-48.61 216.17,-37.72 221.79,-28.52"/>
<polygon fill="midnightblue" stroke="midnightblue" points="224.92,-30.11 227.15,-19.75 218.95,-26.46 224.92,-30.11"/>
</g>
<!-- Node7 -->
<g id="node7" class="node">
<title>Node7</title>
<g id="a_node7"><a xlink:title=" ">
<polygon fill="white" stroke="#bfbfbf" points="273.5,-0.5 273.5,-19.5 321.5,-19.5 321.5,-0.5 273.5,-0.5"/>
<text text-anchor="middle" x="297.5" y="-7.5" font-family="Helvetica,sans-Serif" font-size="10.00">stdlib.h</text>
</a>
</g>
</g>
<!-- Node2&#45;&gt;Node7 -->
<g id="edge6" class="edge">
<title>Node2&#45;&gt;Node7</title>
<path fill="none" stroke="midnightblue" d="M215.25,-56.32C230.82,-47.74 254.88,-34.49 272.96,-24.52"/>
<polygon fill="midnightblue" stroke="midnightblue" points="274.72,-27.55 281.79,-19.65 271.35,-21.42 274.72,-27.55"/>
</g>
<!-- Node8 -->
<g id="node8" class="node">
<title>Node8</title>
<g id="a_node8"><a xlink:title=" ">
<polygon fill="white" stroke="#bfbfbf" points="340,-0.5 340,-19.5 389,-19.5 389,-0.5 340,-0.5"/>
<text text-anchor="middle" x="364.5" y="-7.5" font-family="Helvetica,sans-Serif" font-size="10.00">string.h</text>
</a>
</g>
</g>
<!-- Node2&#45;&gt;Node8 -->
<g id="edge7" class="edge">
<title>Node2&#45;&gt;Node8</title>
<path fill="none" stroke="midnightblue" d="M225.64,-56.44C253.93,-47.19 299.16,-32.39 330.26,-22.21"/>
<polygon fill="midnightblue" stroke="midnightblue" points="331.41,-25.51 339.83,-19.08 329.23,-18.86 331.41,-25.51"/>
</g>
</g>
</svg>
