<?xml version="1.0" encoding="UTF-8" standalone="no"?>
<!DOCTYPE svg PUBLIC "-//W3C//DTD SVG 1.1//EN"
 "http://www.w3.org/Graphics/SVG/1.1/DTD/svg11.dtd">
<!-- Generated by graphviz version 2.43.0 (0)
 -->
<!-- Title: student_ Pages: 1 -->
<svg width="139pt" height="110pt"
 viewBox="0.00 0.00 139.00 110.00" xmlns="http://www.w3.org/2000/svg" xmlns:xlink="http://www.w3.org/1999/xlink">
<g id="graph0" class="graph" transform="scale(1 1) rotate(0) translate(4 106)">
<title>student_</title>
<polygon fill="white" stroke="transparent" points="-4,4 -4,-106 135,-106 135,4 -4,4"/>
<!-- Node1 -->
<g id="node1" class="node">
<title>Node1</title>
<g id="a_node1"><a xlink:title="Structure representing a student.">
<polygon fill="#bfbfbf" stroke="black" points="0,-0.5 0,-101.5 85,-101.5 85,-0.5 0,-0.5"/>
<text text-anchor="middle" x="42.5" y="-89.5" font-family="Helvetica,sans-Serif" font-size="10.00">student_</text>
<polyline fill="none" stroke="black" points="0,-82.5 85,-82.5 "/>
<text text-anchor="start" x="8" y="-70.5" font-family="Helvetica,sans-Serif" font-size="10.00">+ name</text>
<text text-anchor="start" x="8" y="-59.5" font-family="Helvetica,sans-Serif" font-size="10.00">+ roll_no</text>
<text text-anchor="start" x="8" y="-48.5" font-family="Helvetica,sans-Serif" font-size="10.00">+ marks_phys</text>
<text text-anchor="start" x="8" y="-37.5" font-family="Helvetica,sans-Serif" font-size="10.00">+ marks_chem</text>
<text text-anchor="start" x="8" y="-26.5" font-family="Helvetica,sans-Serif" font-size="10.00">+ marks_maths</text>
<polyline fill="none" stroke="black" points="0,-19.5 85,-19.5 "/>
<text text-anchor="middle" x="42.5" y="-7.5" font-family="Helvetica,sans-Serif" font-size="10.00"> </text>
</a>
</g>
</g>
<!-- Node1&#45;&gt;Node1 -->
<g id="edge1" class="edge">
<title>Node1&#45;&gt;Node1</title>
<path fill="none" stroke="#404040" d="M85.18,-69.42C95.42,-67.98 103,-61.84 103,-51 103,-44.9 100.6,-40.29 96.68,-37.17"/>
<polygon fill="none" stroke="#404040" points="96.33,-37.03 89.27,-38.52 85.18,-32.58 92.24,-31.09 96.33,-37.03"/>
<text text-anchor="middle" x="117" y="-48.5" font-family="Helvetica,sans-Serif" font-size="10.00"> +next</text>
</g>
</g>
</svg>
