<?xml version="1.0" encoding="UTF-8" standalone="no"?>
<!DOCTYPE svg PUBLIC "-//W3C//DTD SVG 1.1//EN"
 "http://www.w3.org/Graphics/SVG/1.1/DTD/svg11.dtd">
<!-- Generated by graphviz version 2.43.0 (0)
 -->
<!-- Title: vm_page_family_ Pages: 1 -->
<svg width="291pt" height="309pt"
 viewBox="0.00 0.00 290.50 309.00" xmlns="http://www.w3.org/2000/svg" xmlns:xlink="http://www.w3.org/1999/xlink">
<g id="graph0" class="graph" transform="scale(1 1) rotate(0) translate(4 305)">
<title>vm_page_family_</title>
<polygon fill="white" stroke="transparent" points="-4,4 -4,-305 286.5,-305 286.5,4 -4,4"/>
<!-- Node1 -->
<g id="node1" class="node">
<title>Node1</title>
<g id="a_node1"><a xlink:title="Structure representing a page family in virtual memory.">
<polygon fill="#bfbfbf" stroke="black" points="0,-111 0,-179 93,-179 93,-111 0,-111"/>
<text text-anchor="middle" x="46.5" y="-167" font-family="Helvetica,sans-Serif" font-size="10.00">vm_page_family_</text>
<polyline fill="none" stroke="black" points="0,-160 93,-160 "/>
<text text-anchor="start" x="8" y="-148" font-family="Helvetica,sans-Serif" font-size="10.00">+ struct_name</text>
<text text-anchor="start" x="8" y="-137" font-family="Helvetica,sans-Serif" font-size="10.00">+ struct_size</text>
<polyline fill="none" stroke="black" points="0,-130 93,-130 "/>
<text text-anchor="middle" x="46.5" y="-118" font-family="Helvetica,sans-Serif" font-size="10.00"> </text>
</a>
</g>
</g>
<!-- Node3 -->
<g id="node3" class="node">
<title>Node3</title>
<g id="a_node3"><a xlink:href="structvm__page__.html" target="_top" xlink:title="Structure representing a virtual memory page.">
<polygon fill="white" stroke="black" points="41,-0.5 41,-57.5 128,-57.5 128,-0.5 41,-0.5"/>
<text text-anchor="middle" x="84.5" y="-45.5" font-family="Helvetica,sans-Serif" font-size="10.00">vm_page_</text>
<polyline fill="none" stroke="black" points="41,-38.5 128,-38.5 "/>
<text text-anchor="start" x="49" y="-26.5" font-family="Helvetica,sans-Serif" font-size="10.00">+ page_memory</text>
<polyline fill="none" stroke="black" points="41,-19.5 128,-19.5 "/>
<text text-anchor="middle" x="84.5" y="-7.5" font-family="Helvetica,sans-Serif" font-size="10.00"> </text>
</a>
</g>
</g>
<!-- Node1&#45;&gt;Node3 -->
<g id="edge4" class="edge">
<title>Node1&#45;&gt;Node3</title>
<path fill="none" stroke="#404040" d="M13.82,-110.71C6.83,-99.64 3.2,-87.26 9.5,-76 14.54,-66.99 22.14,-59.54 30.61,-53.44"/>
<polygon fill="none" stroke="#404040" points="30.73,-53.36 33.63,-46.76 40.84,-46.9 37.94,-53.5 30.73,-53.36"/>
<text text-anchor="middle" x="35.5" y="-79" font-family="Helvetica,sans-Serif" font-size="10.00"> +pg_family</text>
</g>
<!-- Node2 -->
<g id="node2" class="node">
<title>Node2</title>
<g id="a_node2"><a xlink:href="structglthread__.html" target="_top" xlink:title="Structure representing a generic linked list node for threaded linking.">
<polygon fill="white" stroke="black" points="74.5,-243.5 74.5,-300.5 130.5,-300.5 130.5,-243.5 74.5,-243.5"/>
<text text-anchor="middle" x="102.5" y="-288.5" font-family="Helvetica,sans-Serif" font-size="10.00">glthread_</text>
<polyline fill="none" stroke="black" points="74.5,-281.5 130.5,-281.5 "/>
<text text-anchor="middle" x="102.5" y="-269.5" font-family="Helvetica,sans-Serif" font-size="10.00"> </text>
<polyline fill="none" stroke="black" points="74.5,-262.5 130.5,-262.5 "/>
<text text-anchor="middle" x="102.5" y="-250.5" font-family="Helvetica,sans-Serif" font-size="10.00"> </text>
</a>
</g>
</g>
<!-- Node2&#45;&gt;Node1 -->
<g id="edge1" class="edge">
<title>Node2&#45;&gt;Node1</title>
<path fill="none" stroke="#404040" d="M74.39,-254.83C63.96,-247.23 53.27,-237.14 47.5,-225 42.62,-214.72 40.79,-202.8 40.56,-191.39"/>
<polygon fill="none" stroke="#404040" points="40.56,-191.3 36.71,-185.2 40.86,-179.31 44.71,-185.4 40.56,-191.3"/>
<text text-anchor="start" x="47.5" y="-217" font-family="Helvetica,sans-Serif" font-size="10.00"> +free_block_priority</text>
<text text-anchor="middle" x="92" y="-206" font-family="Helvetica,sans-Serif" font-size="10.00">_list_head</text>
</g>
<!-- Node2&#45;&gt;Node2 -->
<g id="edge2" class="edge">
<title>Node2&#45;&gt;Node2</title>
<path fill="none" stroke="#404040" d="M130.8,-282.87C140.59,-282.99 148.5,-279.36 148.5,-272 148.5,-268.09 146.27,-265.23 142.71,-263.43"/>
<polygon fill="none" stroke="#404040" points="142.58,-263.41 135.93,-266.19 130.8,-261.13 137.45,-258.34 142.58,-263.41"/>
<text text-anchor="middle" x="161" y="-275" font-family="Helvetica,sans-Serif" font-size="10.00"> +left</text>
<text text-anchor="middle" x="161" y="-264" font-family="Helvetica,sans-Serif" font-size="10.00">+right</text>
</g>
<!-- Node4 -->
<g id="node4" class="node">
<title>Node4</title>
<g id="a_node4"><a xlink:href="structblock__meta__data__.html" target="_top" xlink:title="Structure representing metadata for a memory block.">
<polygon fill="white" stroke="black" points="111.5,-105.5 111.5,-184.5 207.5,-184.5 207.5,-105.5 111.5,-105.5"/>
<text text-anchor="middle" x="159.5" y="-172.5" font-family="Helvetica,sans-Serif" font-size="10.00">block_meta_data_</text>
<polyline fill="none" stroke="black" points="111.5,-165.5 207.5,-165.5 "/>
<text text-anchor="start" x="119.5" y="-153.5" font-family="Helvetica,sans-Serif" font-size="10.00">+ is_free</text>
<text text-anchor="start" x="119.5" y="-142.5" font-family="Helvetica,sans-Serif" font-size="10.00">+ block_size</text>
<text text-anchor="start" x="119.5" y="-131.5" font-family="Helvetica,sans-Serif" font-size="10.00">+ offset</text>
<polyline fill="none" stroke="black" points="111.5,-124.5 207.5,-124.5 "/>
<text text-anchor="middle" x="159.5" y="-112.5" font-family="Helvetica,sans-Serif" font-size="10.00"> </text>
</a>
</g>
</g>
<!-- Node2&#45;&gt;Node4 -->
<g id="edge7" class="edge">
<title>Node2&#45;&gt;Node4</title>
<path fill="none" stroke="#404040" d="M125.38,-243.3C129.47,-237.49 133.41,-231.23 136.5,-225 140.92,-216.08 144.63,-206.17 147.7,-196.46"/>
<polygon fill="none" stroke="#404040" points="147.75,-196.31 145.6,-189.43 151.13,-184.8 153.28,-191.68 147.75,-196.31"/>
<text text-anchor="middle" x="192.5" y="-211.5" font-family="Helvetica,sans-Serif" font-size="10.00"> +priority_thread_glue</text>
</g>
<!-- Node3&#45;&gt;Node1 -->
<g id="edge3" class="edge">
<title>Node3&#45;&gt;Node1</title>
<path fill="none" stroke="#404040" d="M75.25,-57.74C71.09,-70.22 66.08,-85.27 61.41,-99.28"/>
<polygon fill="none" stroke="#404040" points="61.39,-99.34 63.29,-106.29 57.59,-110.72 55.7,-103.76 61.39,-99.34"/>
<text text-anchor="middle" x="95.5" y="-79" font-family="Helvetica,sans-Serif" font-size="10.00"> +first_page</text>
</g>
<!-- Node3&#45;&gt;Node3 -->
<g id="edge5" class="edge">
<title>Node3&#45;&gt;Node3</title>
<path fill="none" stroke="#404040" d="M128.17,-38.56C138.43,-37.77 146,-34.59 146,-29 146,-25.95 143.74,-23.61 140.01,-21.99"/>
<polygon fill="none" stroke="#404040" points="139.9,-21.97 133.19,-24.62 128.17,-19.44 134.88,-16.79 139.9,-21.97"/>
<text text-anchor="middle" x="160" y="-32" font-family="Helvetica,sans-Serif" font-size="10.00"> +next</text>
<text text-anchor="middle" x="160" y="-21" font-family="Helvetica,sans-Serif" font-size="10.00">+prev</text>
</g>
<!-- Node4&#45;&gt;Node3 -->
<g id="edge6" class="edge">
<title>Node4&#45;&gt;Node3</title>
<path fill="none" stroke="#404040" d="M142.33,-105.23C137.38,-95.4 131.65,-85.07 125.5,-76 123.53,-73.09 121.39,-70.18 119.16,-67.3"/>
<polygon fill="none" stroke="#404040" points="118.93,-67.03 112.04,-64.92 111.32,-57.75 118.22,-59.85 118.93,-67.03"/>
<text text-anchor="middle" x="174.5" y="-79" font-family="Helvetica,sans-Serif" font-size="10.00"> +block_meta_data</text>
</g>
<!-- Node4&#45;&gt;Node4 -->
<g id="edge8" class="edge">
<title>Node4&#45;&gt;Node4</title>
<path fill="none" stroke="#404040" d="M207.55,-156.28C217.96,-155.18 225.5,-151.42 225.5,-145 225.5,-141.49 223.24,-138.78 219.5,-136.85"/>
<polygon fill="none" stroke="#404040" points="219.16,-136.77 212.34,-139.11 207.55,-133.72 214.37,-131.37 219.16,-136.77"/>
<text text-anchor="middle" x="254" y="-148" font-family="Helvetica,sans-Serif" font-size="10.00"> +next_block</text>
<text text-anchor="middle" x="254" y="-137" font-family="Helvetica,sans-Serif" font-size="10.00">+prev_block</text>
</g>
</g>
</svg>
