<?xml version="1.0" encoding="UTF-8" standalone="no"?>
<!DOCTYPE svg PUBLIC "-//W3C//DTD SVG 1.1//EN"
 "http://www.w3.org/Graphics/SVG/1.1/DTD/svg11.dtd">
<!-- Generated by graphviz version 2.43.0 (0)
 -->
<!-- Title: glthread_ Pages: 1 -->
<svg width="107pt" height="66pt"
 viewBox="0.00 0.00 107.00 66.00" xmlns="http://www.w3.org/2000/svg" xmlns:xlink="http://www.w3.org/1999/xlink">
<g id="graph0" class="graph" transform="scale(1 1) rotate(0) translate(4 62)">
<title>glthread_</title>
<polygon fill="white" stroke="transparent" points="-4,4 -4,-62 103,-62 103,4 -4,4"/>
<!-- Node1 -->
<g id="node1" class="node">
<title>Node1</title>
<g id="a_node1"><a xlink:title="Structure representing a generic linked list node for threaded linking.">
<polygon fill="#bfbfbf" stroke="black" points="0,-0.5 0,-57.5 56,-57.5 56,-0.5 0,-0.5"/>
<text text-anchor="middle" x="28" y="-45.5" font-family="Helvetica,sans-Serif" font-size="10.00">glthread_</text>
<polyline fill="none" stroke="black" points="0,-38.5 56,-38.5 "/>
<text text-anchor="middle" x="28" y="-26.5" font-family="Helvetica,sans-Serif" font-size="10.00"> </text>
<polyline fill="none" stroke="black" points="0,-19.5 56,-19.5 "/>
<text text-anchor="middle" x="28" y="-7.5" font-family="Helvetica,sans-Serif" font-size="10.00"> </text>
</a>
</g>
</g>
<!-- Node1&#45;&gt;Node1 -->
<g id="edge1" class="edge">
<title>Node1&#45;&gt;Node1</title>
<path fill="none" stroke="#404040" d="M56.3,-39.5C66.09,-39.61 74,-36.11 74,-29 74,-25.22 71.77,-22.47 68.21,-20.73"/>
<polygon fill="none" stroke="#404040" points="68.1,-20.71 61.46,-23.54 56.3,-18.5 62.93,-15.67 68.1,-20.71"/>
<text text-anchor="middle" x="86.5" y="-32" font-family="Helvetica,sans-Serif" font-size="10.00"> +left</text>
<text text-anchor="middle" x="86.5" y="-21" font-family="Helvetica,sans-Serif" font-size="10.00">+right</text>
</g>
</g>
</svg>
