<?xml version="1.0" encoding="UTF-8" standalone="no"?>
<!DOCTYPE svg PUBLIC "-//W3C//DTD SVG 1.1//EN"
 "http://www.w3.org/Graphics/SVG/1.1/DTD/svg11.dtd">
<!-- Generated by graphviz version 2.43.0 (0)
 -->
<!-- Title: src/datatype_size_lookup.c Pages: 1 -->
<svg width="192pt" height="140pt"
 viewBox="0.00 0.00 191.50 140.00" xmlns="http://www.w3.org/2000/svg" xmlns:xlink="http://www.w3.org/1999/xlink">
<g id="graph0" class="graph" transform="scale(1 1) rotate(0) translate(4 136)">
<title>src/datatype_size_lookup.c</title>
<polygon fill="white" stroke="transparent" points="-4,4 -4,-136 187.5,-136 187.5,4 -4,4"/>
<!-- Node1 -->
<g id="node1" class="node">
<title>Node1</title>
<g id="a_node1"><a xlink:title="Implementation file for data type size lookup functionality.">
<polygon fill="#bfbfbf" stroke="black" points="25,-112.5 25,-131.5 161,-131.5 161,-112.5 25,-112.5"/>
<text text-anchor="middle" x="93" y="-119.5" font-family="Helvetica,sans-Serif" font-size="10.00">src/datatype_size_lookup.c</text>
</a>
</g>
</g>
<!-- Node2 -->
<g id="node2" class="node">
<title>Node2</title>
<g id="a_node2"><a xlink:href="datatype__size__lookup_8h.html" target="_top" xlink:title="Header file for data type size lookup functionality and mappings.">
<polygon fill="white" stroke="black" points="33.5,-56.5 33.5,-75.5 152.5,-75.5 152.5,-56.5 33.5,-56.5"/>
<text text-anchor="middle" x="93" y="-63.5" font-family="Helvetica,sans-Serif" font-size="10.00">datatype_size_lookup.h</text>
</a>
</g>
</g>
<!-- Node1&#45;&gt;Node2 -->
<g id="edge1" class="edge">
<title>Node1&#45;&gt;Node2</title>
<path fill="none" stroke="midnightblue" d="M93,-112.08C93,-105.01 93,-94.86 93,-85.99"/>
<polygon fill="midnightblue" stroke="midnightblue" points="96.5,-85.75 93,-75.75 89.5,-85.75 96.5,-85.75"/>
</g>
<!-- Node3 -->
<g id="node3" class="node">
<title>Node3</title>
<g id="a_node3"><a xlink:title=" ">
<polygon fill="white" stroke="#bfbfbf" points="0,-0.5 0,-19.5 52,-19.5 52,-0.5 0,-0.5"/>
<text text-anchor="middle" x="26" y="-7.5" font-family="Helvetica,sans-Serif" font-size="10.00">stddef.h</text>
</a>
</g>
</g>
<!-- Node2&#45;&gt;Node3 -->
<g id="edge2" class="edge">
<title>Node2&#45;&gt;Node3</title>
<path fill="none" stroke="midnightblue" d="M82.24,-56.32C72.23,-48.26 57.11,-36.08 45.07,-26.37"/>
<polygon fill="midnightblue" stroke="midnightblue" points="46.94,-23.38 36.96,-19.83 42.55,-28.83 46.94,-23.38"/>
</g>
<!-- Node4 -->
<g id="node4" class="node">
<title>Node4</title>
<g id="a_node4"><a xlink:title=" ">
<polygon fill="white" stroke="#bfbfbf" points="70,-0.5 70,-19.5 116,-19.5 116,-0.5 70,-0.5"/>
<text text-anchor="middle" x="93" y="-7.5" font-family="Helvetica,sans-Serif" font-size="10.00">stdio.h</text>
</a>
</g>
</g>
<!-- Node2&#45;&gt;Node4 -->
<g id="edge3" class="edge">
<title>Node2&#45;&gt;Node4</title>
<path fill="none" stroke="midnightblue" d="M93,-56.08C93,-49.01 93,-38.86 93,-29.99"/>
<polygon fill="midnightblue" stroke="midnightblue" points="96.5,-29.75 93,-19.75 89.5,-29.75 96.5,-29.75"/>
</g>
<!-- Node5 -->
<g id="node5" class="node">
<title>Node5</title>
<g id="a_node5"><a xlink:title=" ">
<polygon fill="white" stroke="#bfbfbf" points="134.5,-0.5 134.5,-19.5 183.5,-19.5 183.5,-0.5 134.5,-0.5"/>
<text text-anchor="middle" x="159" y="-7.5" font-family="Helvetica,sans-Serif" font-size="10.00">string.h</text>
</a>
</g>
</g>
<!-- Node2&#45;&gt;Node5 -->
<g id="edge4" class="edge">
<title>Node2&#45;&gt;Node5</title>
<path fill="none" stroke="midnightblue" d="M103.6,-56.32C113.46,-48.26 128.35,-36.08 140.22,-26.37"/>
<polygon fill="midnightblue" stroke="midnightblue" points="142.68,-28.88 148.2,-19.83 138.25,-23.46 142.68,-28.88"/>
</g>
</g>
</svg>
