<?xml version="1.0" encoding="UTF-8" standalone="no"?>
<!DOCTYPE svg PUBLIC "-//W3C//DTD SVG 1.1//EN"
 "http://www.w3.org/Graphics/SVG/1.1/DTD/svg11.dtd">
<!-- Generated by graphviz version 2.43.0 (0)
 -->
<!-- Title: src/glthread.c Pages: 1 -->
<svg width="134pt" height="84pt"
 viewBox="0.00 0.00 133.50 84.00" xmlns="http://www.w3.org/2000/svg" xmlns:xlink="http://www.w3.org/1999/xlink">
<g id="graph0" class="graph" transform="scale(1 1) rotate(0) translate(4 80)">
<title>src/glthread.c</title>
<polygon fill="white" stroke="transparent" points="-4,4 -4,-80 129.5,-80 129.5,4 -4,4"/>
<!-- Node1 -->
<g id="node1" class="node">
<title>Node1</title>
<g id="a_node1"><a xlink:title="Implementation file for the Generic Linked List Thread library.">
<polygon fill="#bfbfbf" stroke="black" points="22,-56.5 22,-75.5 98,-75.5 98,-56.5 22,-56.5"/>
<text text-anchor="middle" x="60" y="-63.5" font-family="Helvetica,sans-Serif" font-size="10.00">src/glthread.c</text>
</a>
</g>
</g>
<!-- Node2 -->
<g id="node2" class="node">
<title>Node2</title>
<g id="a_node2"><a xlink:title=" ">
<polygon fill="white" stroke="#bfbfbf" points="0,-0.5 0,-19.5 48,-19.5 48,-0.5 0,-0.5"/>
<text text-anchor="middle" x="24" y="-7.5" font-family="Helvetica,sans-Serif" font-size="10.00">stdlib.h</text>
</a>
</g>
</g>
<!-- Node1&#45;&gt;Node2 -->
<g id="edge1" class="edge">
<title>Node1&#45;&gt;Node2</title>
<path fill="none" stroke="midnightblue" d="M54.06,-56.08C49.02,-48.53 41.66,-37.49 35.49,-28.23"/>
<polygon fill="midnightblue" stroke="midnightblue" points="38.29,-26.13 29.83,-19.75 32.47,-30.01 38.29,-26.13"/>
</g>
<!-- Node3 -->
<g id="node3" class="node">
<title>Node3</title>
<g id="a_node3"><a xlink:href="glthread_8h.html" target="_top" xlink:title="Header file for the Generic Linked List Thread library.">
<polygon fill="white" stroke="black" points="66.5,-0.5 66.5,-19.5 125.5,-19.5 125.5,-0.5 66.5,-0.5"/>
<text text-anchor="middle" x="96" y="-7.5" font-family="Helvetica,sans-Serif" font-size="10.00">glthread.h</text>
</a>
</g>
</g>
<!-- Node1&#45;&gt;Node3 -->
<g id="edge2" class="edge">
<title>Node1&#45;&gt;Node3</title>
<path fill="none" stroke="midnightblue" d="M65.94,-56.08C70.98,-48.53 78.34,-37.49 84.51,-28.23"/>
<polygon fill="midnightblue" stroke="midnightblue" points="87.53,-30.01 90.17,-19.75 81.71,-26.13 87.53,-30.01"/>
</g>
</g>
</svg>
