<?xml version="1.0" encoding="UTF-8" standalone="no"?>
<!DOCTYPE svg PUBLIC "-//W3C//DTD SVG 1.1//EN"
 "http://www.w3.org/Graphics/SVG/1.1/DTD/svg11.dtd">
<!-- Generated by graphviz version 2.43.0 (0)
 -->
<!-- Title: glthread_add_next Pages: 1 -->
<svg width="830pt" height="116pt"
 viewBox="0.00 0.00 830.00 116.00" xmlns="http://www.w3.org/2000/svg" xmlns:xlink="http://www.w3.org/1999/xlink">
<g id="graph0" class="graph" transform="scale(1 1) rotate(0) translate(4 112)">
<title>glthread_add_next</title>
<polygon fill="white" stroke="transparent" points="-4,4 -4,-112 826,-112 826,4 -4,4"/>
<!-- Node1 -->
<g id="node1" class="node">
<title>Node1</title>
<g id="a_node1"><a xlink:title="Adds a new node after the specified current node in the threaded linked list.">
<polygon fill="#bfbfbf" stroke="black" points="726,-63.5 726,-82.5 822,-82.5 822,-63.5 726,-63.5"/>
<text text-anchor="middle" x="774" y="-70.5" font-family="Helvetica,sans-Serif" font-size="10.00">glthread_add_next</text>
</a>
</g>
</g>
<!-- Node2 -->
<g id="node2" class="node">
<title>Node2</title>
<g id="a_node2"><a xlink:href="glthread_8h.html#aa9ff7634d580d992d01f4804c8fc83f4" target="_top" xlink:title="Add a new glthread_t structure at the last position of a linked list.">
<polygon fill="white" stroke="black" points="586,-82.5 586,-101.5 679,-101.5 679,-82.5 586,-82.5"/>
<text text-anchor="middle" x="632.5" y="-89.5" font-family="Helvetica,sans-Serif" font-size="10.00">glthread_add_last</text>
</a>
</g>
</g>
<!-- Node1&#45;&gt;Node2 -->
<g id="edge1" class="edge">
<title>Node1&#45;&gt;Node2</title>
<path fill="none" stroke="midnightblue" d="M715.73,-80.8C703.58,-82.46 690.91,-84.18 679.26,-85.77"/>
<polygon fill="midnightblue" stroke="midnightblue" points="716.34,-84.25 725.77,-79.43 715.39,-77.31 716.34,-84.25"/>
</g>
<!-- Node3 -->
<g id="node3" class="node">
<title>Node3</title>
<g id="a_node3"><a xlink:href="glthread_8h.html#a2f6336d160a55d3adecb11dace34152a" target="_top" xlink:title="Insert a glthread_t structure into a sorted linked list based on priority.">
<polygon fill="white" stroke="black" points="575,-44.5 575,-63.5 690,-63.5 690,-44.5 575,-44.5"/>
<text text-anchor="middle" x="632.5" y="-51.5" font-family="Helvetica,sans-Serif" font-size="10.00">glthread_priority_insert</text>
</a>
</g>
</g>
<!-- Node1&#45;&gt;Node3 -->
<g id="edge2" class="edge">
<title>Node1&#45;&gt;Node3</title>
<path fill="none" stroke="midnightblue" d="M715.71,-65.2C707.33,-64.06 698.71,-62.88 690.34,-61.74"/>
<polygon fill="midnightblue" stroke="midnightblue" points="715.39,-68.69 725.77,-66.57 716.34,-61.75 715.39,-68.69"/>
</g>
<!-- Node4 -->
<g id="node4" class="node">
<title>Node4</title>
<g id="a_node4"><a xlink:href="memory__manager_8c.html#aa72156192006fd76902b0616def7db4d" target="_top" xlink:title=" ">
<polygon fill="white" stroke="black" points="408,-39 408,-69 539,-69 539,-39 408,-39"/>
<text text-anchor="start" x="416" y="-57" font-family="Helvetica,sans-Serif" font-size="10.00">mm_add_free_block_meta</text>
<text text-anchor="middle" x="473.5" y="-46" font-family="Helvetica,sans-Serif" font-size="10.00">_data_to_free_block_list</text>
</a>
</g>
</g>
<!-- Node3&#45;&gt;Node4 -->
<g id="edge3" class="edge">
<title>Node3&#45;&gt;Node4</title>
<path fill="none" stroke="midnightblue" d="M564.62,-54C556.16,-54 547.52,-54 539.09,-54"/>
<polygon fill="midnightblue" stroke="midnightblue" points="564.82,-57.5 574.82,-54 564.82,-50.5 564.82,-57.5"/>
</g>
<!-- Node5 -->
<g id="node5" class="node">
<title>Node5</title>
<g id="a_node5"><a xlink:href="memory__manager_8c.html#a617a6a57117c09b033035922950095ee" target="_top" xlink:title=" ">
<polygon fill="white" stroke="black" points="237,-88.5 237,-107.5 372,-107.5 372,-88.5 237,-88.5"/>
<text text-anchor="middle" x="304.5" y="-95.5" font-family="Helvetica,sans-Serif" font-size="10.00">mm_family_new_page_add</text>
</a>
</g>
</g>
<!-- Node4&#45;&gt;Node5 -->
<g id="edge4" class="edge">
<title>Node4&#45;&gt;Node5</title>
<path fill="none" stroke="midnightblue" d="M405.63,-71.62C383.86,-77.35 360.52,-83.5 341.85,-88.42"/>
<polygon fill="midnightblue" stroke="midnightblue" points="406.72,-74.95 415.5,-69.02 404.93,-68.18 406.72,-74.95"/>
</g>
<!-- Node8 -->
<g id="node8" class="node">
<title>Node8</title>
<g id="a_node8"><a xlink:href="memory__manager_8c.html#aa1a17c04f785d5504f86d5c3cebb68d8" target="_top" xlink:title=" ">
<polygon fill="white" stroke="black" points="260,-0.5 260,-19.5 349,-19.5 349,-0.5 260,-0.5"/>
<text text-anchor="middle" x="304.5" y="-7.5" font-family="Helvetica,sans-Serif" font-size="10.00">mm_free_blocks</text>
</a>
</g>
</g>
<!-- Node4&#45;&gt;Node8 -->
<g id="edge7" class="edge">
<title>Node4&#45;&gt;Node8</title>
<path fill="none" stroke="midnightblue" d="M405.63,-36.38C383.86,-30.65 360.52,-24.5 341.85,-19.58"/>
<polygon fill="midnightblue" stroke="midnightblue" points="404.93,-39.82 415.5,-38.98 406.72,-33.05 404.93,-39.82"/>
</g>
<!-- Node10 -->
<g id="node10" class="node">
<title>Node10</title>
<g id="a_node10"><a xlink:href="memory__manager_8c.html#ab335253cb154c4adb2beb3cea638fb3c" target="_top" xlink:title=" ">
<polygon fill="white" stroke="black" points="250.5,-39 250.5,-69 358.5,-69 358.5,-39 250.5,-39"/>
<text text-anchor="start" x="258.5" y="-57" font-family="Helvetica,sans-Serif" font-size="10.00">mm_split_free_data</text>
<text text-anchor="middle" x="304.5" y="-46" font-family="Helvetica,sans-Serif" font-size="10.00">_block_for_allocation</text>
</a>
</g>
</g>
<!-- Node4&#45;&gt;Node10 -->
<g id="edge9" class="edge">
<title>Node4&#45;&gt;Node10</title>
<path fill="none" stroke="midnightblue" d="M397.87,-54C384.61,-54 371.05,-54 358.54,-54"/>
<polygon fill="midnightblue" stroke="midnightblue" points="397.93,-57.5 407.93,-54 397.93,-50.5 397.93,-57.5"/>
</g>
<!-- Node6 -->
<g id="node6" class="node">
<title>Node6</title>
<g id="a_node6"><a xlink:href="memory__manager_8c.html#a2eb03d198590833c575a105c856ecfbb" target="_top" xlink:title=" ">
<polygon fill="white" stroke="black" points="83,-61 83,-91 201,-91 201,-61 83,-61"/>
<text text-anchor="start" x="91" y="-79" font-family="Helvetica,sans-Serif" font-size="10.00">mm_allocate_free_data</text>
<text text-anchor="middle" x="142" y="-68" font-family="Helvetica,sans-Serif" font-size="10.00">_block</text>
</a>
</g>
</g>
<!-- Node5&#45;&gt;Node6 -->
<g id="edge5" class="edge">
<title>Node5&#45;&gt;Node6</title>
<path fill="none" stroke="midnightblue" d="M226.73,-87.48C218.08,-86.29 209.38,-85.1 201.03,-83.95"/>
<polygon fill="midnightblue" stroke="midnightblue" points="226.45,-90.97 236.83,-88.86 227.4,-84.04 226.45,-90.97"/>
</g>
<!-- Node7 -->
<g id="node7" class="node">
<title>Node7</title>
<g id="a_node7"><a xlink:href="memory__manager__api_8h.html#a22486940fff22d18c1c65122b4b5235f" target="_top" xlink:title="Allocates and initializes memory for an array of structures.">
<polygon fill="white" stroke="black" points="0,-66.5 0,-85.5 47,-85.5 47,-66.5 0,-66.5"/>
<text text-anchor="middle" x="23.5" y="-73.5" font-family="Helvetica,sans-Serif" font-size="10.00">xcalloc</text>
</a>
</g>
</g>
<!-- Node6&#45;&gt;Node7 -->
<g id="edge6" class="edge">
<title>Node6&#45;&gt;Node7</title>
<path fill="none" stroke="midnightblue" d="M72.73,-76C63.58,-76 54.77,-76 47.24,-76"/>
<polygon fill="midnightblue" stroke="midnightblue" points="72.75,-79.5 82.75,-76 72.75,-72.5 72.75,-79.5"/>
</g>
<!-- Node9 -->
<g id="node9" class="node">
<title>Node9</title>
<g id="a_node9"><a xlink:href="memory__manager__api_8h.html#ae075bb556abb4342aedf495ddb8d390a" target="_top" xlink:title="Frees memory allocated by the memory manager.">
<polygon fill="white" stroke="black" points="123,-0.5 123,-19.5 161,-19.5 161,-0.5 123,-0.5"/>
<text text-anchor="middle" x="142" y="-7.5" font-family="Helvetica,sans-Serif" font-size="10.00">xfree</text>
</a>
</g>
</g>
<!-- Node8&#45;&gt;Node9 -->
<g id="edge8" class="edge">
<title>Node8&#45;&gt;Node9</title>
<path fill="none" stroke="midnightblue" d="M249.52,-10C218.95,-10 182.65,-10 161.29,-10"/>
<polygon fill="midnightblue" stroke="midnightblue" points="249.64,-13.5 259.64,-10 249.64,-6.5 249.64,-13.5"/>
</g>
<!-- Node10&#45;&gt;Node6 -->
<g id="edge10" class="edge">
<title>Node10&#45;&gt;Node6</title>
<path fill="none" stroke="midnightblue" d="M239.95,-62.71C227.16,-64.46 213.78,-66.3 201.18,-68.03"/>
<polygon fill="midnightblue" stroke="midnightblue" points="240.62,-66.15 250.06,-61.33 239.67,-59.22 240.62,-66.15"/>
</g>
</g>
</svg>
