<?xml version="1.0" encoding="UTF-8" standalone="no"?>
<!DOCTYPE svg PUBLIC "-//W3C//DTD SVG 1.1//EN"
 "http://www.w3.org/Graphics/SVG/1.1/DTD/svg11.dtd">
<!-- Generated by graphviz version 2.43.0 (0)
 -->
<!-- Title: mm_instantiate_new_page_family Pages: 1 -->
<svg width="271pt" height="127pt"
 viewBox="0.00 0.00 271.00 126.50" xmlns="http://www.w3.org/2000/svg" xmlns:xlink="http://www.w3.org/1999/xlink">
<g id="graph0" class="graph" transform="scale(1 1) rotate(0) translate(4 122.5)">
<title>mm_instantiate_new_page_family</title>
<polygon fill="white" stroke="transparent" points="-4,4 -4,-122.5 267,-122.5 267,4 -4,4"/>
<!-- Node1 -->
<g id="node1" class="node">
<title>Node1</title>
<g id="a_node1"><a xlink:title="Instantiates a new page family for a memory structure.">
<polygon fill="#bfbfbf" stroke="black" points="0,-49.5 0,-79.5 107,-79.5 107,-49.5 0,-49.5"/>
<text text-anchor="start" x="8" y="-67.5" font-family="Helvetica,sans-Serif" font-size="10.00">mm_instantiate_new</text>
<text text-anchor="middle" x="53.5" y="-56.5" font-family="Helvetica,sans-Serif" font-size="10.00">_page_family</text>
</a>
</g>
</g>
<!-- Node2 -->
<g id="node2" class="node">
<title>Node2</title>
<g id="a_node2"><a xlink:href="glthread_8h.html#a9e4b763220b1c69da2d9e9f191506f89" target="_top" xlink:title="Initialize a glthread_t structure.">
<polygon fill="white" stroke="black" points="168.5,-99 168.5,-118 237.5,-118 237.5,-99 168.5,-99"/>
<text text-anchor="middle" x="203" y="-106" font-family="Helvetica,sans-Serif" font-size="10.00">init_glthread</text>
</a>
</g>
</g>
<!-- Node1&#45;&gt;Node2 -->
<g id="edge1" class="edge">
<title>Node1&#45;&gt;Node2</title>
<path fill="none" stroke="midnightblue" d="M104.85,-79.52C122.85,-84.89 142.92,-90.88 160.13,-96.01"/>
<polygon fill="midnightblue" stroke="midnightblue" points="159.31,-99.42 169.89,-98.92 161.31,-92.71 159.31,-99.42"/>
</g>
<!-- Node3 -->
<g id="node3" class="node">
<title>Node3</title>
<g id="a_node3"><a xlink:href="memory__manager_8c.html#a64d262ebef165f5249f21946be39c80e" target="_top" xlink:title="Looks up a page family by its name.">
<polygon fill="white" stroke="black" points="151.5,-49.5 151.5,-79.5 254.5,-79.5 254.5,-49.5 151.5,-49.5"/>
<text text-anchor="start" x="159.5" y="-67.5" font-family="Helvetica,sans-Serif" font-size="10.00">lookup_page_family</text>
<text text-anchor="middle" x="203" y="-56.5" font-family="Helvetica,sans-Serif" font-size="10.00">_by_name</text>
</a>
</g>
</g>
<!-- Node1&#45;&gt;Node3 -->
<g id="edge2" class="edge">
<title>Node1&#45;&gt;Node3</title>
<path fill="none" stroke="midnightblue" d="M107.33,-64.5C118.22,-64.5 129.77,-64.5 140.92,-64.5"/>
<polygon fill="midnightblue" stroke="midnightblue" points="141.02,-68 151.02,-64.5 141.02,-61 141.02,-68"/>
</g>
<!-- Node4 -->
<g id="node4" class="node">
<title>Node4</title>
<g id="a_node4"><a xlink:href="memory__manager_8c.html#a52375cf39c67eb0c135c12eb38ddf66f" target="_top" xlink:title=" ">
<polygon fill="white" stroke="black" points="143,-0.5 143,-30.5 263,-30.5 263,-0.5 143,-0.5"/>
<text text-anchor="start" x="151" y="-18.5" font-family="Helvetica,sans-Serif" font-size="10.00">mm_get_new_vm_page</text>
<text text-anchor="middle" x="203" y="-7.5" font-family="Helvetica,sans-Serif" font-size="10.00">_from_kernel</text>
</a>
</g>
</g>
<!-- Node1&#45;&gt;Node4 -->
<g id="edge3" class="edge">
<title>Node1&#45;&gt;Node4</title>
<path fill="none" stroke="midnightblue" d="M99.96,-49.4C114.89,-44.44 131.64,-38.87 147.19,-33.71"/>
<polygon fill="midnightblue" stroke="midnightblue" points="148.31,-37.03 156.69,-30.55 146.1,-30.38 148.31,-37.03"/>
</g>
</g>
</svg>
