<?xml version="1.0" encoding="UTF-8" standalone="no"?>
<!DOCTYPE svg PUBLIC "-//W3C//DTD SVG 1.1//EN"
 "http://www.w3.org/Graphics/SVG/1.1/DTD/svg11.dtd">
<!-- Generated by graphviz version 2.43.0 (0)
 -->
<!-- Title: mm_get_new_vm_page_from_kernel Pages: 1 -->
<svg width="667pt" height="83pt"
 viewBox="0.00 0.00 667.00 83.00" xmlns="http://www.w3.org/2000/svg" xmlns:xlink="http://www.w3.org/1999/xlink">
<g id="graph0" class="graph" transform="scale(1 1) rotate(0) translate(4 79)">
<title>mm_get_new_vm_page_from_kernel</title>
<polygon fill="white" stroke="transparent" points="-4,4 -4,-79 663,-79 663,4 -4,4"/>
<!-- Node1 -->
<g id="node1" class="node">
<title>Node1</title>
<g id="a_node1"><a xlink:title=" ">
<polygon fill="#bfbfbf" stroke="black" points="539,-22.5 539,-52.5 659,-52.5 659,-22.5 539,-22.5"/>
<text text-anchor="start" x="547" y="-40.5" font-family="Helvetica,sans-Serif" font-size="10.00">mm_get_new_vm_page</text>
<text text-anchor="middle" x="599" y="-29.5" font-family="Helvetica,sans-Serif" font-size="10.00">_from_kernel</text>
</a>
</g>
</g>
<!-- Node2 -->
<g id="node2" class="node">
<title>Node2</title>
<g id="a_node2"><a xlink:href="memory__manager_8h.html#aebb395354ed1154e7b06212096990f52" target="_top" xlink:title="Allocates a new virtual memory page for a given page family.">
<polygon fill="white" stroke="black" points="408,-48 408,-67 503,-67 503,-48 408,-48"/>
<text text-anchor="middle" x="455.5" y="-55" font-family="Helvetica,sans-Serif" font-size="10.00">allocate_vm_page</text>
</a>
</g>
</g>
<!-- Node1&#45;&gt;Node2 -->
<g id="edge1" class="edge">
<title>Node1&#45;&gt;Node2</title>
<path fill="none" stroke="midnightblue" d="M528.77,-47.29C520.18,-48.5 511.55,-49.72 503.41,-50.87"/>
<polygon fill="midnightblue" stroke="midnightblue" points="529.4,-50.73 538.81,-45.87 528.42,-43.8 529.4,-50.73"/>
</g>
<!-- Node6 -->
<g id="node6" class="node">
<title>Node6</title>
<g id="a_node6"><a xlink:href="memory__manager__api_8h.html#a3ed96883ba6c4711318dbae3f5941bbf" target="_top" xlink:title="Instantiates a new page family for a memory structure.">
<polygon fill="white" stroke="black" points="251,-0.5 251,-30.5 358,-30.5 358,-0.5 251,-0.5"/>
<text text-anchor="start" x="259" y="-18.5" font-family="Helvetica,sans-Serif" font-size="10.00">mm_instantiate_new</text>
<text text-anchor="middle" x="304.5" y="-7.5" font-family="Helvetica,sans-Serif" font-size="10.00">_page_family</text>
</a>
</g>
</g>
<!-- Node1&#45;&gt;Node6 -->
<g id="edge5" class="edge">
<title>Node1&#45;&gt;Node6</title>
<path fill="none" stroke="midnightblue" d="M528.62,-32.28C476.39,-28.35 405.89,-23.05 358.22,-19.47"/>
<polygon fill="midnightblue" stroke="midnightblue" points="528.57,-35.79 538.81,-33.05 529.1,-28.81 528.57,-35.79"/>
</g>
<!-- Node3 -->
<g id="node3" class="node">
<title>Node3</title>
<g id="a_node3"><a xlink:href="memory__manager_8c.html#a617a6a57117c09b033035922950095ee" target="_top" xlink:title=" ">
<polygon fill="white" stroke="black" points="237,-50 237,-69 372,-69 372,-50 237,-50"/>
<text text-anchor="middle" x="304.5" y="-57" font-family="Helvetica,sans-Serif" font-size="10.00">mm_family_new_page_add</text>
</a>
</g>
</g>
<!-- Node2&#45;&gt;Node3 -->
<g id="edge2" class="edge">
<title>Node2&#45;&gt;Node3</title>
<path fill="none" stroke="midnightblue" d="M397.5,-58.27C389.25,-58.38 380.69,-58.49 372.26,-58.6"/>
<polygon fill="midnightblue" stroke="midnightblue" points="397.81,-61.76 407.76,-58.13 397.72,-54.76 397.81,-61.76"/>
</g>
<!-- Node4 -->
<g id="node4" class="node">
<title>Node4</title>
<g id="a_node4"><a xlink:href="memory__manager_8c.html#a2eb03d198590833c575a105c856ecfbb" target="_top" xlink:title=" ">
<polygon fill="white" stroke="black" points="83,-44.5 83,-74.5 201,-74.5 201,-44.5 83,-44.5"/>
<text text-anchor="start" x="91" y="-62.5" font-family="Helvetica,sans-Serif" font-size="10.00">mm_allocate_free_data</text>
<text text-anchor="middle" x="142" y="-51.5" font-family="Helvetica,sans-Serif" font-size="10.00">_block</text>
</a>
</g>
</g>
<!-- Node3&#45;&gt;Node4 -->
<g id="edge3" class="edge">
<title>Node3&#45;&gt;Node4</title>
<path fill="none" stroke="midnightblue" d="M226.73,-59.5C218.08,-59.5 209.38,-59.5 201.03,-59.5"/>
<polygon fill="midnightblue" stroke="midnightblue" points="226.83,-63 236.83,-59.5 226.83,-56 226.83,-63"/>
</g>
<!-- Node5 -->
<g id="node5" class="node">
<title>Node5</title>
<g id="a_node5"><a xlink:href="memory__manager__api_8h.html#a22486940fff22d18c1c65122b4b5235f" target="_top" xlink:title="Allocates and initializes memory for an array of structures.">
<polygon fill="white" stroke="black" points="0,-28 0,-47 47,-47 47,-28 0,-28"/>
<text text-anchor="middle" x="23.5" y="-35" font-family="Helvetica,sans-Serif" font-size="10.00">xcalloc</text>
</a>
</g>
</g>
<!-- Node4&#45;&gt;Node5 -->
<g id="edge4" class="edge">
<title>Node4&#45;&gt;Node5</title>
<path fill="none" stroke="midnightblue" d="M72.73,-46.61C63.58,-44.88 54.77,-43.22 47.24,-41.79"/>
<polygon fill="midnightblue" stroke="midnightblue" points="72.27,-50.08 82.75,-48.5 73.57,-43.21 72.27,-50.08"/>
</g>
<!-- Node6&#45;&gt;Node5 -->
<g id="edge6" class="edge">
<title>Node6&#45;&gt;Node5</title>
<path fill="none" stroke="midnightblue" d="M240.7,-20.45C179.18,-25.3 88.78,-32.43 47.09,-35.72"/>
<polygon fill="midnightblue" stroke="midnightblue" points="241,-23.94 250.69,-19.66 240.45,-16.96 241,-23.94"/>
</g>
</g>
</svg>
