<?xml version="1.0" encoding="UTF-8" standalone="no"?>
<!DOCTYPE svg PUBLIC "-//W3C//DTD SVG 1.1//EN"
 "http://www.w3.org/Graphics/SVG/1.1/DTD/svg11.dtd">
<!-- Generated by graphviz version 2.43.0 (0)
 -->
<!-- Title: mm_free_blocks Pages: 1 -->
<svg width="575pt" height="230pt"
 viewBox="0.00 0.00 575.00 230.00" xmlns="http://www.w3.org/2000/svg" xmlns:xlink="http://www.w3.org/1999/xlink">
<g id="graph0" class="graph" transform="scale(1 1) rotate(0) translate(4 226)">
<title>mm_free_blocks</title>
<polygon fill="white" stroke="transparent" points="-4,4 -4,-226 571,-226 571,4 -4,4"/>
<!-- Node1 -->
<g id="node1" class="node">
<title>Node1</title>
<g id="a_node1"><a xlink:title=" ">
<polygon fill="#bfbfbf" stroke="black" points="0,-82 0,-101 89,-101 89,-82 0,-82"/>
<text text-anchor="middle" x="44.5" y="-89" font-family="Helvetica,sans-Serif" font-size="10.00">mm_free_blocks</text>
</a>
</g>
</g>
<!-- Node2 -->
<g id="node2" class="node">
<title>Node2</title>
<g id="a_node2"><a xlink:href="memory__manager_8c.html#aa72156192006fd76902b0616def7db4d" target="_top" xlink:title=" ">
<polygon fill="white" stroke="black" points="135.5,-169.5 135.5,-199.5 266.5,-199.5 266.5,-169.5 135.5,-169.5"/>
<text text-anchor="start" x="143.5" y="-187.5" font-family="Helvetica,sans-Serif" font-size="10.00">mm_add_free_block_meta</text>
<text text-anchor="middle" x="201" y="-176.5" font-family="Helvetica,sans-Serif" font-size="10.00">_data_to_free_block_list</text>
</a>
</g>
</g>
<!-- Node1&#45;&gt;Node2 -->
<g id="edge1" class="edge">
<title>Node1&#45;&gt;Node2</title>
<path fill="none" stroke="midnightblue" d="M54.32,-101.38C68.06,-116.2 96.01,-144.2 125,-160.5 128.07,-162.23 131.29,-163.85 134.58,-165.37"/>
<polygon fill="midnightblue" stroke="midnightblue" points="133.47,-168.7 144.04,-169.4 136.21,-162.26 133.47,-168.7"/>
</g>
<!-- Node7 -->
<g id="node7" class="node">
<title>Node7</title>
<g id="a_node7"><a xlink:href="memory__manager_8c.html#a3635ea0217471faffe42b0c91c4bcc42" target="_top" xlink:title=" ">
<polygon fill="white" stroke="black" points="144.5,-120.5 144.5,-150.5 257.5,-150.5 257.5,-120.5 144.5,-120.5"/>
<text text-anchor="start" x="152.5" y="-138.5" font-family="Helvetica,sans-Serif" font-size="10.00">mm_get_hard_internal</text>
<text text-anchor="middle" x="201" y="-127.5" font-family="Helvetica,sans-Serif" font-size="10.00">_memory_frag_size</text>
</a>
</g>
</g>
<!-- Node1&#45;&gt;Node7 -->
<g id="edge6" class="edge">
<title>Node1&#45;&gt;Node7</title>
<path fill="none" stroke="midnightblue" d="M79.02,-101.05C96.11,-105.91 117.45,-111.99 137.43,-117.68"/>
<polygon fill="midnightblue" stroke="midnightblue" points="136.52,-121.06 147.1,-120.43 138.44,-114.33 136.52,-121.06"/>
</g>
<!-- Node8 -->
<g id="node8" class="node">
<title>Node8</title>
<g id="a_node8"><a xlink:href="memory__manager_8c.html#a38d0ee21c7b3b9b22289786fd969be46" target="_top" xlink:title="Checks if a virtual memory page is empty.">
<polygon fill="white" stroke="black" points="139.5,-82 139.5,-101 262.5,-101 262.5,-82 139.5,-82"/>
<text text-anchor="middle" x="201" y="-89" font-family="Helvetica,sans-Serif" font-size="10.00">mm_is_vm_page_empty</text>
</a>
</g>
</g>
<!-- Node1&#45;&gt;Node8 -->
<g id="edge7" class="edge">
<title>Node1&#45;&gt;Node8</title>
<path fill="none" stroke="midnightblue" d="M89.36,-91.5C101.73,-91.5 115.51,-91.5 129.04,-91.5"/>
<polygon fill="midnightblue" stroke="midnightblue" points="129.3,-95 139.3,-91.5 129.3,-88 129.3,-95"/>
</g>
<!-- Node9 -->
<g id="node9" class="node">
<title>Node9</title>
<g id="a_node9"><a xlink:href="memory__manager_8c.html#a8b1f18097a67a303b6182eaf288b64f9" target="_top" xlink:title=" ">
<polygon fill="white" stroke="black" points="142.5,-44 142.5,-63 259.5,-63 259.5,-44 142.5,-44"/>
<text text-anchor="middle" x="201" y="-51" font-family="Helvetica,sans-Serif" font-size="10.00">mm_union_free_blocks</text>
</a>
</g>
</g>
<!-- Node1&#45;&gt;Node9 -->
<g id="edge8" class="edge">
<title>Node1&#45;&gt;Node9</title>
<path fill="none" stroke="midnightblue" d="M84.49,-81.91C104.78,-76.92 129.79,-70.77 151.35,-65.47"/>
<polygon fill="midnightblue" stroke="midnightblue" points="152.42,-68.81 161.29,-63.02 150.75,-62.01 152.42,-68.81"/>
</g>
<!-- Node10 -->
<g id="node10" class="node">
<title>Node10</title>
<g id="a_node10"><a xlink:href="memory__manager_8c.html#a3c0f19fa657602a76893a7f53e9f5222" target="_top" xlink:title="Deletes and frees a virtual memory page.">
<polygon fill="white" stroke="black" points="125,-6 125,-25 277,-25 277,-6 125,-6"/>
<text text-anchor="middle" x="201" y="-13" font-family="Helvetica,sans-Serif" font-size="10.00">mm_vm_page_delete_and_free</text>
</a>
</g>
</g>
<!-- Node1&#45;&gt;Node10 -->
<g id="edge9" class="edge">
<title>Node1&#45;&gt;Node10</title>
<path fill="none" stroke="midnightblue" d="M56,-81.97C70.48,-69.32 97.89,-47.1 125,-34.5 130.23,-32.07 135.81,-29.92 141.48,-28.03"/>
<polygon fill="midnightblue" stroke="midnightblue" points="142.54,-31.36 151.07,-25.07 140.48,-24.67 142.54,-31.36"/>
</g>
<!-- Node3 -->
<g id="node3" class="node">
<title>Node3</title>
<g id="a_node3"><a xlink:href="memory__manager_8c.html#a5987bb26622d19dcd8ecfd1416a7f3c6" target="_top" xlink:title=" ">
<polygon fill="white" stroke="black" points="313,-191.5 313,-221.5 435,-221.5 435,-191.5 313,-191.5"/>
<text text-anchor="start" x="321" y="-209.5" font-family="Helvetica,sans-Serif" font-size="10.00">free_blocks_comparison</text>
<text text-anchor="middle" x="374" y="-198.5" font-family="Helvetica,sans-Serif" font-size="10.00">_function</text>
</a>
</g>
</g>
<!-- Node2&#45;&gt;Node3 -->
<g id="edge2" class="edge">
<title>Node2&#45;&gt;Node3</title>
<path fill="none" stroke="midnightblue" d="M266.65,-192.82C278.47,-194.34 290.86,-195.93 302.83,-197.47"/>
<polygon fill="midnightblue" stroke="midnightblue" points="302.41,-200.95 312.77,-198.75 303.3,-194 302.41,-200.95"/>
</g>
<!-- Node4 -->
<g id="node4" class="node">
<title>Node4</title>
<g id="a_node4"><a xlink:href="glthread_8h.html#a2f6336d160a55d3adecb11dace34152a" target="_top" xlink:title="Insert a glthread_t structure into a sorted linked list based on priority.">
<polygon fill="white" stroke="black" points="316.5,-153 316.5,-172 431.5,-172 431.5,-153 316.5,-153"/>
<text text-anchor="middle" x="374" y="-160" font-family="Helvetica,sans-Serif" font-size="10.00">glthread_priority_insert</text>
</a>
</g>
</g>
<!-- Node2&#45;&gt;Node4 -->
<g id="edge3" class="edge">
<title>Node2&#45;&gt;Node4</title>
<path fill="none" stroke="midnightblue" d="M266.65,-176.18C279.56,-174.52 293.14,-172.77 306.13,-171.1"/>
<polygon fill="midnightblue" stroke="midnightblue" points="306.92,-174.53 316.39,-169.78 306.02,-167.59 306.92,-174.53"/>
</g>
<!-- Node5 -->
<g id="node5" class="node">
<title>Node5</title>
<g id="a_node5"><a xlink:href="glthread_8c.html#aa63bf952adace7bfd5bc0cdf970eb4db" target="_top" xlink:title="Adds a new node after the specified current node in the threaded linked list.">
<polygon fill="white" stroke="black" points="471,-172 471,-191 567,-191 567,-172 471,-172"/>
<text text-anchor="middle" x="519" y="-179" font-family="Helvetica,sans-Serif" font-size="10.00">glthread_add_next</text>
</a>
</g>
</g>
<!-- Node4&#45;&gt;Node5 -->
<g id="edge4" class="edge">
<title>Node4&#45;&gt;Node5</title>
<path fill="none" stroke="midnightblue" d="M431.52,-170.01C441.03,-171.27 450.92,-172.59 460.46,-173.86"/>
<polygon fill="midnightblue" stroke="midnightblue" points="460.28,-177.36 470.65,-175.21 461.2,-170.42 460.28,-177.36"/>
</g>
<!-- Node6 -->
<g id="node6" class="node">
<title>Node6</title>
<g id="a_node6"><a xlink:href="glthread_8c.html#a9e4b763220b1c69da2d9e9f191506f89" target="_top" xlink:title="Initialize a glthread_t structure.">
<polygon fill="white" stroke="black" points="484.5,-134 484.5,-153 553.5,-153 553.5,-134 484.5,-134"/>
<text text-anchor="middle" x="519" y="-141" font-family="Helvetica,sans-Serif" font-size="10.00">init_glthread</text>
</a>
</g>
</g>
<!-- Node4&#45;&gt;Node6 -->
<g id="edge5" class="edge">
<title>Node4&#45;&gt;Node6</title>
<path fill="none" stroke="midnightblue" d="M431.52,-154.99C445.7,-153.11 460.71,-151.11 474.17,-149.32"/>
<polygon fill="midnightblue" stroke="midnightblue" points="474.67,-152.79 484.12,-148 473.75,-145.85 474.67,-152.79"/>
</g>
<!-- Node11 -->
<g id="node11" class="node">
<title>Node11</title>
<g id="a_node11"><a xlink:href="memory__manager_8c.html#ab7ac1212082ab9c61aab19e76696d9ec" target="_top" xlink:title=" ">
<polygon fill="white" stroke="black" points="313,-0.5 313,-30.5 435,-30.5 435,-0.5 313,-0.5"/>
<text text-anchor="start" x="321" y="-18.5" font-family="Helvetica,sans-Serif" font-size="10.00">mm_return_vm_page_to</text>
<text text-anchor="middle" x="374" y="-7.5" font-family="Helvetica,sans-Serif" font-size="10.00">_kernel</text>
</a>
</g>
</g>
<!-- Node10&#45;&gt;Node11 -->
<g id="edge10" class="edge">
<title>Node10&#45;&gt;Node11</title>
<path fill="none" stroke="midnightblue" d="M277,-15.5C285.55,-15.5 294.24,-15.5 302.73,-15.5"/>
<polygon fill="midnightblue" stroke="midnightblue" points="302.95,-19 312.95,-15.5 302.95,-12 302.95,-19"/>
</g>
</g>
</svg>
