<?xml version="1.0" encoding="UTF-8" standalone="no"?>
<!DOCTYPE svg PUBLIC "-//W3C//DTD SVG 1.1//EN"
 "http://www.w3.org/Graphics/SVG/1.1/DTD/svg11.dtd">
<!-- Generated by graphviz version 2.43.0 (0)
 -->
<!-- Title: lookup_page_family_by_name Pages: 1 -->
<svg width="337pt" height="61pt"
 viewBox="0.00 0.00 337.00 61.00" xmlns="http://www.w3.org/2000/svg" xmlns:xlink="http://www.w3.org/1999/xlink">
<g id="graph0" class="graph" transform="scale(1 1) rotate(0) translate(4 57)">
<title>lookup_page_family_by_name</title>
<polygon fill="white" stroke="transparent" points="-4,4 -4,-57 333,-57 333,4 -4,4"/>
<!-- Node1 -->
<g id="node1" class="node">
<title>Node1</title>
<g id="a_node1"><a xlink:title="Looks up a page family by its name.">
<polygon fill="#bfbfbf" stroke="black" points="226,-0.5 226,-30.5 329,-30.5 329,-0.5 226,-0.5"/>
<text text-anchor="start" x="234" y="-18.5" font-family="Helvetica,sans-Serif" font-size="10.00">lookup_page_family</text>
<text text-anchor="middle" x="277.5" y="-7.5" font-family="Helvetica,sans-Serif" font-size="10.00">_by_name</text>
</a>
</g>
</g>
<!-- Node2 -->
<g id="node2" class="node">
<title>Node2</title>
<g id="a_node2"><a xlink:href="memory__manager__api_8h.html#a3ed96883ba6c4711318dbae3f5941bbf" target="_top" xlink:title="Instantiates a new page family for a memory structure.">
<polygon fill="white" stroke="black" points="83,-22.5 83,-52.5 190,-52.5 190,-22.5 83,-22.5"/>
<text text-anchor="start" x="91" y="-40.5" font-family="Helvetica,sans-Serif" font-size="10.00">mm_instantiate_new</text>
<text text-anchor="middle" x="136.5" y="-29.5" font-family="Helvetica,sans-Serif" font-size="10.00">_page_family</text>
</a>
</g>
</g>
<!-- Node1&#45;&gt;Node2 -->
<g id="edge1" class="edge">
<title>Node1&#45;&gt;Node2</title>
<path fill="none" stroke="midnightblue" d="M215.95,-25.08C207.35,-26.44 198.57,-27.83 190.14,-29.17"/>
<polygon fill="midnightblue" stroke="midnightblue" points="216.59,-28.53 225.92,-23.5 215.5,-21.61 216.59,-28.53"/>
</g>
<!-- Node3 -->
<g id="node3" class="node">
<title>Node3</title>
<g id="a_node3"><a xlink:href="memory__manager__api_8h.html#a22486940fff22d18c1c65122b4b5235f" target="_top" xlink:title="Allocates and initializes memory for an array of structures.">
<polygon fill="white" stroke="black" points="0,-6 0,-25 47,-25 47,-6 0,-6"/>
<text text-anchor="middle" x="23.5" y="-13" font-family="Helvetica,sans-Serif" font-size="10.00">xcalloc</text>
</a>
</g>
</g>
<!-- Node1&#45;&gt;Node3 -->
<g id="edge3" class="edge">
<title>Node1&#45;&gt;Node3</title>
<path fill="none" stroke="midnightblue" d="M215.7,-13.92C207.07,-13.74 198.31,-13.6 190,-13.5 142.45,-12.95 130.55,-12.69 83,-13.5 71.21,-13.7 58.1,-14.13 47.28,-14.54"/>
<polygon fill="midnightblue" stroke="midnightblue" points="215.66,-17.42 225.73,-14.13 215.81,-10.42 215.66,-17.42"/>
</g>
<!-- Node2&#45;&gt;Node3 -->
<g id="edge2" class="edge">
<title>Node2&#45;&gt;Node3</title>
<path fill="none" stroke="midnightblue" d="M72.93,-25.1C63.77,-23.28 54.87,-21.52 47.25,-20.01"/>
<polygon fill="midnightblue" stroke="midnightblue" points="72.44,-28.57 82.93,-27.08 73.8,-21.7 72.44,-28.57"/>
</g>
</g>
</svg>
