<?xml version="1.0" encoding="UTF-8" standalone="no"?>
<!DOCTYPE svg PUBLIC "-//W3C//DTD SVG 1.1//EN"
 "http://www.w3.org/Graphics/SVG/1.1/DTD/svg11.dtd">
<!-- Generated by graphviz version 2.43.0 (0)
 -->
<!-- Title: include/memory_manager_api.h Pages: 1 -->
<svg width="256pt" height="106pt"
 viewBox="0.00 0.00 256.00 106.00" xmlns="http://www.w3.org/2000/svg" xmlns:xlink="http://www.w3.org/1999/xlink">
<g id="graph0" class="graph" transform="scale(1 1) rotate(0) translate(4 102)">
<title>include/memory_manager_api.h</title>
<polygon fill="white" stroke="transparent" points="-4,4 -4,-102 252,-102 252,4 -4,4"/>
<!-- Node1 -->
<g id="node1" class="node">
<title>Node1</title>
<g id="a_node1"><a xlink:title="Header file for the Memory Manager API.">
<polygon fill="#bfbfbf" stroke="black" points="57.5,-67.5 57.5,-97.5 185.5,-97.5 185.5,-67.5 57.5,-67.5"/>
<text text-anchor="start" x="65.5" y="-85.5" font-family="Helvetica,sans-Serif" font-size="10.00">include/memory_manager</text>
<text text-anchor="middle" x="121.5" y="-74.5" font-family="Helvetica,sans-Serif" font-size="10.00">_api.h</text>
</a>
</g>
</g>
<!-- Node2 -->
<g id="node2" class="node">
<title>Node2</title>
<g id="a_node2"><a xlink:href="memory__manager__test_8c.html" target="_top" xlink:title="Test file for Memory Manager functionality.">
<polygon fill="white" stroke="black" points="0,-0.5 0,-30.5 111,-30.5 111,-0.5 0,-0.5"/>
<text text-anchor="start" x="8" y="-18.5" font-family="Helvetica,sans-Serif" font-size="10.00">src/memory_manager</text>
<text text-anchor="middle" x="55.5" y="-7.5" font-family="Helvetica,sans-Serif" font-size="10.00">_test.c</text>
</a>
</g>
</g>
<!-- Node1&#45;&gt;Node2 -->
<g id="edge1" class="edge">
<title>Node1&#45;&gt;Node2</title>
<path fill="none" stroke="midnightblue" d="M99.99,-60.31C90.09,-50.56 78.61,-39.26 69.79,-30.58"/>
<polygon fill="midnightblue" stroke="midnightblue" points="97.6,-62.87 107.18,-67.4 102.51,-57.89 97.6,-62.87"/>
</g>
<!-- Node3 -->
<g id="node3" class="node">
<title>Node3</title>
<g id="a_node3"><a xlink:href="memory__manager_8c.html" target="_top" xlink:title="Implementation file for the Memory Manager module.">
<polygon fill="white" stroke="black" points="129,-6 129,-25 248,-25 248,-6 129,-6"/>
<text text-anchor="middle" x="188.5" y="-13" font-family="Helvetica,sans-Serif" font-size="10.00">src/memory_manager.c</text>
</a>
</g>
</g>
<!-- Node1&#45;&gt;Node3 -->
<g id="edge2" class="edge">
<title>Node1&#45;&gt;Node3</title>
<path fill="none" stroke="midnightblue" d="M143.32,-60.34C155.62,-48.4 170.32,-34.14 179.54,-25.19"/>
<polygon fill="midnightblue" stroke="midnightblue" points="140.78,-57.92 136.04,-67.4 145.65,-62.94 140.78,-57.92"/>
</g>
</g>
</svg>
