<?xml version="1.0" encoding="UTF-8" standalone="no"?>
<!DOCTYPE svg PUBLIC "-//W3C//DTD SVG 1.1//EN"
 "http://www.w3.org/Graphics/SVG/1.1/DTD/svg11.dtd">
<!-- Generated by graphviz version 2.43.0 (0)
 -->
<!-- Title: xcalloc Pages: 1 -->
<svg width="850pt" height="308pt"
 viewBox="0.00 0.00 850.00 307.50" xmlns="http://www.w3.org/2000/svg" xmlns:xlink="http://www.w3.org/1999/xlink">
<g id="graph0" class="graph" transform="scale(1 1) rotate(0) translate(4 303.5)">
<title>xcalloc</title>
<polygon fill="white" stroke="transparent" points="-4,4 -4,-303.5 846,-303.5 846,4 -4,4"/>
<!-- Node1 -->
<g id="node1" class="node">
<title>Node1</title>
<g id="a_node1"><a xlink:title="Allocates and initializes memory for an array of structures.">
<polygon fill="#bfbfbf" stroke="black" points="0,-188.5 0,-207.5 47,-207.5 47,-188.5 0,-188.5"/>
<text text-anchor="middle" x="23.5" y="-195.5" font-family="Helvetica,sans-Serif" font-size="10.00">xcalloc</text>
</a>
</g>
</g>
<!-- Node2 -->
<g id="node2" class="node">
<title>Node2</title>
<g id="a_node2"><a xlink:href="datatype__size__lookup_8h.html#a65d92569472aecd58e18e5afaa9b41ea" target="_top" xlink:title="Gets the size of a data type by its name.">
<polygon fill="white" stroke="black" points="87,-270.5 87,-289.5 197,-289.5 197,-270.5 87,-270.5"/>
<text text-anchor="middle" x="142" y="-277.5" font-family="Helvetica,sans-Serif" font-size="10.00">get_size_of_datatype</text>
</a>
</g>
</g>
<!-- Node1&#45;&gt;Node2 -->
<g id="edge1" class="edge">
<title>Node1&#45;&gt;Node2</title>
<path fill="none" stroke="midnightblue" d="M32.28,-207.8C42.7,-220.38 62.28,-242.22 83,-256 88.91,-259.93 95.58,-263.42 102.22,-266.43"/>
<polygon fill="midnightblue" stroke="midnightblue" points="101.28,-269.83 111.86,-270.5 104.01,-263.38 101.28,-269.83"/>
</g>
<!-- Node3 -->
<g id="node3" class="node">
<title>Node3</title>
<g id="a_node3"><a xlink:href="memory__manager_8c.html#a64d262ebef165f5249f21946be39c80e" target="_top" xlink:title="Looks up a page family by its name.">
<polygon fill="white" stroke="black" points="253,-269 253,-299 356,-299 356,-269 253,-269"/>
<text text-anchor="start" x="261" y="-287" font-family="Helvetica,sans-Serif" font-size="10.00">lookup_page_family</text>
<text text-anchor="middle" x="304.5" y="-276" font-family="Helvetica,sans-Serif" font-size="10.00">_by_name</text>
</a>
</g>
</g>
<!-- Node1&#45;&gt;Node3 -->
<g id="edge2" class="edge">
<title>Node1&#45;&gt;Node3</title>
<path fill="none" stroke="midnightblue" d="M45.08,-207.6C56.17,-212.56 70.18,-218.51 83,-223 136.32,-241.67 198.46,-258.43 243.16,-269.63"/>
<polygon fill="midnightblue" stroke="midnightblue" points="242.44,-273.06 252.99,-272.08 244.13,-266.27 242.44,-273.06"/>
</g>
<!-- Node4 -->
<g id="node4" class="node">
<title>Node4</title>
<g id="a_node4"><a xlink:href="memory__manager_8c.html#a2eb03d198590833c575a105c856ecfbb" target="_top" xlink:title=" ">
<polygon fill="white" stroke="black" points="83,-115 83,-145 201,-145 201,-115 83,-115"/>
<text text-anchor="start" x="91" y="-133" font-family="Helvetica,sans-Serif" font-size="10.00">mm_allocate_free_data</text>
<text text-anchor="middle" x="142" y="-122" font-family="Helvetica,sans-Serif" font-size="10.00">_block</text>
</a>
</g>
</g>
<!-- Node1&#45;&gt;Node4 -->
<g id="edge3" class="edge">
<title>Node1&#45;&gt;Node4</title>
<path fill="none" stroke="midnightblue" d="M41.19,-188.26C58.04,-178.42 84.56,-162.94 106.03,-150.41"/>
<polygon fill="midnightblue" stroke="midnightblue" points="108.01,-153.31 114.88,-145.25 104.48,-147.26 108.01,-153.31"/>
</g>
<!-- Node18 -->
<g id="node18" class="node">
<title>Node18</title>
<g id="a_node18"><a xlink:href="memory__manager_8c.html#a3ed96883ba6c4711318dbae3f5941bbf" target="_top" xlink:title="Instantiates a new page family for a memory structure.">
<polygon fill="white" stroke="black" points="88.5,-183 88.5,-213 195.5,-213 195.5,-183 88.5,-183"/>
<text text-anchor="start" x="96.5" y="-201" font-family="Helvetica,sans-Serif" font-size="10.00">mm_instantiate_new</text>
<text text-anchor="middle" x="142" y="-190" font-family="Helvetica,sans-Serif" font-size="10.00">_page_family</text>
</a>
</g>
</g>
<!-- Node1&#45;&gt;Node18 -->
<g id="edge19" class="edge">
<title>Node1&#45;&gt;Node18</title>
<path fill="none" stroke="midnightblue" d="M47.24,-198C56.26,-198 67.13,-198 78.21,-198"/>
<polygon fill="midnightblue" stroke="midnightblue" points="78.4,-201.5 88.4,-198 78.4,-194.5 78.4,-201.5"/>
</g>
<!-- Node19 -->
<g id="node19" class="node">
<title>Node19</title>
<g id="a_node19"><a xlink:href="parse__datatype_8h.html#a45f2370263142bb7c955a543c7ea284e" target="_top" xlink:title="Parses the name of a struct from a string.">
<polygon fill="white" stroke="black" points="92,-35.5 92,-54.5 192,-54.5 192,-35.5 92,-35.5"/>
<text text-anchor="middle" x="142" y="-42.5" font-family="Helvetica,sans-Serif" font-size="10.00">parse_struct_name</text>
</a>
</g>
</g>
<!-- Node1&#45;&gt;Node19 -->
<g id="edge23" class="edge">
<title>Node1&#45;&gt;Node19</title>
<path fill="none" stroke="midnightblue" d="M29.74,-188.46C39.36,-171.29 60.86,-134.34 83,-106 95.4,-90.13 111.26,-73.67 123.26,-61.85"/>
<polygon fill="midnightblue" stroke="midnightblue" points="125.77,-64.29 130.51,-54.81 120.9,-59.27 125.77,-64.29"/>
</g>
<!-- Node5 -->
<g id="node5" class="node">
<title>Node5</title>
<g id="a_node5"><a xlink:href="memory__manager_8c.html#a617a6a57117c09b033035922950095ee" target="_top" xlink:title=" ">
<polygon fill="white" stroke="black" points="237,-88.5 237,-107.5 372,-107.5 372,-88.5 237,-88.5"/>
<text text-anchor="middle" x="304.5" y="-95.5" font-family="Helvetica,sans-Serif" font-size="10.00">mm_family_new_page_add</text>
</a>
</g>
</g>
<!-- Node4&#45;&gt;Node5 -->
<g id="edge4" class="edge">
<title>Node4&#45;&gt;Node5</title>
<path fill="none" stroke="midnightblue" d="M201.4,-118.36C215.89,-115.47 231.41,-112.37 245.87,-109.49"/>
<polygon fill="midnightblue" stroke="midnightblue" points="246.56,-112.92 255.68,-107.53 245.19,-106.06 246.56,-112.92"/>
</g>
<!-- Node15 -->
<g id="node15" class="node">
<title>Node15</title>
<g id="a_node15"><a xlink:href="memory__manager_8c.html#a90d723f5422a621847ecd7437146fc9b" target="_top" xlink:title=" ">
<polygon fill="white" stroke="black" points="249.5,-127 249.5,-157 359.5,-157 359.5,-127 249.5,-127"/>
<text text-anchor="start" x="257.5" y="-145" font-family="Helvetica,sans-Serif" font-size="10.00">mm_get_biggest_free</text>
<text text-anchor="middle" x="304.5" y="-134" font-family="Helvetica,sans-Serif" font-size="10.00">_block_page_family</text>
</a>
</g>
</g>
<!-- Node4&#45;&gt;Node15 -->
<g id="edge14" class="edge">
<title>Node4&#45;&gt;Node15</title>
<path fill="none" stroke="midnightblue" d="M201.4,-134.37C213.65,-135.28 226.64,-136.25 239.1,-137.19"/>
<polygon fill="midnightblue" stroke="midnightblue" points="239.18,-140.7 249.41,-137.96 239.7,-133.72 239.18,-140.7"/>
</g>
<!-- Node16 -->
<g id="node16" class="node">
<title>Node16</title>
<g id="a_node16"><a xlink:href="memory__manager_8c.html#ab335253cb154c4adb2beb3cea638fb3c" target="_top" xlink:title=" ">
<polygon fill="white" stroke="black" points="250.5,-39 250.5,-69 358.5,-69 358.5,-39 250.5,-39"/>
<text text-anchor="start" x="258.5" y="-57" font-family="Helvetica,sans-Serif" font-size="10.00">mm_split_free_data</text>
<text text-anchor="middle" x="304.5" y="-46" font-family="Helvetica,sans-Serif" font-size="10.00">_block_for_allocation</text>
</a>
</g>
</g>
<!-- Node4&#45;&gt;Node16 -->
<g id="edge15" class="edge">
<title>Node4&#45;&gt;Node16</title>
<path fill="none" stroke="midnightblue" d="M168.45,-114.95C187.09,-104.24 213.19,-89.87 237,-79 241.65,-76.88 246.54,-74.79 251.46,-72.77"/>
<polygon fill="midnightblue" stroke="midnightblue" points="252.93,-75.96 260.93,-69.01 250.34,-69.45 252.93,-75.96"/>
</g>
<!-- Node6 -->
<g id="node6" class="node">
<title>Node6</title>
<g id="a_node6"><a xlink:href="memory__manager_8c.html#aebb395354ed1154e7b06212096990f52" target="_top" xlink:title="Allocates a new virtual memory page for a given page family.">
<polygon fill="white" stroke="black" points="426,-192.5 426,-211.5 521,-211.5 521,-192.5 426,-192.5"/>
<text text-anchor="middle" x="473.5" y="-199.5" font-family="Helvetica,sans-Serif" font-size="10.00">allocate_vm_page</text>
</a>
</g>
</g>
<!-- Node5&#45;&gt;Node6 -->
<g id="edge5" class="edge">
<title>Node5&#45;&gt;Node6</title>
<path fill="none" stroke="midnightblue" d="M346.63,-107.54C355.28,-110.31 364.15,-113.77 372,-118 405.46,-136.03 438.06,-166.32 456.67,-185.17"/>
<polygon fill="midnightblue" stroke="midnightblue" points="454.28,-187.74 463.75,-192.49 459.31,-182.87 454.28,-187.74"/>
</g>
<!-- Node10 -->
<g id="node10" class="node">
<title>Node10</title>
<g id="a_node10"><a xlink:href="memory__manager_8c.html#aa72156192006fd76902b0616def7db4d" target="_top" xlink:title=" ">
<polygon fill="white" stroke="black" points="408,-67 408,-97 539,-97 539,-67 408,-67"/>
<text text-anchor="start" x="416" y="-85" font-family="Helvetica,sans-Serif" font-size="10.00">mm_add_free_block_meta</text>
<text text-anchor="middle" x="473.5" y="-74" font-family="Helvetica,sans-Serif" font-size="10.00">_data_to_free_block_list</text>
</a>
</g>
</g>
<!-- Node5&#45;&gt;Node10 -->
<g id="edge9" class="edge">
<title>Node5&#45;&gt;Node10</title>
<path fill="none" stroke="midnightblue" d="M372.46,-91.58C380.79,-90.79 389.34,-89.97 397.77,-89.16"/>
<polygon fill="midnightblue" stroke="midnightblue" points="398.34,-92.62 407.97,-88.18 397.68,-85.65 398.34,-92.62"/>
</g>
<!-- Node7 -->
<g id="node7" class="node">
<title>Node7</title>
<g id="a_node7"><a xlink:href="glthread_8h.html#a9e4b763220b1c69da2d9e9f191506f89" target="_top" xlink:title="Initialize a glthread_t structure.">
<polygon fill="white" stroke="black" points="608,-142.5 608,-161.5 677,-161.5 677,-142.5 608,-142.5"/>
<text text-anchor="middle" x="642.5" y="-149.5" font-family="Helvetica,sans-Serif" font-size="10.00">init_glthread</text>
</a>
</g>
</g>
<!-- Node6&#45;&gt;Node7 -->
<g id="edge6" class="edge">
<title>Node6&#45;&gt;Node7</title>
<path fill="none" stroke="midnightblue" d="M506.3,-192.48C532.8,-184.54 570.75,-173.18 599.7,-164.52"/>
<polygon fill="midnightblue" stroke="midnightblue" points="600.95,-167.79 609.53,-161.57 598.95,-161.09 600.95,-167.79"/>
</g>
<!-- Node8 -->
<g id="node8" class="node">
<title>Node8</title>
<g id="a_node8"><a xlink:href="memory__manager_8c.html#a52375cf39c67eb0c135c12eb38ddf66f" target="_top" xlink:title=" ">
<polygon fill="white" stroke="black" points="582.5,-230 582.5,-260 702.5,-260 702.5,-230 582.5,-230"/>
<text text-anchor="start" x="590.5" y="-248" font-family="Helvetica,sans-Serif" font-size="10.00">mm_get_new_vm_page</text>
<text text-anchor="middle" x="642.5" y="-237" font-family="Helvetica,sans-Serif" font-size="10.00">_from_kernel</text>
</a>
</g>
</g>
<!-- Node6&#45;&gt;Node8 -->
<g id="edge7" class="edge">
<title>Node6&#45;&gt;Node8</title>
<path fill="none" stroke="midnightblue" d="M511.56,-211.54C529.73,-216.22 552.2,-222.01 573.31,-227.44"/>
<polygon fill="midnightblue" stroke="midnightblue" points="572.66,-230.89 583.22,-229.99 574.41,-224.11 572.66,-230.89"/>
</g>
<!-- Node9 -->
<g id="node9" class="node">
<title>Node9</title>
<g id="a_node9"><a xlink:href="memory__manager_8c.html#ae68e468ad150ea915ed9a3b9d899e9df" target="_top" xlink:title=" ">
<polygon fill="white" stroke="black" points="575,-181 575,-211 710,-211 710,-181 575,-181"/>
<text text-anchor="start" x="583" y="-199" font-family="Helvetica,sans-Serif" font-size="10.00">mm_max_page_allocatable</text>
<text text-anchor="middle" x="642.5" y="-188" font-family="Helvetica,sans-Serif" font-size="10.00">_memory</text>
</a>
</g>
</g>
<!-- Node6&#45;&gt;Node9 -->
<g id="edge8" class="edge">
<title>Node6&#45;&gt;Node9</title>
<path fill="none" stroke="midnightblue" d="M521.02,-200.33C534.58,-199.84 549.78,-199.3 564.69,-198.76"/>
<polygon fill="midnightblue" stroke="midnightblue" points="565.08,-202.25 574.95,-198.39 564.83,-195.25 565.08,-202.25"/>
</g>
<!-- Node11 -->
<g id="node11" class="node">
<title>Node11</title>
<g id="a_node11"><a xlink:href="memory__manager_8c.html#a5987bb26622d19dcd8ecfd1416a7f3c6" target="_top" xlink:title=" ">
<polygon fill="white" stroke="black" points="581.5,-39 581.5,-69 703.5,-69 703.5,-39 581.5,-39"/>
<text text-anchor="start" x="589.5" y="-57" font-family="Helvetica,sans-Serif" font-size="10.00">free_blocks_comparison</text>
<text text-anchor="middle" x="642.5" y="-46" font-family="Helvetica,sans-Serif" font-size="10.00">_function</text>
</a>
</g>
</g>
<!-- Node10&#45;&gt;Node11 -->
<g id="edge10" class="edge">
<title>Node10&#45;&gt;Node11</title>
<path fill="none" stroke="midnightblue" d="M539.07,-71.17C549.64,-69.4 560.64,-67.56 571.34,-65.76"/>
<polygon fill="midnightblue" stroke="midnightblue" points="572.2,-69.17 581.48,-64.06 571.04,-62.26 572.2,-69.17"/>
</g>
<!-- Node12 -->
<g id="node12" class="node">
<title>Node12</title>
<g id="a_node12"><a xlink:href="glthread_8h.html#a2f6336d160a55d3adecb11dace34152a" target="_top" xlink:title="Insert a glthread_t structure into a sorted linked list based on priority.">
<polygon fill="white" stroke="black" points="585,-88.5 585,-107.5 700,-107.5 700,-88.5 585,-88.5"/>
<text text-anchor="middle" x="642.5" y="-95.5" font-family="Helvetica,sans-Serif" font-size="10.00">glthread_priority_insert</text>
</a>
</g>
</g>
<!-- Node10&#45;&gt;Node12 -->
<g id="edge11" class="edge">
<title>Node10&#45;&gt;Node12</title>
<path fill="none" stroke="midnightblue" d="M539.07,-88.19C550.78,-89.31 563.02,-90.48 574.79,-91.61"/>
<polygon fill="midnightblue" stroke="midnightblue" points="574.71,-95.12 584.99,-92.59 575.37,-88.15 574.71,-95.12"/>
</g>
<!-- Node13 -->
<g id="node13" class="node">
<title>Node13</title>
<g id="a_node13"><a xlink:href="glthread_8c.html#aa63bf952adace7bfd5bc0cdf970eb4db" target="_top" xlink:title="Adds a new node after the specified current node in the threaded linked list.">
<polygon fill="white" stroke="black" points="746,-107.5 746,-126.5 842,-126.5 842,-107.5 746,-107.5"/>
<text text-anchor="middle" x="794" y="-114.5" font-family="Helvetica,sans-Serif" font-size="10.00">glthread_add_next</text>
</a>
</g>
</g>
<!-- Node12&#45;&gt;Node13 -->
<g id="edge12" class="edge">
<title>Node12&#45;&gt;Node13</title>
<path fill="none" stroke="midnightblue" d="M700.02,-105.18C711.66,-106.66 723.93,-108.22 735.6,-109.7"/>
<polygon fill="midnightblue" stroke="midnightblue" points="735.31,-113.2 745.67,-110.98 736.19,-106.25 735.31,-113.2"/>
</g>
<!-- Node14 -->
<g id="node14" class="node">
<title>Node14</title>
<g id="a_node14"><a xlink:href="glthread_8c.html#a9e4b763220b1c69da2d9e9f191506f89" target="_top" xlink:title="Initialize a glthread_t structure.">
<polygon fill="white" stroke="black" points="759.5,-69.5 759.5,-88.5 828.5,-88.5 828.5,-69.5 759.5,-69.5"/>
<text text-anchor="middle" x="794" y="-76.5" font-family="Helvetica,sans-Serif" font-size="10.00">init_glthread</text>
</a>
</g>
</g>
<!-- Node12&#45;&gt;Node14 -->
<g id="edge13" class="edge">
<title>Node12&#45;&gt;Node14</title>
<path fill="none" stroke="midnightblue" d="M700.02,-90.82C716.28,-88.75 733.76,-86.53 749.13,-84.58"/>
<polygon fill="midnightblue" stroke="midnightblue" points="749.92,-88 759.39,-83.27 749.03,-81.06 749.92,-88"/>
</g>
<!-- Node16&#45;&gt;Node7 -->
<g id="edge16" class="edge">
<title>Node16&#45;&gt;Node7</title>
<path fill="none" stroke="midnightblue" d="M351.04,-69.02C358.22,-71.98 365.43,-75.32 372,-79 389.69,-88.9 389.54,-98.63 408,-107 470.18,-135.19 549.46,-145.74 597.8,-149.67"/>
<polygon fill="midnightblue" stroke="midnightblue" points="597.69,-153.18 607.92,-150.44 598.22,-146.2 597.69,-153.18"/>
</g>
<!-- Node16&#45;&gt;Node10 -->
<g id="edge17" class="edge">
<title>Node16&#45;&gt;Node10</title>
<path fill="none" stroke="midnightblue" d="M358.8,-62.94C371.2,-65.02 384.62,-67.27 397.76,-69.47"/>
<polygon fill="midnightblue" stroke="midnightblue" points="397.28,-72.94 407.72,-71.14 398.44,-66.03 397.28,-72.94"/>
</g>
<!-- Node17 -->
<g id="node17" class="node">
<title>Node17</title>
<g id="a_node17"><a xlink:href="glthread_8h.html#a935ecd20646a46a7b84dbbeee4abd76d" target="_top" xlink:title="Removes the specified node from the threaded linked list.">
<polygon fill="white" stroke="black" points="429,-28.5 429,-47.5 518,-47.5 518,-28.5 429,-28.5"/>
<text text-anchor="middle" x="473.5" y="-35.5" font-family="Helvetica,sans-Serif" font-size="10.00">remove_glthread</text>
</a>
</g>
</g>
<!-- Node16&#45;&gt;Node17 -->
<g id="edge18" class="edge">
<title>Node16&#45;&gt;Node17</title>
<path fill="none" stroke="midnightblue" d="M358.8,-48.89C377.98,-47.06 399.61,-44.98 418.82,-43.14"/>
<polygon fill="midnightblue" stroke="midnightblue" points="419.29,-46.61 428.91,-42.18 418.62,-39.65 419.29,-46.61"/>
</g>
<!-- Node18&#45;&gt;Node3 -->
<g id="edge21" class="edge">
<title>Node18&#45;&gt;Node3</title>
<path fill="none" stroke="midnightblue" d="M174.17,-213.05C182.99,-217.6 192.5,-222.77 201,-228 217.81,-238.34 219.92,-244.11 237,-254 243.41,-257.71 250.35,-261.29 257.26,-264.6"/>
<polygon fill="midnightblue" stroke="midnightblue" points="256.05,-267.9 266.6,-268.94 259.01,-261.55 256.05,-267.9"/>
</g>
<!-- Node18&#45;&gt;Node7 -->
<g id="edge20" class="edge">
<title>Node18&#45;&gt;Node7</title>
<path fill="none" stroke="midnightblue" d="M195.88,-193.12C294.8,-183.99 506.11,-164.49 597.68,-156.04"/>
<polygon fill="midnightblue" stroke="midnightblue" points="598.09,-159.52 607.72,-155.12 597.44,-152.55 598.09,-159.52"/>
</g>
<!-- Node18&#45;&gt;Node8 -->
<g id="edge22" class="edge">
<title>Node18&#45;&gt;Node8</title>
<path fill="none" stroke="midnightblue" d="M195.88,-202.99C286.48,-211.53 471.36,-228.96 572.17,-238.46"/>
<polygon fill="midnightblue" stroke="midnightblue" points="571.97,-241.96 582.26,-239.41 572.63,-234.99 571.97,-241.96"/>
</g>
<!-- Node20 -->
<g id="node20" class="node">
<title>Node20</title>
<g id="a_node20"><a xlink:href="parse__datatype_8c.html#aced8c866b58d74e72f0c67e362c75740" target="_top" xlink:title="Checks if a string represents a number.">
<polygon fill="white" stroke="black" points="273.5,-0.5 273.5,-19.5 335.5,-19.5 335.5,-0.5 273.5,-0.5"/>
<text text-anchor="middle" x="304.5" y="-7.5" font-family="Helvetica,sans-Serif" font-size="10.00">is_number</text>
</a>
</g>
</g>
<!-- Node19&#45;&gt;Node20 -->
<g id="edge24" class="edge">
<title>Node19&#45;&gt;Node20</title>
<path fill="none" stroke="midnightblue" d="M186.86,-35.44C210.79,-30.22 240.2,-23.8 263.5,-18.72"/>
<polygon fill="midnightblue" stroke="midnightblue" points="264.38,-22.11 273.41,-16.56 262.89,-15.27 264.38,-22.11"/>
</g>
</g>
</svg>
