<?xml version="1.0" encoding="UTF-8" standalone="no"?>
<!DOCTYPE svg PUBLIC "-//W3C//DTD SVG 1.1//EN"
 "http://www.w3.org/Graphics/SVG/1.1/DTD/svg11.dtd">
<!-- Generated by graphviz version 2.43.0 (0)
 -->
<!-- Title: include/parse_datatype.h Pages: 1 -->
<svg width="254pt" height="84pt"
 viewBox="0.00 0.00 253.50 84.00" xmlns="http://www.w3.org/2000/svg" xmlns:xlink="http://www.w3.org/1999/xlink">
<g id="graph0" class="graph" transform="scale(1 1) rotate(0) translate(4 80)">
<title>include/parse_datatype.h</title>
<polygon fill="white" stroke="transparent" points="-4,4 -4,-80 249.5,-80 249.5,4 -4,4"/>
<!-- Node1 -->
<g id="node1" class="node">
<title>Node1</title>
<g id="a_node1"><a xlink:title="Header file for parsing data type names.">
<polygon fill="#bfbfbf" stroke="black" points="57.5,-56.5 57.5,-75.5 182.5,-75.5 182.5,-56.5 57.5,-56.5"/>
<text text-anchor="middle" x="120" y="-63.5" font-family="Helvetica,sans-Serif" font-size="10.00">include/parse_datatype.h</text>
</a>
</g>
</g>
<!-- Node2 -->
<g id="node2" class="node">
<title>Node2</title>
<g id="a_node2"><a xlink:href="parse__datatype_8c.html" target="_top" xlink:title="Extracts a data type name from a string containing the sizeof operator.">
<polygon fill="white" stroke="black" points="0,-0.5 0,-19.5 108,-19.5 108,-0.5 0,-0.5"/>
<text text-anchor="middle" x="54" y="-7.5" font-family="Helvetica,sans-Serif" font-size="10.00">src/parse_datatype.c</text>
</a>
</g>
</g>
<!-- Node1&#45;&gt;Node2 -->
<g id="edge1" class="edge">
<title>Node1&#45;&gt;Node2</title>
<path fill="none" stroke="midnightblue" d="M101.45,-49.82C89.62,-40.15 74.71,-27.95 64.8,-19.83"/>
<polygon fill="midnightblue" stroke="midnightblue" points="99.44,-52.7 109.4,-56.32 103.87,-47.28 99.44,-52.7"/>
</g>
<!-- Node3 -->
<g id="node3" class="node">
<title>Node3</title>
<g id="a_node3"><a xlink:href="memory__manager_8c.html" target="_top" xlink:title="Implementation file for the Memory Manager module.">
<polygon fill="white" stroke="black" points="126.5,-0.5 126.5,-19.5 245.5,-19.5 245.5,-0.5 126.5,-0.5"/>
<text text-anchor="middle" x="186" y="-7.5" font-family="Helvetica,sans-Serif" font-size="10.00">src/memory_manager.c</text>
</a>
</g>
</g>
<!-- Node1&#45;&gt;Node3 -->
<g id="edge2" class="edge">
<title>Node1&#45;&gt;Node3</title>
<path fill="none" stroke="midnightblue" d="M138.55,-49.82C150.38,-40.15 165.29,-27.95 175.2,-19.83"/>
<polygon fill="midnightblue" stroke="midnightblue" points="136.13,-47.28 130.6,-56.32 140.56,-52.7 136.13,-47.28"/>
</g>
</g>
</svg>
