<?xml version="1.0" encoding="UTF-8" standalone="no"?>
<!DOCTYPE svg PUBLIC "-//W3C//DTD SVG 1.1//EN"
 "http://www.w3.org/Graphics/SVG/1.1/DTD/svg11.dtd">
<!-- Generated by graphviz version 2.43.0 (0)
 -->
<!-- Title: vm_page_ Pages: 1 -->
<svg width="237pt" height="425pt"
 viewBox="0.00 0.00 237.00 425.00" xmlns="http://www.w3.org/2000/svg" xmlns:xlink="http://www.w3.org/1999/xlink">
<g id="graph0" class="graph" transform="scale(1 1) rotate(0) translate(4 421)">
<title>vm_page_</title>
<polygon fill="white" stroke="transparent" points="-4,4 -4,-421 233,-421 233,4 -4,4"/>
<!-- Node1 -->
<g id="node1" class="node">
<title>Node1</title>
<g id="a_node1"><a xlink:title="Structure representing a virtual memory page.">
<polygon fill="#bfbfbf" stroke="black" points="78.5,-116.5 78.5,-173.5 165.5,-173.5 165.5,-116.5 78.5,-116.5"/>
<text text-anchor="middle" x="122" y="-161.5" font-family="Helvetica,sans-Serif" font-size="10.00">vm_page_</text>
<polyline fill="none" stroke="black" points="78.5,-154.5 165.5,-154.5 "/>
<text text-anchor="start" x="86.5" y="-142.5" font-family="Helvetica,sans-Serif" font-size="10.00">+ page_memory</text>
<polyline fill="none" stroke="black" points="78.5,-135.5 165.5,-135.5 "/>
<text text-anchor="middle" x="122" y="-123.5" font-family="Helvetica,sans-Serif" font-size="10.00"> </text>
</a>
</g>
</g>
<!-- Node1&#45;&gt;Node1 -->
<g id="edge5" class="edge">
<title>Node1&#45;&gt;Node1</title>
<path fill="none" stroke="#404040" d="M165.67,-154.56C175.93,-153.77 183.5,-150.59 183.5,-145 183.5,-141.95 181.24,-139.61 177.51,-137.99"/>
<polygon fill="none" stroke="#404040" points="177.4,-137.97 170.69,-140.62 165.67,-135.44 172.38,-132.79 177.4,-137.97"/>
<text text-anchor="middle" x="197.5" y="-148" font-family="Helvetica,sans-Serif" font-size="10.00"> +next</text>
<text text-anchor="middle" x="197.5" y="-137" font-family="Helvetica,sans-Serif" font-size="10.00">+prev</text>
</g>
<!-- Node2 -->
<g id="node2" class="node">
<title>Node2</title>
<g id="a_node2"><a xlink:href="structvm__page__family__.html" target="_top" xlink:title="Structure representing a page family in virtual memory.">
<polygon fill="white" stroke="black" points="0.5,-0.5 0.5,-68.5 93.5,-68.5 93.5,-0.5 0.5,-0.5"/>
<text text-anchor="middle" x="47" y="-56.5" font-family="Helvetica,sans-Serif" font-size="10.00">vm_page_family_</text>
<polyline fill="none" stroke="black" points="0.5,-49.5 93.5,-49.5 "/>
<text text-anchor="start" x="8.5" y="-37.5" font-family="Helvetica,sans-Serif" font-size="10.00">+ struct_name</text>
<text text-anchor="start" x="8.5" y="-26.5" font-family="Helvetica,sans-Serif" font-size="10.00">+ struct_size</text>
<polyline fill="none" stroke="black" points="0.5,-19.5 93.5,-19.5 "/>
<text text-anchor="middle" x="47" y="-7.5" font-family="Helvetica,sans-Serif" font-size="10.00"> </text>
</a>
</g>
</g>
<!-- Node1&#45;&gt;Node2 -->
<g id="edge4" class="edge">
<title>Node1&#45;&gt;Node2</title>
<path fill="none" stroke="#404040" d="M78.27,-128.35C64.86,-121.25 51.64,-111.38 44,-98 41.02,-92.79 39.47,-86.92 38.87,-80.92"/>
<polygon fill="none" stroke="#404040" points="38.87,-80.58 34.84,-74.6 38.81,-68.58 42.84,-74.56 38.87,-80.58"/>
<text text-anchor="middle" x="70" y="-90" font-family="Helvetica,sans-Serif" font-size="10.00"> +first_page</text>
</g>
<!-- Node2&#45;&gt;Node1 -->
<g id="edge1" class="edge">
<title>Node2&#45;&gt;Node1</title>
<path fill="none" stroke="#404040" d="M85.17,-68.55C90.59,-74.34 95.76,-80.58 100,-87 103.69,-92.59 106.9,-98.88 109.64,-105.2"/>
<polygon fill="none" stroke="#404040" points="109.67,-105.28 115.59,-109.4 114.07,-116.45 108.15,-112.33 109.67,-105.28"/>
<text text-anchor="middle" x="132" y="-90" font-family="Helvetica,sans-Serif" font-size="10.00"> +pg_family</text>
</g>
<!-- Node3 -->
<g id="node3" class="node">
<title>Node3</title>
<g id="a_node3"><a xlink:href="structglthread__.html" target="_top" xlink:title="Structure representing a generic linked list node for threaded linking.">
<polygon fill="white" stroke="black" points="0,-359.5 0,-416.5 56,-416.5 56,-359.5 0,-359.5"/>
<text text-anchor="middle" x="28" y="-404.5" font-family="Helvetica,sans-Serif" font-size="10.00">glthread_</text>
<polyline fill="none" stroke="black" points="0,-397.5 56,-397.5 "/>
<text text-anchor="middle" x="28" y="-385.5" font-family="Helvetica,sans-Serif" font-size="10.00"> </text>
<polyline fill="none" stroke="black" points="0,-378.5 56,-378.5 "/>
<text text-anchor="middle" x="28" y="-366.5" font-family="Helvetica,sans-Serif" font-size="10.00"> </text>
</a>
</g>
</g>
<!-- Node3&#45;&gt;Node2 -->
<g id="edge2" class="edge">
<title>Node3&#45;&gt;Node2</title>
<path fill="none" stroke="#404040" d="M25.14,-359.2C21.67,-321.34 16.77,-251.47 21,-192 24.34,-144.98 27.74,-133.41 36,-87 36.38,-84.87 36.78,-82.68 37.2,-80.48"/>
<polygon fill="none" stroke="#404040" points="37.21,-80.45 34.47,-73.78 39.56,-68.68 42.31,-75.35 37.21,-80.45"/>
<text text-anchor="start" x="21" y="-206" font-family="Helvetica,sans-Serif" font-size="10.00"> +free_block_priority</text>
<text text-anchor="middle" x="65.5" y="-195" font-family="Helvetica,sans-Serif" font-size="10.00">_list_head</text>
</g>
<!-- Node3&#45;&gt;Node3 -->
<g id="edge3" class="edge">
<title>Node3&#45;&gt;Node3</title>
<path fill="none" stroke="#404040" d="M56.3,-397.75C66.09,-397.85 74,-394.6 74,-388 74,-384.49 71.77,-381.93 68.21,-380.32"/>
<polygon fill="none" stroke="#404040" points="68.12,-380.3 61.53,-383.22 56.3,-378.25 62.89,-375.34 68.12,-380.3"/>
<text text-anchor="middle" x="86.5" y="-391" font-family="Helvetica,sans-Serif" font-size="10.00"> +left</text>
<text text-anchor="middle" x="86.5" y="-380" font-family="Helvetica,sans-Serif" font-size="10.00">+right</text>
</g>
<!-- Node4 -->
<g id="node4" class="node">
<title>Node4</title>
<g id="a_node4"><a xlink:href="structblock__meta__data__.html" target="_top" xlink:title="Structure representing metadata for a memory block.">
<polygon fill="white" stroke="black" points="58,-232.5 58,-311.5 154,-311.5 154,-232.5 58,-232.5"/>
<text text-anchor="middle" x="106" y="-299.5" font-family="Helvetica,sans-Serif" font-size="10.00">block_meta_data_</text>
<polyline fill="none" stroke="black" points="58,-292.5 154,-292.5 "/>
<text text-anchor="start" x="66" y="-280.5" font-family="Helvetica,sans-Serif" font-size="10.00">+ is_free</text>
<text text-anchor="start" x="66" y="-269.5" font-family="Helvetica,sans-Serif" font-size="10.00">+ block_size</text>
<text text-anchor="start" x="66" y="-258.5" font-family="Helvetica,sans-Serif" font-size="10.00">+ offset</text>
<polyline fill="none" stroke="black" points="58,-251.5 154,-251.5 "/>
<text text-anchor="middle" x="106" y="-239.5" font-family="Helvetica,sans-Serif" font-size="10.00"> </text>
</a>
</g>
</g>
<!-- Node3&#45;&gt;Node4 -->
<g id="edge7" class="edge">
<title>Node3&#45;&gt;Node4</title>
<path fill="none" stroke="#404040" d="M46.88,-359.4C54.64,-348.07 63.85,-334.6 72.68,-321.7"/>
<polygon fill="none" stroke="#404040" points="72.85,-321.44 72.94,-314.23 79.63,-311.54 79.54,-318.75 72.85,-321.44"/>
<text text-anchor="middle" x="114" y="-333" font-family="Helvetica,sans-Serif" font-size="10.00"> +priority_thread_glue</text>
</g>
<!-- Node4&#45;&gt;Node1 -->
<g id="edge6" class="edge">
<title>Node4&#45;&gt;Node1</title>
<path fill="none" stroke="#404040" d="M110.93,-232.48C112.82,-217.68 114.99,-200.77 116.9,-185.85"/>
<polygon fill="none" stroke="#404040" points="116.91,-185.79 113.7,-179.33 118.43,-173.88 121.64,-180.34 116.91,-185.79"/>
<text text-anchor="middle" x="158" y="-200.5" font-family="Helvetica,sans-Serif" font-size="10.00"> +block_meta_data</text>
</g>
<!-- Node4&#45;&gt;Node4 -->
<g id="edge8" class="edge">
<title>Node4&#45;&gt;Node4</title>
<path fill="none" stroke="#404040" d="M154.05,-283.28C164.46,-282.18 172,-278.42 172,-272 172,-268.49 169.74,-265.78 166,-263.85"/>
<polygon fill="none" stroke="#404040" points="165.66,-263.77 158.84,-266.11 154.05,-260.72 160.87,-258.37 165.66,-263.77"/>
<text text-anchor="middle" x="200.5" y="-275" font-family="Helvetica,sans-Serif" font-size="10.00"> +next_block</text>
<text text-anchor="middle" x="200.5" y="-264" font-family="Helvetica,sans-Serif" font-size="10.00">+prev_block</text>
</g>
</g>
</svg>
