<?xml version="1.0" encoding="UTF-8" standalone="no"?>
<!DOCTYPE svg PUBLIC "-//W3C//DTD SVG 1.1//EN"
 "http://www.w3.org/Graphics/SVG/1.1/DTD/svg11.dtd">
<!-- Generated by graphviz version 2.43.0 (0)
 -->
<!-- Title: block_meta_data_ Pages: 1 -->
<svg width="179pt" height="193pt"
 viewBox="0.00 0.00 179.00 193.00" xmlns="http://www.w3.org/2000/svg" xmlns:xlink="http://www.w3.org/1999/xlink">
<g id="graph0" class="graph" transform="scale(1 1) rotate(0) translate(4 189)">
<title>block_meta_data_</title>
<polygon fill="white" stroke="transparent" points="-4,4 -4,-189 175,-189 175,4 -4,4"/>
<!-- Node1 -->
<g id="node1" class="node">
<title>Node1</title>
<g id="a_node1"><a xlink:title="Structure representing metadata for a memory block.">
<polygon fill="#bfbfbf" stroke="black" points="0,-0.5 0,-79.5 96,-79.5 96,-0.5 0,-0.5"/>
<text text-anchor="middle" x="48" y="-67.5" font-family="Helvetica,sans-Serif" font-size="10.00">block_meta_data_</text>
<polyline fill="none" stroke="black" points="0,-60.5 96,-60.5 "/>
<text text-anchor="start" x="8" y="-48.5" font-family="Helvetica,sans-Serif" font-size="10.00">+ is_free</text>
<text text-anchor="start" x="8" y="-37.5" font-family="Helvetica,sans-Serif" font-size="10.00">+ block_size</text>
<text text-anchor="start" x="8" y="-26.5" font-family="Helvetica,sans-Serif" font-size="10.00">+ offset</text>
<polyline fill="none" stroke="black" points="0,-19.5 96,-19.5 "/>
<text text-anchor="middle" x="48" y="-7.5" font-family="Helvetica,sans-Serif" font-size="10.00"> </text>
</a>
</g>
</g>
<!-- Node1&#45;&gt;Node1 -->
<g id="edge3" class="edge">
<title>Node1&#45;&gt;Node1</title>
<path fill="none" stroke="#404040" d="M96.05,-51.28C106.46,-50.18 114,-46.42 114,-40 114,-36.49 111.74,-33.78 108,-31.85"/>
<polygon fill="none" stroke="#404040" points="107.66,-31.77 100.84,-34.11 96.05,-28.72 102.87,-26.37 107.66,-31.77"/>
<text text-anchor="middle" x="142.5" y="-43" font-family="Helvetica,sans-Serif" font-size="10.00"> +next_block</text>
<text text-anchor="middle" x="142.5" y="-32" font-family="Helvetica,sans-Serif" font-size="10.00">+prev_block</text>
</g>
<!-- Node2 -->
<g id="node2" class="node">
<title>Node2</title>
<g id="a_node2"><a xlink:href="structglthread__.html" target="_top" xlink:title="Structure representing a generic linked list node for threaded linking.">
<polygon fill="white" stroke="black" points="20,-127.5 20,-184.5 76,-184.5 76,-127.5 20,-127.5"/>
<text text-anchor="middle" x="48" y="-172.5" font-family="Helvetica,sans-Serif" font-size="10.00">glthread_</text>
<polyline fill="none" stroke="black" points="20,-165.5 76,-165.5 "/>
<text text-anchor="middle" x="48" y="-153.5" font-family="Helvetica,sans-Serif" font-size="10.00"> </text>
<polyline fill="none" stroke="black" points="20,-146.5 76,-146.5 "/>
<text text-anchor="middle" x="48" y="-134.5" font-family="Helvetica,sans-Serif" font-size="10.00"> </text>
</a>
</g>
</g>
<!-- Node2&#45;&gt;Node1 -->
<g id="edge1" class="edge">
<title>Node2&#45;&gt;Node1</title>
<path fill="none" stroke="#404040" d="M48,-127.4C48,-116.63 48,-103.93 48,-91.62"/>
<polygon fill="none" stroke="#404040" points="48,-91.54 44,-85.54 48,-79.54 52,-85.54 48,-91.54"/>
<text text-anchor="middle" x="95" y="-101" font-family="Helvetica,sans-Serif" font-size="10.00"> +priority_thread_glue</text>
</g>
<!-- Node2&#45;&gt;Node2 -->
<g id="edge2" class="edge">
<title>Node2&#45;&gt;Node2</title>
<path fill="none" stroke="#404040" d="M76.3,-165.75C86.09,-165.85 94,-162.6 94,-156 94,-152.49 91.77,-149.93 88.21,-148.32"/>
<polygon fill="none" stroke="#404040" points="88.12,-148.3 81.53,-151.22 76.3,-146.25 82.89,-143.34 88.12,-148.3"/>
<text text-anchor="middle" x="106.5" y="-159" font-family="Helvetica,sans-Serif" font-size="10.00"> +left</text>
<text text-anchor="middle" x="106.5" y="-148" font-family="Helvetica,sans-Serif" font-size="10.00">+right</text>
</g>
</g>
</svg>
