<?xml version="1.0" encoding="UTF-8" standalone="no"?>
<!DOCTYPE svg PUBLIC "-//W3C//DTD SVG 1.1//EN"
 "http://www.w3.org/Graphics/SVG/1.1/DTD/svg11.dtd">
<!-- Generated by graphviz version 2.43.0 (0)
 -->
<!-- Title: vm_page_for_families_ Pages: 1 -->
<svg width="434pt" height="309pt"
 viewBox="0.00 0.00 433.50 309.00" xmlns="http://www.w3.org/2000/svg" xmlns:xlink="http://www.w3.org/1999/xlink">
<g id="graph0" class="graph" transform="scale(1 1) rotate(0) translate(4 305)">
<title>vm_page_for_families_</title>
<polygon fill="white" stroke="transparent" points="-4,4 -4,-305 429.5,-305 429.5,4 -4,4"/>
<!-- Node1 -->
<g id="node1" class="node">
<title>Node1</title>
<g id="a_node1"><a xlink:title="Structure representing a virtual memory page containing families of memory structures.">
<polygon fill="#bfbfbf" stroke="black" points="0,-0.5 0,-57.5 117,-57.5 117,-0.5 0,-0.5"/>
<text text-anchor="middle" x="58.5" y="-45.5" font-family="Helvetica,sans-Serif" font-size="10.00">vm_page_for_families_</text>
<polyline fill="none" stroke="black" points="0,-38.5 117,-38.5 "/>
<text text-anchor="middle" x="58.5" y="-26.5" font-family="Helvetica,sans-Serif" font-size="10.00"> </text>
<polyline fill="none" stroke="black" points="0,-19.5 117,-19.5 "/>
<text text-anchor="middle" x="58.5" y="-7.5" font-family="Helvetica,sans-Serif" font-size="10.00"> </text>
</a>
</g>
</g>
<!-- Node1&#45;&gt;Node1 -->
<g id="edge10" class="edge">
<title>Node1&#45;&gt;Node1</title>
<path fill="none" stroke="#404040" d="M117.2,-38.18C127.68,-36.99 135,-33.93 135,-29 135,-26.31 132.81,-24.17 129.11,-22.59"/>
<polygon fill="none" stroke="#404040" points="128.88,-22.54 122.13,-25.08 117.2,-19.82 123.95,-17.29 128.88,-22.54"/>
<text text-anchor="middle" x="149" y="-26.5" font-family="Helvetica,sans-Serif" font-size="10.00"> +next</text>
</g>
<!-- Node2 -->
<g id="node2" class="node">
<title>Node2</title>
<g id="a_node2"><a xlink:href="structvm__page__family__.html" target="_top" xlink:title="Structure representing a page family in virtual memory.">
<polygon fill="white" stroke="black" points="134,-111 134,-179 227,-179 227,-111 134,-111"/>
<text text-anchor="middle" x="180.5" y="-167" font-family="Helvetica,sans-Serif" font-size="10.00">vm_page_family_</text>
<polyline fill="none" stroke="black" points="134,-160 227,-160 "/>
<text text-anchor="start" x="142" y="-148" font-family="Helvetica,sans-Serif" font-size="10.00">+ struct_name</text>
<text text-anchor="start" x="142" y="-137" font-family="Helvetica,sans-Serif" font-size="10.00">+ struct_size</text>
<polyline fill="none" stroke="black" points="134,-130 227,-130 "/>
<text text-anchor="middle" x="180.5" y="-118" font-family="Helvetica,sans-Serif" font-size="10.00"> </text>
</a>
</g>
</g>
<!-- Node2&#45;&gt;Node1 -->
<g id="edge1" class="edge">
<title>Node2&#45;&gt;Node1</title>
<path fill="none" stroke="#404040" d="M133.87,-129.91C111.86,-120.98 87.08,-107.21 71.5,-87 67.57,-81.9 64.79,-75.84 62.83,-69.6"/>
<polygon fill="none" stroke="#404040" points="62.75,-69.26 57.48,-64.34 59.99,-57.58 65.27,-62.5 62.75,-69.26"/>
<text text-anchor="middle" x="112" y="-79" font-family="Helvetica,sans-Serif" font-size="10.00"> +vm_page_family</text>
</g>
<!-- Node4 -->
<g id="node4" class="node">
<title>Node4</title>
<g id="a_node4"><a xlink:href="structvm__page__.html" target="_top" xlink:title="Structure representing a virtual memory page.">
<polygon fill="white" stroke="black" points="194,-0.5 194,-57.5 281,-57.5 281,-0.5 194,-0.5"/>
<text text-anchor="middle" x="237.5" y="-45.5" font-family="Helvetica,sans-Serif" font-size="10.00">vm_page_</text>
<polyline fill="none" stroke="black" points="194,-38.5 281,-38.5 "/>
<text text-anchor="start" x="202" y="-26.5" font-family="Helvetica,sans-Serif" font-size="10.00">+ page_memory</text>
<polyline fill="none" stroke="black" points="194,-19.5 281,-19.5 "/>
<text text-anchor="middle" x="237.5" y="-7.5" font-family="Helvetica,sans-Serif" font-size="10.00"> </text>
</a>
</g>
</g>
<!-- Node2&#45;&gt;Node4 -->
<g id="edge5" class="edge">
<title>Node2&#45;&gt;Node4</title>
<path fill="none" stroke="#404040" d="M159.78,-110.97C155.24,-99.45 153.37,-86.73 159.5,-76 165.11,-66.18 173.73,-58.24 183.23,-51.91"/>
<polygon fill="none" stroke="#404040" points="183.45,-51.77 186.57,-45.27 193.77,-45.65 190.65,-52.15 183.45,-51.77"/>
<text text-anchor="middle" x="185.5" y="-79" font-family="Helvetica,sans-Serif" font-size="10.00"> +pg_family</text>
</g>
<!-- Node3 -->
<g id="node3" class="node">
<title>Node3</title>
<g id="a_node3"><a xlink:href="structglthread__.html" target="_top" xlink:title="Structure representing a generic linked list node for threaded linking.">
<polygon fill="white" stroke="black" points="208.5,-243.5 208.5,-300.5 264.5,-300.5 264.5,-243.5 208.5,-243.5"/>
<text text-anchor="middle" x="236.5" y="-288.5" font-family="Helvetica,sans-Serif" font-size="10.00">glthread_</text>
<polyline fill="none" stroke="black" points="208.5,-281.5 264.5,-281.5 "/>
<text text-anchor="middle" x="236.5" y="-269.5" font-family="Helvetica,sans-Serif" font-size="10.00"> </text>
<polyline fill="none" stroke="black" points="208.5,-262.5 264.5,-262.5 "/>
<text text-anchor="middle" x="236.5" y="-250.5" font-family="Helvetica,sans-Serif" font-size="10.00"> </text>
</a>
</g>
</g>
<!-- Node3&#45;&gt;Node2 -->
<g id="edge2" class="edge">
<title>Node3&#45;&gt;Node2</title>
<path fill="none" stroke="#404040" d="M208.39,-254.83C197.96,-247.23 187.27,-237.14 181.5,-225 176.62,-214.72 174.79,-202.8 174.56,-191.39"/>
<polygon fill="none" stroke="#404040" points="174.56,-191.3 170.71,-185.2 174.86,-179.31 178.71,-185.4 174.56,-191.3"/>
<text text-anchor="start" x="181.5" y="-217" font-family="Helvetica,sans-Serif" font-size="10.00"> +free_block_priority</text>
<text text-anchor="middle" x="226" y="-206" font-family="Helvetica,sans-Serif" font-size="10.00">_list_head</text>
</g>
<!-- Node3&#45;&gt;Node3 -->
<g id="edge3" class="edge">
<title>Node3&#45;&gt;Node3</title>
<path fill="none" stroke="#404040" d="M264.8,-282.87C274.59,-282.99 282.5,-279.36 282.5,-272 282.5,-268.09 280.27,-265.23 276.71,-263.43"/>
<polygon fill="none" stroke="#404040" points="276.58,-263.41 269.93,-266.19 264.8,-261.13 271.45,-258.34 276.58,-263.41"/>
<text text-anchor="middle" x="295" y="-275" font-family="Helvetica,sans-Serif" font-size="10.00"> +left</text>
<text text-anchor="middle" x="295" y="-264" font-family="Helvetica,sans-Serif" font-size="10.00">+right</text>
</g>
<!-- Node5 -->
<g id="node5" class="node">
<title>Node5</title>
<g id="a_node5"><a xlink:href="structblock__meta__data__.html" target="_top" xlink:title="Structure representing metadata for a memory block.">
<polygon fill="white" stroke="black" points="254.5,-105.5 254.5,-184.5 350.5,-184.5 350.5,-105.5 254.5,-105.5"/>
<text text-anchor="middle" x="302.5" y="-172.5" font-family="Helvetica,sans-Serif" font-size="10.00">block_meta_data_</text>
<polyline fill="none" stroke="black" points="254.5,-165.5 350.5,-165.5 "/>
<text text-anchor="start" x="262.5" y="-153.5" font-family="Helvetica,sans-Serif" font-size="10.00">+ is_free</text>
<text text-anchor="start" x="262.5" y="-142.5" font-family="Helvetica,sans-Serif" font-size="10.00">+ block_size</text>
<text text-anchor="start" x="262.5" y="-131.5" font-family="Helvetica,sans-Serif" font-size="10.00">+ offset</text>
<polyline fill="none" stroke="black" points="254.5,-124.5 350.5,-124.5 "/>
<text text-anchor="middle" x="302.5" y="-112.5" font-family="Helvetica,sans-Serif" font-size="10.00"> </text>
</a>
</g>
</g>
<!-- Node3&#45;&gt;Node5 -->
<g id="edge8" class="edge">
<title>Node3&#45;&gt;Node5</title>
<path fill="none" stroke="#404040" d="M258.88,-243.04C263.02,-237.25 267.1,-231.06 270.5,-225 275.59,-215.91 280.31,-205.84 284.46,-196.02"/>
<polygon fill="none" stroke="#404040" points="284.56,-195.79 283.11,-188.73 289.08,-184.67 290.52,-191.74 284.56,-195.79"/>
<text text-anchor="middle" x="328.5" y="-211.5" font-family="Helvetica,sans-Serif" font-size="10.00"> +priority_thread_glue</text>
</g>
<!-- Node4&#45;&gt;Node2 -->
<g id="edge4" class="edge">
<title>Node4&#45;&gt;Node2</title>
<path fill="none" stroke="#404040" d="M227.97,-57.69C224.41,-67.15 220.11,-77.68 215.5,-87 213.36,-91.33 210.99,-95.75 208.53,-100.13"/>
<polygon fill="none" stroke="#404040" points="208.33,-100.46 208.75,-107.66 202.27,-110.82 201.85,-103.62 208.33,-100.46"/>
<text text-anchor="middle" x="246.5" y="-79" font-family="Helvetica,sans-Serif" font-size="10.00"> +first_page</text>
</g>
<!-- Node4&#45;&gt;Node4 -->
<g id="edge6" class="edge">
<title>Node4&#45;&gt;Node4</title>
<path fill="none" stroke="#404040" d="M281.17,-38.56C291.43,-37.77 299,-34.59 299,-29 299,-25.95 296.74,-23.61 293.01,-21.99"/>
<polygon fill="none" stroke="#404040" points="292.9,-21.97 286.19,-24.62 281.17,-19.44 287.88,-16.79 292.9,-21.97"/>
<text text-anchor="middle" x="313" y="-32" font-family="Helvetica,sans-Serif" font-size="10.00"> +next</text>
<text text-anchor="middle" x="313" y="-21" font-family="Helvetica,sans-Serif" font-size="10.00">+prev</text>
</g>
<!-- Node5&#45;&gt;Node4 -->
<g id="edge7" class="edge">
<title>Node5&#45;&gt;Node4</title>
<path fill="none" stroke="#404040" d="M290.24,-105.18C286.45,-95.35 281.84,-85.03 276.5,-76 274.75,-73.04 272.81,-70.09 270.75,-67.18"/>
<polygon fill="none" stroke="#404040" points="270.71,-67.12 263.89,-64.77 263.44,-57.57 270.25,-59.92 270.71,-67.12"/>
<text text-anchor="middle" x="324.5" y="-79" font-family="Helvetica,sans-Serif" font-size="10.00"> +block_meta_data</text>
</g>
<!-- Node5&#45;&gt;Node5 -->
<g id="edge9" class="edge">
<title>Node5&#45;&gt;Node5</title>
<path fill="none" stroke="#404040" d="M350.55,-156.28C360.96,-155.18 368.5,-151.42 368.5,-145 368.5,-141.49 366.24,-138.78 362.5,-136.85"/>
<polygon fill="none" stroke="#404040" points="362.16,-136.77 355.34,-139.11 350.55,-133.72 357.37,-131.37 362.16,-136.77"/>
<text text-anchor="middle" x="397" y="-148" font-family="Helvetica,sans-Serif" font-size="10.00"> +next_block</text>
<text text-anchor="middle" x="397" y="-137" font-family="Helvetica,sans-Serif" font-size="10.00">+prev_block</text>
</g>
</g>
</svg>
